<?xml version="1.0" encoding="utf-8"?>
<!-- Generator: Adobe Illustrator 23.0.3, SVG Export Plug-In . SVG Version: 6.00 Build 0)  -->
<svg version="1.1" id="Слой_1" xmlns="http://www.w3.org/2000/svg" xmlns:xlink="http://www.w3.org/1999/xlink" x="0px" y="0px"
	 viewBox="0 0 16 11" style="enable-background:new 0 0 16 11;" xml:space="preserve">
<style type="text/css">
	.st0{fill:#243668;}
</style>
<image style="display:none;overflow:visible;" width="16" height="11" xlink:href="../../../../../link-arr.png" >
</image>
<g>
	<path class="st0" d="M0.2,5.9l4.9,4.9c0.2,0.2,0.5,0.2,0.7,0c0.2-0.2,0.2-0.5,0-0.7L1.8,6h13.6C15.8,6,16,5.8,16,5.5S15.8,5,15.5,5
		H1.8l4-4.1C6,0.7,6,0.3,5.8,0.2C5.7,0.1,5.6,0,5.4,0S5.2,0.1,5.1,0.2l-4.9,5C0,5.3,0,5.7,0.2,5.9z"/>
</g>
</svg>
