<?xml version="1.0" encoding="utf-8"?>
<!-- Generator: Adobe Illustrator 23.0.3, SVG Export Plug-In . SVG Version: 6.00 Build 0)  -->
<svg version="1.1" id="Слой_1" xmlns="http://www.w3.org/2000/svg" xmlns:xlink="http://www.w3.org/1999/xlink" x="0px" y="0px"
	 viewBox="0 0 13 10" style="enable-background:new 0 0 13 10;" xml:space="preserve">
<style type="text/css">
	.st0{fill:#56B9F2;}
</style>
<image style="display:none;overflow:visible;" width="13" height="10" xlink:href="arrow-btn-bg.png" >
</image>
<g>
	<path class="st0" d="M12.7,4.3L8.7,0.3c-0.4-0.4-0.9-0.4-1.3,0C7,0.6,7,1.2,7.4,1.6l2.5,2.5l-8.9,0C0.4,4.1,0,4.5,0,5
		c0,0.5,0.4,0.9,0.9,0.9l8.9,0L7.3,8.4C7,8.8,7,9.4,7.3,9.7C7.5,9.9,7.8,10,8,10s0.5-0.1,0.7-0.3l4.1-4.1
		C13.1,5.3,13.1,4.7,12.7,4.3z"/>
</g>
</svg>
