<?xml version="1.0" encoding="utf-8"?>
<!-- Generator: Adobe Illustrator 23.0.3, SVG Export Plug-In . SVG Version: 6.00 Build 0)  -->
<svg version="1.1" id="Слой_1" xmlns="http://www.w3.org/2000/svg" xmlns:xlink="http://www.w3.org/1999/xlink" x="0px" y="0px"
	 viewBox="0 0 7 7" style="enable-background:new 0 0 7 7;" xml:space="preserve">
<style type="text/css">
	.st0{fill:#56B9F2;}
</style>
<g>
	<path class="st0" d="M3.2,0.2l-2.8,3c-0.2,0.2-0.2,0.5,0,0.7C0.6,4,0.9,4,1.1,3.8l2-2.2v4.8C3.1,6.8,3.3,7,3.6,7S4,6.8,4,6.5V1.7
		l1.9,2.1C6.1,4,6.4,4,6.5,3.9c0.1-0.1,0.2-0.3,0.2-0.4c0-0.1-0.1-0.3-0.2-0.4l-2.7-3C3.7,0,3.4,0,3.2,0.2z"/>
</g>
</svg>
