<?xml version="1.0" encoding="utf-8"?>
<!-- Generator: Adobe Illustrator 23.0.3, SVG Export Plug-In . SVG Version: 6.00 Build 0)  -->
<svg version="1.1" id="Слой_1" xmlns="http://www.w3.org/2000/svg" xmlns:xlink="http://www.w3.org/1999/xlink" x="0px" y="0px"
	 viewBox="0 0 512 512" style="enable-background:new 0 0 512 512;" xml:space="preserve">
<style type="text/css">
	.st0{fill:#2C4A9F;stroke:#2C4A9F;stroke-width:10;stroke-miterlimit:10;}
</style>
<path class="st0" d="M252.4,246.6c33.9,0,63.2-12.2,87.2-36.1c24-24,36.1-53.3,36.1-87.2c0-33.9-12.2-63.2-36.1-87.2
	c-24-24-53.3-36.1-87.2-36.1c-33.9,0-63.2,12.2-87.2,36.1S129,89.4,129,123.3c0,33.9,12.2,63.2,36.1,87.2
	C189.1,234.5,218.5,246.6,252.4,246.6z M186.4,57.3c18.4-18.4,40-27.3,66-27.3c26,0,47.6,8.9,66,27.3c18.4,18.4,27.3,40,27.3,66
	c0,26-8.9,47.6-27.3,66c-18.4,18.4-40,27.3-66,27.3c-26,0-47.6-8.9-66-27.3c-18.4-18.4-27.3-40-27.3-66
	C159,97.3,168,75.7,186.4,57.3z"/>
<path class="st0" d="M481,393.7c-0.7-10-2.2-20.9-4.4-32.4c-2.2-11.6-5-22.5-8.4-32.5c-3.5-10.3-8.3-20.6-14.2-30.3
	c-6.1-10.2-13.3-19-21.4-26.3c-8.4-7.6-18.8-13.7-30.7-18.2c-11.9-4.4-25.1-6.7-39.2-6.7c-5.5,0-10.9,2.1-21.3,8.5
	c-6.4,3.9-13.8,8.4-22.1,13.5c-7.1,4.3-16.7,8.3-28.6,11.9c-11.6,3.5-23.4,5.3-35,5.3c-11.6,0-23.4-1.8-35-5.3
	c-11.9-3.6-21.5-7.6-28.6-11.9c-8.2-5-15.7-9.5-22.2-13.5c-10.3-6.4-15.7-8.5-21.2-8.5c-14.1,0-27.3,2.3-39.2,6.7
	c-11.9,4.5-22.3,10.6-30.7,18.2c-8.1,7.3-15.3,16.1-21.4,26.3c-5.9,9.8-10.7,20-14.2,30.3c-3.4,10-6.2,20.9-8.4,32.5
	c-2.2,11.5-3.7,22.4-4.4,32.4c-0.7,9.8-1.1,20-1.1,30.2c0,26.7,9,48.4,26.8,64.3c17.5,15.7,40.8,23.7,69,23.7h261.4
	c28.2,0,51.4-8,69-23.7c17.8-15.9,26.8-37.6,26.8-64.3C482.1,413.6,481.7,403.5,481,393.7z M433.4,466.5
	c-11.6,10.4-27,15.5-47.1,15.5H124.9c-20.1,0-35.5-5.1-47.1-15.5c-11.4-10.2-16.9-24.1-16.9-42.6c0-9.6,0.3-19.1,1-28.2
	c0.7-8.9,2-18.7,4-29.1c2-10.3,4.5-19.9,7.4-28.7c2.8-8.4,6.7-16.7,11.5-24.7c4.6-7.6,9.9-14.2,15.7-19.4c5.5-4.9,12.3-9,20.4-12
	c7.5-2.8,15.9-4.3,25.1-4.6c1.1,0.6,3.1,1.6,6.3,3.6c6.5,4,14.1,8.6,22.4,13.6c9.4,5.6,21.5,10.8,36,15.2
	c14.8,4.5,29.9,6.8,44.8,6.8s30-2.3,44.8-6.8c14.5-4.4,26.6-9.5,36-15.2c8.5-5.1,15.9-9.6,22.4-13.6c3.2-2,5.2-3,6.3-3.6
	c9.1,0.2,17.6,1.8,25.1,4.6c8.1,3,15,7.1,20.4,12c5.8,5.3,11.1,11.8,15.7,19.4c4.8,8,8.7,16.3,11.5,24.7c3,8.8,5.5,18.4,7.4,28.7
	c2,10.4,3.3,20.2,4,29.1v0c0.7,9.1,1,18.5,1,28.1C450.3,442.4,444.7,456.3,433.4,466.5z"/>
</svg>
