<?xml version="1.0" encoding="utf-8"?>
<!-- Generator: Adobe Illustrator 23.0.3, SVG Export Plug-In . SVG Version: 6.00 Build 0)  -->
<svg version="1.1" id="Capa_1" xmlns="http://www.w3.org/2000/svg" xmlns:xlink="http://www.w3.org/1999/xlink" x="0px" y="0px"
	 viewBox="0 0 58 58" style="enable-background:new 0 0 58 58;" xml:space="preserve">
<style type="text/css">
	.st0{fill:#FFBF9E;}
	.st1{fill:#FFFFFF;}
</style>
<g>
	<path class="st0" d="M0,58l5-15c-2.5-4.3-4-9.2-4-14.5C1,12.8,13.8,0,29.5,0S58,12.8,58,28.5S45.2,57,29.5,57
		c-4.8,0-9.3-1.2-13.3-3.3L0,58z"/>
	<path class="st1" d="M46,39.7c-1.3-2.5-6.2-5.3-6.2-5.3c-1.1-0.6-2.4-0.7-3,0.4c0,0-1.6,1.9-2,2.2c-1.8,1.2-3.5,1.2-5.2-0.5l-4-4
		l-4-4c-1.7-1.7-1.8-3.4-0.5-5.2c0.3-0.4,2.2-2,2.2-2c1.1-0.6,1-2,0.4-3c0,0-2.8-4.9-5.3-6.2c-1.1-0.6-2.4-0.4-3.2,0.5l-1.8,1.8
		c-5.6,5.6-2.8,11.9,2.7,17.4l5.1,5.1l5.1,5.1c5.6,5.6,11.9,8.3,17.5,2.7l1.8-1.8C46.3,42.1,46.5,40.8,46,39.7z"/>
</g>
</svg>
