<?xml version="1.0" standalone="no"?>
<!DOCTYPE svg PUBLIC "-//W3C//DTD SVG 1.1//EN" "http://www.w3.org/Graphics/SVG/1.1/DTD/svg11.dtd" >
<svg>
<metadata>
Created by FontForge 20090914 at Mon Mar  9 13:30:15 2020
 By www-data
Copyright 2013 The Alegreya Sans Project Authors (https://github.com/huertatipografica/Alegreya-Sans)
</metadata>
<defs>
<font id="AlegreyaSans-Bold" horiz-adv-x="0" >
  <font-face 
    font-family="Alegreya Sans"
    font-weight="700"
    font-stretch="normal"
    units-per-em="1000"
    panose-1="0 0 8 0 0 0 0 0 0 0"
    ascent="800"
    descent="-200"
    x-height="467"
    cap-height="644"
    bbox="-382 -259 955.001 889.001"
    underline-thickness="59"
    underline-position="-119"
    unicode-range="U+000D-U+04F9"
  />
<missing-glyph horiz-adv-x="151" 
 />
    <glyph glyph-name="uni1EBC" unicode="&#x7e;E" horiz-adv-x="509" 
d="M483 112l8 -11l-9 -101h-404l7 192l-7 452h408l8 -11l-10 -101l-154 5l-116 -1l-3 -155l111 -2l105 3l8 -10l-9 -101l-114 3l-103 -1l-1 -69l3 -97l113 -1zM456 841l-0.00195312 -11.001l-70 -89l-13 -5c-18 2 -45.667 8.33301 -83 19
c-3.33301 0.666992 -14.166 3.5 -32.499 8.5s-31.166 7.5 -38.499 7.5s-14.5 -3 -21.5 -9s-14.5 -13.333 -22.5 -22l-18 -20h-12l-40 39v11l71 89l12 5c16 -2 44.333 -8.66699 85 -20c37.333 -10 60.333 -15 69 -15c8 0 15.833 3.33301 23.5 10s15.5 14.334 23.5 23.001
s13.333 14.667 16 18h12z" />
    <glyph glyph-name="Itilde" unicode="&#x7e;I" horiz-adv-x="295" 
d="M208 204l6 -204h-136l7 192l-7 452h138zM301 838l0.000976562 -10.999l-63 -89l-12 -4c-16 2.66699 -39.333 9 -70 19c-31.333 10 -50.666 15 -57.999 15s-14.5 -3.33301 -21.5 -10s-13.833 -14.334 -20.5 -23.001l-13 -17h-11l-39 39v12l62 87l13 5
c16 -2.66699 39.333 -9 70 -19c31.333 -10 50.666 -15 57.999 -15s14.166 3 20.499 9s12.833 13.333 19.5 22s11.667 15 15 19h11z" />
    <glyph glyph-name="Utilde" unicode="&#x7e;U" horiz-adv-x="638" 
d="M573 317l-0.999023 -85c0.666992 -76.667 -21.666 -136 -66.999 -178s-110.333 -63 -195 -63c-81.333 0 -143.333 20.333 -186 61s-63 99 -61 175l1 93l-3 324h136l-7 -399c-0.666992 -48.667 9.66602 -84.667 30.999 -108s53.666 -35 96.999 -35
c86.667 0 129.667 45.333 129 136l-7 406h138zM495.001 841l-0.00195312 -11.001l-70 -89l-13 -5c-18 2 -45.667 8.33301 -83 19c-3.33301 0.666992 -14.166 3.5 -32.499 8.5s-31.166 7.5 -38.499 7.5s-14.5 -3 -21.5 -9s-14.5 -13.333 -22.5 -22l-18 -20h-12l-40 39v11
l71 89l12 5c16 -2 44.333 -8.66699 85 -20c37.333 -10 60.333 -15 69 -15c8 0 15.833 3.33301 23.5 10s15.5 14.334 23.5 23.001s13.333 14.667 16 18h12z" />
    <glyph glyph-name="uni1EF8" unicode="&#x7e;Y" horiz-adv-x="558" 
d="M333 179l6 -179h-135l6 179l-1 38l-205 427h144l14 -45l109 -245h9l122 241l19 49h139l-225 -422zM450 841l-0.00195312 -11.001l-70 -89l-13 -5c-18 2 -45.667 8.33301 -83 19c-3.33301 0.666992 -14.166 3.5 -32.499 8.5s-31.166 7.5 -38.499 7.5s-14.5 -3 -21.5 -9
s-14.5 -13.333 -22.5 -22l-18 -20h-12l-40 39v11l71 89l12 5c16 -2 44.333 -8.66699 85 -20c37.333 -10 60.333 -15 69 -15c8 0 15.833 3.33301 23.5 10s15.5 14.334 23.5 23.001s13.333 14.667 16 18h12z" />
    <glyph glyph-name="uni1EBD" unicode="&#x7e;e" horiz-adv-x="472" 
d="M421 216l-269.998 -2.00195c6 -83.333 48.333 -125 127 -125c41.333 0 87.333 11.667 138 35l11 -7l-20 -99c-50.667 -18.667 -98.334 -28 -143.001 -28c-73.333 0 -130.833 21.333 -172.5 64s-62.5 101.667 -62.5 177c0 74.667 20.333 133.834 61 177.501
s95.667 65.5 165 65.5c59.333 0 105.166 -16.167 137.499 -48.5s48.5 -77.5 48.5 -135.5c0 -15.333 -1.66699 -34.666 -5 -57.999zM325.002 304.998c0 26.667 -6 46.833 -18 60.5s-29.667 20.5 -53 20.5c-26 0 -47.667 -8.5 -65 -25.5s-29 -41.5 -35 -73.5l169 4z
M419.002 660.997l-0.00195312 -11.001l-70 -89l-13 -5c-18 2 -45.667 8.33301 -83 19c-3.33301 0.666992 -14.166 3.5 -32.499 8.5s-31.166 7.5 -38.499 7.5s-14.5 -3 -21.5 -9s-14.5 -13.333 -22.5 -22l-18 -20h-12l-40 39v11l71 89l12 5c16 -2 44.333 -8.66699 85 -20
c37.333 -10 60.333 -15 69 -15c8 0 15.833 3.33301 23.5 10s15.5 14.334 23.5 23.001s13.333 14.667 16 18h12z" />
    <glyph glyph-name="itilde" unicode="&#x7e;i" horiz-adv-x="261" 
d="M70 192l-5 264l131 11l-6 -262l6 -205h-133zM284 659l0.000976562 -10.999l-63 -89l-12 -4c-16 2.66699 -39.333 9 -70 19c-31.333 10 -50.666 15 -57.999 15s-14.5 -3.33301 -21.5 -10s-13.833 -14.334 -20.5 -23.001l-13 -17h-11l-39 39v12l62 87l13 5
c16 -2.66699 39.333 -9 70 -19c31.333 -10 50.666 -15 57.999 -15s14.166 3 20.499 9s12.833 13.333 19.5 22s11.667 15 15 19h11z" />
    <glyph glyph-name="utilde" unicode="&#x7e;u" horiz-adv-x="522" 
d="M505 87l-12 -70c-24.667 -16 -50 -24.333 -76 -25c-19.333 3.33301 -35.333 11 -48 23s-22.334 29.333 -29.001 52h-9c-38 -37.333 -77.333 -61.666 -118 -72.999c-50.667 0 -89.167 11.5 -115.5 34.5s-39.166 56.167 -38.499 99.5l2 118l-5 210l129 11l-3 -295
c-0.666992 -23.333 4 -41 14 -53s25 -18 45 -18c29.333 0 58.333 13 87 39v316l127 11l-9 -346c0 -10.667 1.83301 -18.334 5.5 -23.001s9.5 -7 17.5 -7c7.33301 0 16.333 1.33301 27 4zM432 662l-0.00195312 -11.001l-70 -89l-13 -5c-18 2 -45.667 8.33301 -83 19
c-3.33301 0.666992 -14.166 3.5 -32.499 8.5s-31.166 7.5 -38.499 7.5s-14.5 -3 -21.5 -9s-14.5 -13.333 -22.5 -22l-18 -20h-12l-40 39v11l71 89l12 5c16 -2 44.333 -8.66699 85 -20c37.333 -10 60.333 -15 69 -15c8 0 15.833 3.33301 23.5 10s15.5 14.334 23.5 23.001
s13.333 14.667 16 18h12z" />
    <glyph glyph-name="uni1EF9" unicode="&#x7e;y" horiz-adv-x="447" 
d="M141 394l83.001 -259.997h8l83 249l17 82h114l-152 -434c-16 -45.333 -34 -81.833 -54 -109.5s-45 -50.334 -75 -68.001s-68.667 -32.834 -116 -45.501l-10 1c-22.667 22 -41.334 48 -56.001 78l4 13c42 7.33301 76.667 18.166 104 32.499s53.333 36.833 78 67.5
l-170 462l126 6zM402.001 662.003l-0.00195312 -11.001l-70 -89l-13 -5c-18 2 -45.667 8.33301 -83 19c-3.33301 0.666992 -14.166 3.5 -32.499 8.5s-31.166 7.5 -38.499 7.5s-14.5 -3 -21.5 -9s-14.5 -13.333 -22.5 -22l-18 -20h-12l-40 39v11l71 89l12 5
c16 -2 44.333 -8.66699 85 -20c37.333 -10 60.333 -15 69 -15c8 0 15.833 3.33301 23.5 10s15.5 14.334 23.5 23.001s13.333 14.667 16 18h12z" />
    <glyph glyph-name="f_j" unicode="fj" horiz-adv-x="607" 
d="M453 687l-15.0029 -103.001l-13 -7c-49.333 22.667 -89.666 34 -120.999 34c-26.667 0 -46.167 -6.66699 -58.5 -20s-18.833 -34.666 -19.5 -63.999l-1 -66h237l72 10l8 -5l-8 -261l6 -178c0 -52.667 -12.667 -96.334 -38 -131.001s-67 -65 -125 -91l-46 59v12
c30.667 16.667 52.334 36.334 65.001 59.001s19 52 19 88l1 169l-4 189h-188l-3 -176l7 -205h-133l8 193l-2 188h-70l-5 7l7 73h67l-1 38c0 70.667 17.833 122.667 53.5 156s91.167 50 166.5 50c38.667 0 83.334 -6 134.001 -18z" />
    <glyph glyph-name="fi" unicode="fi" horiz-adv-x="600" 
d="M453 687l-15.002 -103.001l-13 -7c-49.333 22.667 -89.666 34 -120.999 34c-26.667 0 -46.167 -6.66699 -58.5 -20s-18.833 -34.666 -19.5 -63.999l-1 -66h236l73 10l8 -5l-8 -261l7 -205h-132l7 192l-4 189h-188l-3 -176l7 -205h-133l8 193l-2 188h-70l-5 7l7 73h66v38
c0 70.667 17.833 122.667 53.5 156s91.167 50 166.5 50c38.667 0 83.334 -6 134.001 -18z" />
    <glyph glyph-name="fl" unicode="fl" horiz-adv-x="612" 
d="M540 205l7.00098 -205h-133l7 193l-5 399c-40.667 16 -76.667 24 -108 24c-54 0 -81.333 -27.667 -82 -83l-1 -72h113l4 -7l-6 -73h-112l-3 -177l7 -204h-133l8 192l-3 189h-69l-5 7l7 73h66l-1 52c0 64 18.667 112.833 56 146.5s90.666 50.5 159.999 50.5
c42 0 84.667 -5.33301 128 -16l106 8z" />
    <glyph glyph-name="Gtilde" unicode="&#x7e;G" horiz-adv-x="598" 
d="M553 613l-29.001 -122.002l-13 -2c-32.667 18.667 -61.834 32.167 -87.501 40.5s-53.167 12.5 -82.5 12.5c-59.333 0 -102.666 -17.667 -129.999 -53s-41 -93.333 -41 -174c0 -53.333 5.83301 -95.666 17.5 -126.999s29.834 -54.166 54.501 -68.499
s57.334 -21.5 98.001 -21.5c14 0 27.167 1 39.5 3s27.5 5.66699 45.5 11l2 55l-2 102l125 9l-3 -90l3 -157c-80 -26.667 -153.667 -40 -221 -40c-100 0 -175.167 27.333 -225.5 82s-75.5 133 -75.5 235c0 111.333 29.167 196.5 87.5 255.5s141.166 88.5 248.499 88.5
c70 0 133 -13 189 -39zM500.999 840.998l-0.00195312 -11.001l-70 -89l-13 -5c-18 2 -45.667 8.33301 -83 19c-3.33301 0.666992 -14.166 3.5 -32.499 8.5s-31.166 7.5 -38.499 7.5s-14.5 -3 -21.5 -9s-14.5 -13.333 -22.5 -22l-18 -20h-12l-40 39v11l71 89l12 5
c16 -2 44.333 -8.66699 85 -20c37.333 -10 60.333 -15 69 -15c8 0 15.833 3.33301 23.5 10s15.5 14.334 23.5 23.001s13.333 14.667 16 18h12z" />
    <glyph glyph-name="gtilde" unicode="&#x7e;g" horiz-adv-x="500" 
d="M431 387l-1.99707 -3.99707c10 -20 15 -42.333 15 -67c0 -50 -18.167 -89.833 -54.5 -119.5s-85.5 -44.5 -147.5 -44.5c-18.667 0 -38 1.66699 -58 5c-6 -6 -10 -10.667 -12 -14s-3 -7.33301 -3 -12c0 -12 8 -20.333 24 -25s41.333 -9.33398 76 -14.001
c39.333 -4.66699 72.166 -10.334 98.499 -17.001s49 -18.334 68 -35.001s28.5 -40.334 28.5 -71.001c0 -31.333 -9.83301 -59.5 -29.5 -84.5s-46.834 -44.5 -81.501 -58.5s-74 -21 -118 -21c-60.667 0 -107.334 12.333 -140.001 37s-49 57.334 -49 98.001
c20.667 28.667 48.334 53.667 83.001 75v5c-22.667 8 -40.334 19.167 -53.001 33.5s-19 33.5 -19 57.5c18 22 40.667 42.333 68 61v5c-24 13.333 -42.167 30.833 -54.5 52.5s-18.5 47.167 -18.5 76.5c0 52 18 92.667 54 122s85 44 147 44c36 0 68.667 -6 98 -18
c48 8.66699 97 22 147 40l10 -9v-83c-18 -4.66699 -43.667 -9.66699 -77 -15zM308.003 253.003c14 14 21 34.334 21 61.001c0 50.667 -26 76 -78 76c-56 0 -84 -25.667 -84 -77c0 -26.667 6.66699 -46.834 20 -60.501s33 -20.5 59 -20.5c27.333 0 48 7 62 21z
M323.503 -17.9961c-19 6.66699 -48.167 12.333 -87.5 17l-34 5c-16 -10.667 -28 -21 -36 -31s-12 -20.667 -12 -32c0 -17.333 8 -31.333 24 -42s39.333 -16 70 -16c31.333 0 56.5 5.5 75.5 16.5s28.5 26.167 28.5 45.5c0 18 -9.5 30.333 -28.5 37zM427.003 653.003
l-0.00195312 -11.001l-70 -89l-13 -5c-18 2 -45.667 8.33301 -83 19c-3.33301 0.666992 -14.166 3.5 -32.499 8.5s-31.166 7.5 -38.499 7.5s-14.5 -3 -21.5 -9s-14.5 -13.333 -22.5 -22l-18 -20h-12l-40 39v11l71 89l12 5c16 -2 44.333 -8.66699 85 -20
c37.333 -10 60.333 -15 69 -15c8 0 15.833 3.33301 23.5 10s15.5 14.334 23.5 23.001s13.333 14.667 16 18h12z" />
    <glyph glyph-name=".notdef" horiz-adv-x="151" 
 />
    <glyph glyph-name="nonmarkingreturn" unicode="&#xd;" horiz-adv-x="151" 
 />
    <glyph glyph-name="space" unicode=" " horiz-adv-x="151" 
 />
    <glyph glyph-name="exclam" unicode="!" horiz-adv-x="264" 
d="M210 650l-37 -413l-75 -10l-14 13l-8 404l12 15l106 7zM172.5 117c11.667 -12 17.499 -28.667 17.499 -50c0 -22.667 -6.33301 -40.667 -19 -54s-30 -20 -52 -20s-38.833 6 -50.5 18s-17.5 29 -17.5 51s6.5 39.667 19.5 53s30.833 20 53.5 20
c20.667 0 36.834 -6 48.501 -18z" />
    <glyph glyph-name="quotedbl" unicode="&#x22;" horiz-adv-x="354" 
d="M165 633l-35 -220l-62 -9l-11 9l-2 222l103 7zM315 633l-35 -220l-63 -9l-10 9l-2 222l102 7z" />
    <glyph glyph-name="numbersign" unicode="#" horiz-adv-x="549" 
d="M418 356l-20 -104h90l8 -9l-7 -68h-106l-28 -143h-77l-7 9l26 134h-100l-28 -143h-77l-6 9l26 134h-84l-8 9l6 68h101l20 104h-86l-8 9l6 68h103l27 140h74l9 -10l-25 -130h101l27 140h74l9 -10l-25 -130h87l9 -9l-7 -68h-104zM333 356h-101l-20 -104h100z" />
    <glyph glyph-name="dollar" unicode="$" horiz-adv-x="450" 
d="M364 53.5c-25.333 -29.667 -62.3311 -48.8311 -110.998 -57.498l-8 -132h-77l-11 11l8 118c-44.667 3.33301 -87 13 -127 29l17 118l13 9c22 -20 46.667 -36 74 -48s51.666 -18 72.999 -18c18.667 0 33.834 4.66699 45.501 14s17.5 21 17.5 35
c0 14.667 -6.83301 26.5 -20.5 35.5s-34.834 19.167 -63.501 30.5c-30 12.667 -54.5 24.5 -73.5 35.5s-35.333 26.167 -49 45.5s-20.5 43.333 -20.5 72c0 38.667 13.167 72.167 39.5 100.5s62.5 46.833 108.5 55.5l8 138h76l12 -12l-8 -123
c36 -2.66699 70.333 -10.334 103 -23.001l-19 -112l-18 -5c-21.333 16 -42 28 -62 36s-38.333 12 -55 12c-18.667 0 -33.334 -4.5 -44.001 -13.5s-16 -19.833 -16 -32.5c0 -14 6.66699 -25.5 20 -34.5s34.333 -19.5 63 -31.5c30 -12.667 54.5 -24.334 73.5 -35.001
s35.333 -25.5 49 -44.5s20.5 -42.833 20.5 -71.5c0 -38 -12.667 -71.833 -38 -101.5z" />
    <glyph glyph-name="percent" unicode="%" horiz-adv-x="854" 
d="M666 653l8 -19l-466 -726l-57 34l-6 14l467 730zM305 605c25.333 -30 38.002 -73.333 38.002 -130c0 -60.667 -13.833 -107.167 -41.5 -139.5s-67.834 -48.5 -120.501 -48.5c-48.667 0 -85.834 15 -111.501 45s-38.5 73.333 -38.5 130
c0 60.667 14.167 107.167 42.5 139.5s68.833 48.5 121.5 48.5c48 0 84.667 -15 110 -45zM132.002 540c-11.333 -15.333 -17.001 -39 -17.001 -71c0 -34.667 5.83301 -60.167 17.5 -76.5s29.834 -24.5 54.501 -24.5c25.333 0 43.833 7.83301 55.5 23.5s17.5 39.5 17.5 71.5
c0 34.667 -6 60 -18 76s-30.667 24 -56 24c-24.667 0 -42.667 -7.66699 -54 -23zM784.001 312.5c25.333 -30.333 38.002 -73.5 38.002 -129.5c0 -61.333 -13.833 -108.166 -41.5 -140.499s-67.834 -48.5 -120.501 -48.5c-48.667 0 -85.834 15 -111.501 45
s-38.5 73.333 -38.5 130c0 61.333 14.167 108.166 42.5 140.499s68.833 48.5 121.5 48.5c48 0 84.667 -15.167 110 -45.5zM611.003 247.5c-11.333 -15 -17.001 -38.834 -17.001 -71.501c0 -34 5.83301 -59.333 17.5 -76s29.834 -25 54.501 -25
c25.333 0 43.833 7.83301 55.5 23.5s17.5 39.834 17.5 72.501c0 34 -6 59 -18 75s-30.667 24 -56 24c-24.667 0 -42.667 -7.5 -54 -22.5z" />
    <glyph glyph-name="ampersand" unicode="&#x26;" horiz-adv-x="711" 
d="M560 346l-2.99902 -8.99902c8 -30.667 12 -60.667 12 -90c0 -42.667 -8 -81 -24 -115l131 -118v-8c-21.333 -24 -45.333 -43.667 -72 -59h-9l-114 103c-50.667 -39.333 -116.667 -59 -198 -59c-73.333 0 -131.833 16.167 -175.5 48.5s-65.5 76.5 -65.5 132.5
c0 73.333 38 128.333 114 165v7c-22.667 23.333 -39.334 46.666 -50.001 69.999s-16 48 -16 74c0 50 18.167 89.5 54.5 118.5s88.166 43.5 155.499 43.5c58.667 0 113 -10 163 -30l-30 -97h-17c-40.667 23.333 -80.667 35 -120 35c-29.333 0 -51.666 -6.66699 -66.999 -20
s-23 -32.333 -23 -57c0 -16.667 4 -32 12 -46s22.667 -30 44 -48l210 -190c6.66699 19.333 10 41.333 10 66c0 29.333 -5.66699 57 -17 83h-61l-6 8l9 85h289l8 -9l-9 -84h-135zM410.001 114.001l-198 178.999c-37.333 -26 -56 -59 -56 -99
c0 -35.333 12.5 -62.666 37.5 -81.999s59.167 -29 102.5 -29c46 0 84 10.333 114 31z" />
    <glyph glyph-name="quotesingle" unicode="'" horiz-adv-x="205" 
d="M165 633l-35 -220l-62 -9l-11 9l-2 222l103 7z" />
    <glyph glyph-name="parenleft" unicode="(" horiz-adv-x="295" 
d="M291 620v-11c-40 -36 -69 -82 -87 -138s-27 -128.333 -27 -217c0 -84 9 -152.833 27 -206.5s47 -98.834 87 -135.501v-11l-48 -40h-11c-56.667 41.333 -97.667 92.833 -123 154.5s-38.333 140.834 -39 237.501c0.666992 102 13.667 185 39 249s66.333 117 123 159h11z
" />
    <glyph glyph-name="parenright" unicode=")" horiz-adv-x="300" 
d="M-1 -99v11c40 36 69 82 87 138s27 128.333 27 217c0 84 -9 152.833 -27 206.5s-47 98.834 -87 135.501v11l48 40h11c56.667 -41.333 97.667 -92.833 123 -154.5s38.333 -140.834 39 -237.501c-0.666992 -102 -13.667 -185 -39 -249s-66.333 -117 -123 -159h-11z" />
    <glyph glyph-name="asterisk" unicode="*" horiz-adv-x="383" 
d="M241 734l-29 -123l-42 -5l-7 7l-4 116c24.667 8.66699 50.667 13 78 13zM149 600l-5.99902 -42l-10 -4l-106 32c-0.666992 23.333 2.66602 49.333 9.99902 78l10 3zM368.001 570l-6 -6l-120 -10l-19 38l4 9l105 40c14 -22 26 -45.667 36 -71zM237.001 535l67.999 -91.999
c-11.333 -16.667 -29.666 -35.334 -54.999 -56.001l-9 2l-45 119l30 28zM177 516.001l1 -11.001l-60 -96c-16 4.66699 -40 16.334 -72 35.001l1 9l92 82z" />
    <glyph glyph-name="plus" unicode="+" horiz-adv-x="480" 
d="M286 468v-163h162l9 -9l-7 -81h-164v-165l-81 -6l-10 8v163h-163l-9 9l7 81h165v166l81 7z" />
    <glyph glyph-name="comma" unicode="," horiz-adv-x="229" 
d="M188 46c0 -58 -40.333 -115.668 -121 -173.001l-43 38l-1 10c36.667 30.667 55 63.334 55 98.001c0 22.667 -10.667 42.667 -32 60l1 11c30.667 18.667 62.667 32.667 96 42c30 -24 45 -52.667 45 -86z" />
    <glyph glyph-name="hyphen" unicode="-" horiz-adv-x="304" 
d="M276 308v-82l-238 -37l-11 11v83l238 36z" />
    <glyph glyph-name="period" unicode="." horiz-adv-x="229" 
d="M165.5 117c11.667 -12 17.499 -28.667 17.499 -50c0 -22.667 -6.33301 -40.667 -19 -54s-30 -20 -52 -20s-38.833 6 -50.5 18s-17.5 29 -17.5 51s6.5 39.667 19.5 53s30.833 20 53.5 20c20.667 0 36.834 -6 48.501 -18z" />
    <glyph glyph-name="slash" unicode="/" horiz-adv-x="284" 
d="M306 668l-207 -783h-92l-8 11l206 784h90z" />
    <glyph glyph-name="zero" unicode="0" horiz-adv-x="521" 
d="M427.5 447c37 -44 55.501 -106.333 55.501 -187c0 -85.333 -20 -151.5 -60 -198.5s-96.667 -70.5 -170 -70.5c-68 0 -120.667 22 -158 66s-56 105.667 -56 185c0 86 20.167 152.667 60.5 200s97.166 71 170.499 71c68 0 120.5 -22 157.5 -66zM171.001 356.5
c-19.333 -22.333 -29 -57.5 -29 -105.5c0 -48.667 9.66699 -84.667 29 -108s49.333 -35 90 -35c40 0 69.833 11.167 89.5 33.5s29.5 56.833 29.5 103.5c0 49.333 -10 85.833 -30 109.5s-50 35.5 -90 35.5s-69.667 -11.167 -89 -33.5z" />
    <glyph glyph-name="one" unicode="1" horiz-adv-x="360" 
d="M261 497l-8 -289l7 -208h-135l6 194v166l-113 -30l-10 7v107l234 67z" />
    <glyph glyph-name="two" unicode="2" horiz-adv-x="471" 
d="M355 478.5c29.333 -21.667 43.998 -51.5 43.998 -89.5c0 -26.667 -8.83301 -56.167 -26.5 -88.5s-46.167 -69.5 -85.5 -111.5l-75 -83l2 -4h135l90 8l8 -9l-16 -107l-121 6h-227l-37 -2l-7 5v81l135 133c32 32.667 55.667 59.667 71 81s23 40 23 56
c0 13.333 -5 24 -15 32s-24 12 -42 12c-21.333 0 -43.666 -5.33301 -66.999 -16s-45 -25 -65 -43h-15l-22 103c68.667 46 135.334 69 200.001 69c46 0 83.667 -10.833 113 -32.5z" />
    <glyph glyph-name="three" unicode="3" horiz-adv-x="431" 
d="M330 475c32 -25.333 48.001 -58.333 48.001 -99c0 -27.333 -7.66699 -53.833 -23 -79.5s-39.333 -47.5 -72 -65.5v-5c72.667 -20.667 109 -65 109 -133c0 -36.667 -10.5 -69.334 -31.5 -98.001s-50.5 -50.834 -88.5 -66.501s-81.667 -23.5 -131 -23.5
c-35.333 0 -71.333 3.33301 -108 10l-7 103l9 9c39.333 -14 76.333 -21 111 -21c37.333 0 66.5 7.33301 87.5 22s31.5 35.334 31.5 62.001c0 22 -7.66699 39.167 -23 51.5s-38 18.833 -68 19.5h-70l-7 9l4 91l44 2c25.333 0.666992 48 8.83398 68 24.501s30 35.5 30 59.5
c0 18 -6 32 -18 42s-28.667 15 -50 15c-18.667 0 -37.5 -3.83301 -56.5 -11.5s-39.5 -19.5 -61.5 -35.5h-14l-20 97c57.333 39.333 117.666 59 180.999 59c52 0 94 -12.667 126 -38z" />
    <glyph glyph-name="four" unicode="4" horiz-adv-x="503" 
d="M470 53l-83 2l5 -135l-7 -9l-104 -7l-7 8l3 144h-160l-87 -3l-9 12v84l245 357h122l-3 -348h83l8 -12zM135 158h144v197h-9z" />
    <glyph glyph-name="five" unicode="5" horiz-adv-x="432" 
d="M400 503l-13.999 -102.999l-10 -10l-91 10h-116l-3 -112l62 -13c58 -12 99.833 -30.833 125.5 -56.5s38.5 -59.834 38.5 -102.501c0 -42 -10.667 -79.167 -32 -111.5s-51.5 -57.333 -90.5 -75s-83.5 -26.5 -133.5 -26.5c-34.667 0 -71.334 4 -110.001 12l-7 104l9 9
c44 -15.333 83.667 -23 119 -23c36.667 0 65.667 8.5 87 25.5s32 39.5 32 67.5c0 22.667 -7.66699 40.5 -23 53.5s-40.333 22.5 -75 28.5l-96 17l-9 11l5 285l16 15l58 -2h146l104 5z" />
    <glyph glyph-name="six" unicode="6" horiz-adv-x="483" 
d="M405.5 311.5c29.667 -33 44.499 -74.501 44.499 -124.501c0 -36 -8.16699 -69 -24.5 -99s-40.5 -53.833 -72.5 -71.5s-70.333 -26.5 -115 -26.5c-66 0 -116.667 19.833 -152 59.5s-53 94.834 -53 165.501c0 81.333 25.333 155 76 221s122.334 119.333 215.001 160h7
l91 -59v-13c-70 -26.667 -124.5 -54 -163.5 -82s-66.833 -61.333 -83.5 -100l8 -9c30 18.667 63.667 28 101 28c51.333 0 91.833 -16.5 121.5 -49.5zM307.499 101.499c15 16.333 22.498 39.5 22.498 69.5c0 31.333 -7.16699 55.333 -21.5 72s-35.5 25 -63.5 25
c-29.333 0 -59.666 -10 -90.999 -30v-21c0 -47.333 6.83301 -82.5 20.5 -105.5s36.834 -34.5 69.501 -34.5c27.333 0 48.5 8.16699 63.5 24.5z" />
    <glyph glyph-name="seven" unicode="7" horiz-adv-x="432" 
d="M136 506h221l49 2v-98l-165 -360l-56 -150l-107 30l-8 21l209 444h-165l-91 -9l-8 11l9 112z" />
    <glyph glyph-name="eight" unicode="8" horiz-adv-x="493" 
d="M384.5 556c30.333 -26 45.5 -61.6689 45.5 -107.002c0 -29.333 -7.66699 -55 -23 -77s-37 -42 -65 -60v-6c32.667 -16 58.334 -34.5 77.001 -55.5s28 -49.167 28 -84.5c0 -54 -19.5 -96.667 -58.5 -128s-90.833 -47 -155.5 -47c-60.667 0 -107.834 14 -141.501 42
s-50.5 64.333 -50.5 109c0 34.667 9.66699 63.334 29 86.001s46.333 41.667 81 57v6c-27.333 15.333 -49.333 33.833 -66 55.5s-25 49.5 -25 83.5c0 50.667 18 90.834 54 120.501s84 44.5 144 44.5c54 0 96.167 -13 126.5 -39zM190 484.498
c-14 -12.333 -21 -29.166 -21 -50.499c0 -22 7.66699 -39.5 23 -52.5s37.333 -25.167 66 -36.5c21.333 12 38 24.667 50 38s18 30.333 18 51c0 21.333 -6.83301 38.166 -20.5 50.499s-32.5 18.5 -56.5 18.5c-25.333 0 -45 -6.16699 -59 -18.5zM173.5 214.998
c-14.333 -13.333 -21.498 -32 -21.498 -56s8.16699 -43.167 24.5 -57.5s38.833 -21.5 67.5 -21.5c29.333 0 52.166 7.16699 68.499 21.5s24.5 32.5 24.5 54.5c0 22.667 -8.33301 40.5 -25 53.5s-42.334 26.5 -77.001 40.5c-26.667 -10 -47.167 -21.667 -61.5 -35z" />
    <glyph glyph-name="nine" unicode="9" horiz-adv-x="483" 
d="M397 456.5c35.333 -39.667 53.001 -94.833 53.001 -165.5c0 -81.333 -25.333 -155 -76 -221s-122.334 -119.333 -215.001 -160h-7l-91 59v13c70 26.667 124.5 54 163.5 82s66.833 61.333 83.5 100l-8 9c-30 -18.667 -63.667 -28 -101 -28
c-51.333 0 -91.833 16.5 -121.5 49.5s-44.5 74.5 -44.5 124.5c0 36 8.16699 69 24.5 99s40.5 53.833 72.5 71.5s70.333 26.5 115 26.5c66 0 116.667 -19.833 152 -59.5zM329.001 268.001l0.00195312 21c0 47.333 -6.83301 82.5 -20.5 105.5s-36.834 34.5 -69.501 34.5
c-27.333 0 -48.5 -8.16699 -63.5 -24.5s-22.5 -39.5 -22.5 -69.5c0 -31.333 7.16699 -55.333 21.5 -72s35.5 -25 63.5 -25c29.333 0 59.666 10 90.999 30z" />
    <glyph glyph-name="colon" unicode=":" horiz-adv-x="229" 
d="M161.5 117c11.667 -12 17.499 -28.667 17.499 -50c0 -22.667 -6.33301 -40.667 -19 -54s-30 -20 -52 -20s-38.833 6 -50.5 18s-17.5 29 -17.5 51s6.5 39.667 19.5 53s30.833 20 53.5 20c20.667 0 36.834 -6 48.501 -18zM161.499 380
c11.667 -12 17.499 -28.667 17.499 -50c0 -22.667 -6.33301 -40.667 -19 -54s-30 -20 -52 -20s-38.833 6 -50.5 18s-17.5 29 -17.5 51s6.5 39.667 19.5 53s30.833 20 53.5 20c20.667 0 36.834 -6 48.501 -18z" />
    <glyph glyph-name="semicolon" unicode=";" horiz-adv-x="229" 
d="M184 46c0 -58 -40.333 -115.668 -121 -173.001l-43 38l-1 10c36.667 30.667 55 63.334 55 98.001c0 22.667 -10.667 42.667 -32 60l1 11c30.667 18.667 62.667 32.667 96 42c30 -24 45 -52.667 45 -86zM161.5 379.999c11.667 -12 17.499 -28.667 17.499 -50
c0 -22.667 -6.33301 -40.667 -19 -54s-30 -20 -52 -20s-38.833 6 -50.5 18s-17.5 29 -17.5 51s6.5 39.667 19.5 53s30.833 20 53.5 20c20.667 0 36.834 -6 48.501 -18z" />
    <glyph glyph-name="less" unicode="&#x3c;" horiz-adv-x="480" 
d="M445 395l-6 -10l-311 -118v-7l312 -114l-19 -74l-12 -9l-375 143v108l9 12l373 145z" />
    <glyph glyph-name="equal" unicode="=" horiz-adv-x="480" 
d="M457 390l-7 -81h-418l-9 9l7 81h418zM457 201l-7 -81h-418l-9 9l7 81h418z" />
    <glyph glyph-name="greater" unicode="&#x3e;" horiz-adv-x="480" 
d="M437 326l9 -12v-108l-375 -143l-12 9l-19 74l312 114v7l-311 118l-6 10l29 76z" />
    <glyph glyph-name="question" unicode="?" horiz-adv-x="340" 
d="M287 620c47.333 -27.333 71 -65.001 71 -113.001c0 -27.333 -7.83301 -53 -23.5 -77s-38.167 -44.333 -67.5 -61l-72 -43l-2 -5l6 -85l-93 -12l-9 9l-10 120l5 10l90 46c37.333 20 56 45.667 56 77c0 26.667 -14.333 47.167 -43 61.5s-75 23.5 -139 27.5l-9 13l24 74
l13 7c88 -5.33301 155.667 -21.666 203 -48.999zM206.5 116.999c11.667 -12 17.499 -28.667 17.499 -50c0 -22.667 -6.33301 -40.667 -19 -54s-30 -20 -52 -20s-38.833 6 -50.5 18s-17.5 29 -17.5 51s6.5 39.667 19.5 53s30.833 20 53.5 20c20.667 0 36.834 -6 48.501 -18z
" />
    <glyph glyph-name="at" unicode="@" horiz-adv-x="844" 
d="M725 83c-65.333 -54 -158.335 -81.999 -279.002 -83.999l22 157h-12c-40 -68 -79.667 -122.333 -119 -163h-18c-36 13.333 -61.833 33.166 -77.5 59.499s-23.5 59.833 -23.5 100.5c0 44 8.66699 87.333 26 130s43.5 80.167 78.5 112.5s77.833 54.5 128.5 66.5h6l77 -20
l72 22l10 -6l-47 -346l-1 -21c52.667 8 93.834 31.167 123.501 69.5s44.5 87.166 44.5 146.499c0 50 -11.333 93.667 -34 131s-55.167 65.833 -97.5 85.5s-91.5 28.834 -147.5 27.501c-67.333 -1.33301 -126.666 -17.166 -177.999 -47.499s-91.166 -71.833 -119.499 -124.5
s-42.5 -112 -42.5 -178c0 -70 15.667 -130.167 47 -180.5s75.666 -88.833 132.999 -115.5s124 -40 200 -40l5 -13l-36 -62c-88 0.666992 -164.833 16.5 -230.5 47.5s-116.667 76.167 -153 135.5s-54.5 130 -54.5 212c0 85.333 18.5 162.166 55.5 230.499
s89.167 122 156.5 161s145 58.5 233 58.5c70 0 131.333 -13.167 184 -39.5s93.5 -63.833 122.5 -112.5s43.5 -105.667 43.5 -171c0 -98.667 -32.667 -175 -98 -229zM384.498 135.501c14.333 17 31.002 42.332 50.002 75.999s38.5 73.834 58.5 120.501l2 15v4l-64 20
c-32.667 0 -58.334 -16.333 -77.001 -49s-28 -75 -28 -127c0 -30 2.5 -51.667 7.5 -65s11.167 -20 18.5 -20s18.166 8.5 32.499 25.5z" />
    <glyph glyph-name="A" unicode="A" horiz-adv-x="600" 
d="M584 0h-138l-16 84l-17 60l-126 3l-111 -3l-17 -53l-17 -91h-134l218 644h161zM384 249l-76 268h-9l-88 -268l86 -2z" />
    <glyph glyph-name="B" unicode="B" horiz-adv-x="579" 
d="M515.5 280.5c21 -25 31.5 -57.833 31.5 -98.5c0 -124.667 -97.667 -187 -293 -187c-57.333 0 -116 1.66699 -176 5l7 192l-7 452l229 1c66 0 117.333 -13.833 154 -41.5s55 -67.5 55 -119.5c0 -34.667 -8.5 -65 -25.5 -91s-41.167 -45.667 -72.5 -59
c44 -10.667 76.5 -28.5 97.5 -53.5zM351 528.5c-17.333 12.333 -47.666 18.502 -90.999 18.502h-49l-3 -175l94 -3c25.333 6.66699 44.166 17.667 56.499 33s18.5 36.666 18.5 63.999c0 29.333 -8.66699 50.166 -26 62.499zM374.5 117.002
c23 16.667 34.5 40.668 34.5 72.001c0 47.333 -30.667 76.666 -92 87.999l-111 -2l-1 -71l3 -108c23.333 -2.66699 46.333 -4 69 -4c42 0 74.5 8.33301 97.5 25z" />
    <glyph glyph-name="C" unicode="C" horiz-adv-x="517" 
d="M505 613l-23.999 -113.001l-11 -5c-20 14 -42 25 -66 33s-48.667 12 -74 12c-106 0 -159 -69.667 -159 -209c0 -75.333 13.833 -131.833 41.5 -169.5s68.167 -56.5 121.5 -56.5c24.667 0 50.167 3.83301 76.5 11.5s50.166 18.167 71.499 31.5l12 -7l-11 -115
c-50.667 -23.333 -104 -35 -160 -35c-96 0 -169.167 28 -219.5 84s-75.5 136.333 -75.5 241c0 106.667 26.833 189.334 80.5 248.001s129.5 88 227.5 88c62.667 0 119 -13 169 -39z" />
    <glyph glyph-name="D" unicode="D" horiz-adv-x="655" 
d="M552 570c50 -52 75 -126.667 75 -224c0 -114 -28 -201.333 -84 -262s-136 -91 -240 -91c-31.333 0 -68.833 0.666992 -112.5 2s-81.167 3 -112.5 5l7 192l-7 452l259 4c93.333 0 165 -26 215 -78zM486 315c0 78.667 -12.833 135.833 -38.5 171.5
s-65.834 53.5 -120.501 53.5c-35.333 0 -73 -1.66699 -113 -5l-6 -331l3 -99c46.667 -4.66699 85.334 -7 116.001 -7c106 0 159 72.333 159 217z" />
    <glyph glyph-name="E" unicode="E" horiz-adv-x="509" 
d="M483 112l8 -11l-9 -101h-404l7 192l-7 452h408l8 -11l-10 -101l-154 5l-116 -1l-3 -155l111 -2l105 3l8 -10l-9 -101l-114 3l-103 -1l-1 -69l3 -97l113 -1z" />
    <glyph glyph-name="F" unicode="F" horiz-adv-x="456" 
d="M214 536l-3 -174l90 -1l109 3l9 -10l-10 -101l-119 3l-81 -1l-1 -51l6 -204h-136l7 192l-7 452h383l8 -11l-10 -102l-153 6z" />
    <glyph glyph-name="G" unicode="G" horiz-adv-x="598" 
d="M553 613l-29.001 -122.002l-13 -2c-32.667 18.667 -61.834 32.167 -87.501 40.5s-53.167 12.5 -82.5 12.5c-59.333 0 -102.666 -17.667 -129.999 -53s-41 -93.333 -41 -174c0 -53.333 5.83301 -95.666 17.5 -126.999s29.834 -54.166 54.501 -68.499
s57.334 -21.5 98.001 -21.5c14 0 27.167 1 39.5 3s27.5 5.66699 45.5 11l2 55l-2 102l125 9l-3 -90l3 -157c-80 -26.667 -153.667 -40 -221 -40c-100 0 -175.167 27.333 -225.5 82s-75.5 133 -75.5 235c0 111.333 29.167 196.5 87.5 255.5s141.166 88.5 248.499 88.5
c70 0 133 -13 189 -39z" />
    <glyph glyph-name="H" unicode="H" horiz-adv-x="696" 
d="M615 204l4 -204h-135l6 192l-1 75l-145 1l-131 -2l-1 -62l5 -204h-135l7 192l-7 452h137l-4 -266l138 -2l135 2l-4 266h138z" />
    <glyph glyph-name="I" unicode="I" horiz-adv-x="295" 
d="M208 204l6 -204h-136l7 192l-7 452h138z" />
    <glyph glyph-name="J" unicode="J" horiz-adv-x="335" 
d="M251 212l1.99902 -90.998c0 -38 -6.33301 -70.333 -19 -97s-33.167 -50.334 -61.5 -71.001s-67.166 -40.334 -116.499 -59.001l-41 72v12c41.333 21.333 70.5 42.5 87.5 63.5s25.5 48.167 25.5 81.5v76l-6 345l-106 -3l-10 10l7 93h245z" />
    <glyph glyph-name="K" unicode="K" horiz-adv-x="584" 
d="M593 28l-1.99902 -15c-37.333 -9.33301 -81.333 -17 -132 -23l-16 8c-87.333 116 -165 227.333 -233 334l-2 -128l5 -204h-135l7 192l-7 452h137l-5 -299l181 237l37 62h146l-228 -304c71.333 -99.333 153.666 -203.333 246.999 -312z" />
    <glyph glyph-name="L" unicode="L" horiz-adv-x="433" 
d="M431 101l-9 -101h-348l7 192l-7 452h138l-8 -440l3 -92h216z" />
    <glyph glyph-name="M" unicode="M" horiz-adv-x="797" 
d="M749 0h-120l-10 195l-23 248h-10l-144 -375h-105l-131 375h-9l-25 -235l-14 -208h-114l65 644h156l26 -95l102 -305h9l107 305l29 95h153z" />
    <glyph glyph-name="N" unicode="N" horiz-adv-x="695" 
d="M610 199l5 -199h-146l-263 436h-8l-1 -214l4 -222h-123l7 190l-6 454h145l263 -436h9l-3 430l125 8z" />
    <glyph glyph-name="O" unicode="O" horiz-adv-x="643" 
d="M542.5 570.5c49 -55 73.499 -133.167 73.499 -234.5c0 -110.667 -26.667 -196 -80 -256s-128.666 -90 -225.999 -90c-90 0 -159.5 28.167 -208.5 84.5s-73.5 136.166 -73.5 239.499c0 108.667 26.5 192.334 79.5 251.001s128.167 88 225.5 88
c90.667 0 160.5 -27.5 209.5 -82.5zM204.999 494c-24 -33.333 -36 -87.668 -36 -163.001c0 -86 11.833 -147.333 35.5 -184s62.834 -55 117.501 -55c53.333 0 92 16.833 116 50.5s36 88.834 36 165.501c0 84.667 -11.833 145.167 -35.5 181.5s-62.834 54.5 -117.501 54.5
c-53.333 0 -92 -16.667 -116 -50z" />
    <glyph glyph-name="P" unicode="P" horiz-adv-x="553" 
d="M480.5 594c36.333 -34 54.501 -82.667 54.501 -146c0 -48.667 -10.667 -91.167 -32 -127.5s-51.833 -64.5 -91.5 -84.5s-86.167 -30 -139.5 -30h-64v-2l6 -204h-136l7 192l-7 452l247 1c67.333 0 119.166 -17 155.499 -51zM394.001 436c0 36 -9.16699 62.833 -27.5 80.5
s-46.5 27.167 -84.5 28.5l-68 -4l-4 -232l92 -4c61.333 17.333 92 61 92 131z" />
    <glyph glyph-name="Q" unicode="Q" horiz-adv-x="649" 
d="M736 -110c-18 -35.333 -38.999 -64.334 -62.999 -87.001l-11 -4c-124 46 -233.667 109.667 -329 191h-21c-90.667 0 -160.667 28.167 -210 84.5s-74 136.166 -74 239.499c0 108.667 26.5 192.334 79.5 251.001s128.167 88 225.5 88c90.667 0 160.5 -27.5 209.5 -82.5
s73.5 -133.833 73.5 -236.5c0 -77.333 -14 -143 -42 -197s-68 -93.333 -120 -118c87.333 -53.333 179.666 -91.666 276.999 -114.999zM205.001 148.999c24 -36 63.333 -54 118 -54c52 0 90.167 17 114.5 51s36.5 89 36.5 165c0 83.333 -12 142.833 -36 178.5
s-63.333 53.5 -118 53.5c-53.333 0 -91.833 -16.667 -115.5 -50s-35.5 -88 -35.5 -164c0 -84 12 -144 36 -180z" />
    <glyph glyph-name="R" unicode="R" horiz-adv-x="590" 
d="M571 32l-2.00098 -15c-43.333 -15.333 -87.666 -24.333 -132.999 -27l-14 11c-48 82.667 -87 154.667 -117 216h-97v-13l6 -204h-136l7 192l-7 452l247 1c67.333 0 119.333 -16.5 156 -49.5s55 -80.167 55 -141.5c0 -41.333 -10.5 -79.166 -31.5 -113.499
s-50.5 -62.5 -88.5 -84.5c52 -82.667 103.667 -157.334 155 -224.001zM209.999 322l99 -4c56.667 19.333 85 60.333 85 123c0 34 -9.16699 59.5 -27.5 76.5s-46.5 26.167 -84.5 27.5l-68 -4z" />
    <glyph glyph-name="S" unicode="S" horiz-adv-x="498" 
d="M448 619l-22.001 -116.999l-20 -8c-22.667 16 -46.167 28.667 -70.5 38s-46.5 14 -66.5 14c-26.667 0 -48 -7.16699 -64 -21.5s-24 -30.833 -24 -49.5c0 -19.333 8.83301 -35.666 26.5 -48.999s45.5 -29 83.5 -47c36.667 -16.667 66.5 -32.167 89.5 -46.5
s42.667 -33.166 59 -56.499s24.5 -52 24.5 -86c0 -36.667 -10 -70.167 -30 -100.5s-48.333 -54.333 -85 -72s-79 -26.5 -127 -26.5c-63.333 0 -127 13.667 -191 41l19 126l15 8c26.667 -23.333 55.834 -41.166 87.501 -53.499s59.834 -18.5 84.501 -18.5
c29.333 0 52.166 7.16699 68.499 21.5s24.5 31.5 24.5 51.5c0 21.333 -8.83301 38.666 -26.5 51.999s-46.167 29.333 -85.5 48c-36 16 -65.333 31 -88 45s-42 32.667 -58 56s-24 51.666 -24 84.999c0 37.333 10 71.166 30 101.499s48 54.166 84 71.499s77 26 123 26
c54.667 0 109 -11 163 -33z" />
    <glyph glyph-name="T" unicode="T" horiz-adv-x="503" 
d="M489 633l-8 -101l-121 6h-40l-5 -334l6 -204h-136l7 192l-5 346h-40l-123 -6l-9 11l9 101h457z" />
    <glyph glyph-name="U" unicode="U" horiz-adv-x="638" 
d="M573 317l-0.999023 -85c0.666992 -76.667 -21.666 -136 -66.999 -178s-110.333 -63 -195 -63c-81.333 0 -143.333 20.333 -186 61s-63 99 -61 175l1 93l-3 324h136l-7 -399c-0.666992 -48.667 9.66602 -84.667 30.999 -108s53.666 -35 96.999 -35
c86.667 0 129.667 45.333 129 136l-7 406h138z" />
    <glyph glyph-name="V" unicode="V" horiz-adv-x="587" 
d="M369 0h-162l-197 644h138l16 -85l122 -433h9l140 426l17 92h134z" />
    <glyph glyph-name="W" unicode="W" horiz-adv-x="903" 
d="M686 0h-142l-96 308h-9l-97 -308h-143l-180 644h133l10 -79l114 -425h9l109 347l-46 157h138l15 -93l116 -411h9l130 416l16 88h126z" />
    <glyph glyph-name="X" unicode="X" horiz-adv-x="623" 
d="M398 337l208 -337h-163l-30 64l-107 167l-116 -174l-29 -57h-140l206 318l-204 326h163l30 -65l101 -157l105 162l27 60h144z" />
    <glyph glyph-name="Y" unicode="Y" horiz-adv-x="558" 
d="M333 179l6 -179h-135l6 179l-1 38l-205 427h144l14 -45l109 -245h9l122 241l19 49h139l-225 -422z" />
    <glyph glyph-name="Z" unicode="Z" horiz-adv-x="547" 
d="M510 546l-320 -443h216l109 9l5 -8l-11 -107l-145 3h-257l-77 -4v97l323 447h-204l-109 -9l-6 7l10 107l404 -1l62 1v-99z" />
    <glyph glyph-name="bracketleft" unicode="[" horiz-adv-x="295" 
d="M295 641v-60l-107 -14v-613l107 -13v-61l-6 -6l-209 10l7 377l-7 377l209 10z" />
    <glyph glyph-name="backslash" unicode="\" horiz-adv-x="284" 
d="M-10 668l11 12h89l207 -784l-9 -11h-92z" />
    <glyph glyph-name="bracketright" unicode="]" horiz-adv-x="295" 
d="M0 -120v60l107 14v613l-107 13v61l6 6l209 -10l-7 -377l7 -377l-209 -10z" />
    <glyph glyph-name="asciicircum" unicode="^" horiz-adv-x="441" 
d="M425 146l-9 -11l-75 -18l-113 286h-7l-118 -286l-11 -5l-75 28l144 349l13 7h107z" />
    <glyph glyph-name="underscore" unicode="_" horiz-adv-x="444" 
d="M459 -98l-7 -75h-458l-9 10l7 74h459z" />
    <glyph glyph-name="grave" unicode="`" horiz-adv-x="389" 
d="M315 571l-32 -50l-12 -1l-195 118l-2 13l48 72l12 1c48.667 -44.667 109 -95.667 181 -153z" />
    <glyph glyph-name="a" unicode="a" horiz-adv-x="481" 
d="M364.5 439.5c29 -23 43.4951 -55.1689 43.4951 -96.502c0 -12 -2 -50 -6 -114c-0.666992 -18.667 -1.66699 -37.834 -3 -57.501s-2 -36.5 -2 -50.5c0 -11.333 1.66699 -19.166 5 -23.499s9.33301 -6.5 18 -6.5c6.66699 0 15.334 1.33301 26.001 4l10 -8l-12 -70
c-21.333 -14 -45.666 -22.333 -72.999 -25c-20 2 -36.667 9.16699 -50 21.5s-22.333 29.5 -27 51.5h-7c-33.333 -35.333 -67.666 -60 -102.999 -74c-48 0.666992 -85.667 13.334 -113 38.001s-41 58.334 -41 101.001c0 33.333 8.5 59.5 25.5 78.5s42.833 31.833 77.5 38.5
l153 29v41c0 43.333 -21.333 65 -64 65c-20.667 0 -42.5 -4.66699 -65.5 -14s-48.833 -24 -77.5 -44l-10 6l-15 88c28.667 18 59.334 31.833 92.001 41.5s65.334 14.5 98.001 14.5c51.333 0 91.5 -11.5 120.5 -34.5zM178.995 185.998
c-10.667 -2.66699 -18.5 -7.16699 -23.5 -13.5s-7.5 -15.833 -7.5 -28.5c0 -17.333 4.66699 -30.833 14 -40.5s22.333 -14.5 39 -14.5c26 0 53.333 15.333 82 46l2 74z" />
    <glyph glyph-name="b" unicode="b" horiz-adv-x="523" 
d="M446.5 411.5c31 -39.667 46.501 -94.833 46.501 -165.5c0 -82 -20.333 -145.167 -61 -189.5s-97 -66.5 -169 -66.5c-34 0 -71.333 7.66699 -112 23l-70 -25l-16 13l7 190l-6 501l132 10l-4 -303h6c18.667 18 36.667 32.5 54 43.5s36.666 20.5 57.999 28.5
c58.667 0 103.5 -19.833 134.5 -59.5zM341.001 113.001c18.667 24 28 60.667 28 110c0 46 -7.5 81 -22.5 105s-37.5 36 -67.5 36c-27.333 0 -56 -14 -86 -42l-2 -114l2 -113c24.667 -12 48 -18 70 -18c33.333 0 59.333 12 78 36z" />
    <glyph glyph-name="c" unicode="c" horiz-adv-x="385" 
d="M317.5 467.5c21.667 -4.33301 40.834 -10.5 57.501 -18.5l-22 -106l-11 -5c-34 18.667 -64.333 28 -91 28c-30.667 0 -54.334 -11 -71.001 -33s-25 -53.333 -25 -94c0 -46.667 9 -82.334 27 -107.001s43.667 -37 77 -37c30 0 63.333 8.33301 100 25l10 -8l-13 -103
c-40 -12.667 -81 -19 -123 -19c-64 0 -114 20.833 -150 62.5s-54 99.834 -54 174.501c0 77.333 19.667 137.833 59 181.5s94 65.5 164 65.5c22 0 43.833 -2.16699 65.5 -6.5z" />
    <glyph glyph-name="d" unicode="d" horiz-adv-x="526" 
d="M449 205l3.00293 -84.001c0 -11.333 1.5 -19.166 4.5 -23.499s8.5 -6.5 16.5 -6.5c7.33301 0 16.333 1.33301 27 4l9 -8l-11 -70c-22.667 -14 -47.334 -22.333 -74.001 -25c-20.667 2 -38 9 -52 21s-23.667 28.333 -29 49h-8c-32.667 -30 -66 -53 -100 -69
c-65.333 0 -116 20.833 -152 62.5s-54 99.5 -54 173.5c0 78.667 20.667 139 62 181s98.666 63 171.999 63c19.333 0 40.666 -2 63.999 -6l-2 225l132 10zM154.003 255.999c0 -52.667 8 -92.333 24 -119s39.333 -40 70 -40c29.333 0 56.333 13.667 81 41l2 55l-3 172
c-26 12 -50.667 18 -74 18c-66.667 0 -100 -42.333 -100 -127z" />
    <glyph glyph-name="e" unicode="e" horiz-adv-x="472" 
d="M421 216l-269.998 -2.00195c6 -83.333 48.333 -125 127 -125c41.333 0 87.333 11.667 138 35l11 -7l-20 -99c-50.667 -18.667 -98.334 -28 -143.001 -28c-73.333 0 -130.833 21.333 -172.5 64s-62.5 101.667 -62.5 177c0 74.667 20.333 133.834 61 177.501
s95.667 65.5 165 65.5c59.333 0 105.166 -16.167 137.499 -48.5s48.5 -77.5 48.5 -135.5c0 -15.333 -1.66699 -34.666 -5 -57.999zM325.002 304.998c0 26.667 -6 46.833 -18 60.5s-29.667 20.5 -53 20.5c-26 0 -47.667 -8.5 -65 -25.5s-29 -41.5 -35 -73.5l169 4z" />
    <glyph glyph-name="f" unicode="f" horiz-adv-x="329" 
d="M390 695l-9.00195 -99l-9 -6c-31.333 13.333 -58.666 20 -81.999 20c-41.333 0 -62.333 -23.667 -63 -71l-1 -78h113l4 -7l-6 -73h-113l-3 -176l7 -205h-133l8 193l-2 188h-70l-5 7l7 73h67l-1 55c0 60 17.833 106.333 53.5 139s85.834 49 150.501 49
c27.333 0 56.333 -3 87 -9z" />
    <glyph glyph-name="g" unicode="g" horiz-adv-x="500" 
d="M431 387l-1.99707 -3.99707c10 -20 15 -42.333 15 -67c0 -50 -18.167 -89.833 -54.5 -119.5s-85.5 -44.5 -147.5 -44.5c-18.667 0 -38 1.66699 -58 5c-6 -6 -10 -10.667 -12 -14s-3 -7.33301 -3 -12c0 -12 8 -20.333 24 -25s41.333 -9.33398 76 -14.001
c39.333 -4.66699 72.166 -10.334 98.499 -17.001s49 -18.334 68 -35.001s28.5 -40.334 28.5 -71.001c0 -31.333 -9.83301 -59.5 -29.5 -84.5s-46.834 -44.5 -81.501 -58.5s-74 -21 -118 -21c-60.667 0 -107.334 12.333 -140.001 37s-49 57.334 -49 98.001
c20.667 28.667 48.334 53.667 83.001 75v5c-22.667 8 -40.334 19.167 -53.001 33.5s-19 33.5 -19 57.5c18 22 40.667 42.333 68 61v5c-24 13.333 -42.167 30.833 -54.5 52.5s-18.5 47.167 -18.5 76.5c0 52 18 92.667 54 122s85 44 147 44c36 0 68.667 -6 98 -18
c48 8.66699 97 22 147 40l10 -9v-83c-18 -4.66699 -43.667 -9.66699 -77 -15zM308.003 253.003c14 14 21 34.334 21 61.001c0 50.667 -26 76 -78 76c-56 0 -84 -25.667 -84 -77c0 -26.667 6.66699 -46.834 20 -60.501s33 -20.5 59 -20.5c27.333 0 48 7 62 21z
M323.503 -17.9961c-19 6.66699 -48.167 12.333 -87.5 17l-34 5c-16 -10.667 -28 -21 -36 -31s-12 -20.667 -12 -32c0 -17.333 8 -31.333 24 -42s39.333 -16 70 -16c31.333 0 56.5 5.5 75.5 16.5s28.5 26.167 28.5 45.5c0 18 -9.5 30.333 -28.5 37z" />
    <glyph glyph-name="h" unicode="h" horiz-adv-x="533" 
d="M351 290c0.666992 24 -4.33105 42.333 -14.998 55s-26.334 19 -47.001 19c-30 0 -62 -14.333 -96 -43l-2 -116l7 -205h-133l7 193l-6 499l133 10l-5 -303h6c36.667 33.333 77 57.333 121 72c50.667 0 89.167 -11.5 115.5 -34.5s39.166 -56.167 38.499 -99.5l-3 -133
l5 -204h-133z" />
    <glyph glyph-name="i" unicode="i" horiz-adv-x="261" 
d="M70 192l-5 264l131 11l-6 -262l6 -205h-133zM181.5 675c11.667 -12 17.499 -28.667 17.499 -50c0 -22.667 -6.33301 -40.667 -19 -54s-30 -20 -52 -20s-38.833 6 -50.5 18s-17.5 29 -17.5 51s6.5 39.667 19.5 53s30.833 20 53.5 20c20.667 0 36.834 -6 48.501 -18z" />
    <glyph glyph-name="j" unicode="j" horiz-adv-x="285" 
d="M220 465l-8 -260l6 -178c0 -52.667 -12.667 -96.334 -38 -131.001s-67 -65 -125 -91l-46 59v12c30 16.667 51.333 36.334 64 59.001s19 52 19 88l2 169l-4 189h-81l-8 8l7 72h84l124 7zM191.5 675c11.667 -12 17.499 -28.667 17.499 -50
c0 -22.667 -6.33301 -40.667 -19 -54s-30 -20 -52 -20s-38.833 6 -50.5 18s-17.5 29 -17.5 51s6.5 39.667 19.5 53s30.833 20 53.5 20c20.667 0 36.834 -6 48.501 -18z" />
    <glyph glyph-name="k" unicode="k" horiz-adv-x="495" 
d="M191 205l7 -205h-133l7 193l-6 499l133 10zM326 255c36 -58 90 -135.667 162 -233l-1 -14c-23.333 -5.33301 -48.166 -9.5 -74.499 -12.5l-48.5 -5.5l-14 6c-58.667 82.667 -109.334 165 -152.001 247v9l116 165l24 48h140z" />
    <glyph glyph-name="l" unicode="l" horiz-adv-x="263" 
d="M191 205l7 -205h-133l7 193l-6 499l133 10z" />
    <glyph glyph-name="m" unicode="m" horiz-adv-x="807" 
d="M618 0l7.99805 290c0 49.333 -21 74 -63 74c-30 0 -61.333 -13.333 -94 -40l-3 -120l6 -204h-133l8 290c0.666992 24 -4.5 42.333 -15.5 55s-26.833 19 -47.5 19c-29.333 0 -61.666 -14 -96.999 -42v-117l6 -205h-132l7 192l-5 264l125 11v-68h7
c36.667 33.333 77 57.333 121 72c74.667 0 122.334 -25 143.001 -75h6c38 35.333 81.333 60.333 130 75c50.667 0 89.167 -11.5 115.5 -34.5s38.833 -56.167 37.5 -99.5l-3 -133l6 -204h-133z" />
    <glyph glyph-name="n" unicode="n" horiz-adv-x="529" 
d="M347 290c0.666992 23.333 -4.50195 41.5 -15.502 54.5s-26.833 19.5 -47.5 19.5c-30 0 -62 -14.333 -96 -43v-116l6 -205h-133l7 192l-5 264l126 11v-68h7c36.667 33.333 76.667 57.333 120 72c50.667 0 89.334 -11.5 116.001 -34.5s39.334 -56.167 38.001 -99.5l-3 -133
l6 -204h-134z" />
    <glyph glyph-name="o" unicode="o" horiz-adv-x="494" 
d="M410 414c36 -40 54 -97.667 54 -173c0 -81.333 -19.333 -143.5 -58 -186.5s-94.334 -64.5 -167.001 -64.5c-68 0 -120 20 -156 60s-54 97.667 -54 173c0 81.333 19.333 143.5 58 186.5s94.334 64.5 167.001 64.5c68 0 120 -20 156 -60zM175.5 352
c-14.333 -21.333 -21.5 -55.667 -21.5 -103c0 -61.333 7.33301 -105 22 -131s38.667 -39 72 -39c32 0 55.167 10.5 69.5 31.5s21.5 55.5 21.5 103.5c0 60.667 -7.5 104.167 -22.5 130.5s-38.833 39.5 -71.5 39.5c-32 0 -55.167 -10.667 -69.5 -32z" />
    <glyph glyph-name="p" unicode="p" horiz-adv-x="518" 
d="M441 412c31.333 -39.333 46.999 -95.001 46.999 -167.001c0 -81.333 -20.167 -144.166 -60.5 -188.499s-97.166 -66.5 -170.499 -66.5c-21.333 0 -43.666 2 -66.999 6l3 -181h-132l7 377l-6 264l127 11l-1 -68h7c18.667 18 36.667 32.5 54 43.5s36.666 20.5 57.999 28.5
c58 0 102.667 -19.667 134 -59zM336.999 113.999c18 24.667 27 60.999 27 108.999c0 46.667 -7.5 81.834 -22.5 105.501s-37.167 35.5 -66.5 35.5c-28.667 0 -57.667 -14.333 -87 -43l-1 -116l2 -113c24 -10 47 -15 69 -15c34.667 0 61 12.333 79 37z" />
    <glyph glyph-name="q" unicode="q" horiz-adv-x="519" 
d="M446 473l11.001 -6l-8 -262l7 -390h-132l6 210v25h-8c-27.333 -23.333 -57.333 -42.333 -90 -57c-64.667 0 -114.667 20.833 -150 62.5s-53 98.834 -53 171.501c0 79.333 20.667 140.166 62 182.499s96.666 63.5 165.999 63.5c36 0 76 -7.33301 120 -22zM154.001 251
c0 -50 7.83203 -88.167 23.499 -114.5s38.5 -39.5 68.5 -39.5c14 0 27.833 3.16699 41.5 9.5s27.834 16.833 42.501 31.5l1 53l-3 171c-26.667 14 -51.667 21 -75 21c-66 0 -99 -44 -99 -132z" />
    <glyph glyph-name="r" unicode="r" horiz-adv-x="348" 
d="M343 464l-0.00195312 -123l-14 -5c-11.333 4.66699 -23.666 7 -36.999 7c-38.667 0 -73.667 -25 -105 -75v-63l7 -205h-133l8 192l-6 264l126 11l-1 -91h8c32.667 60 73.334 90 122.001 90c6 0 14.333 -0.666992 25 -2z" />
    <glyph glyph-name="s" unicode="s" horiz-adv-x="384" 
d="M345 450l-18.001 -98.002l-16 -5c-19.333 12.667 -38.666 22.334 -57.999 29.001s-36.333 10 -51 10c-16 0 -28.667 -4.16699 -38 -12.5s-14 -18.5 -14 -30.5c0 -14 6.16699 -25.333 18.5 -34s31.833 -18.334 58.5 -29.001s48.667 -21 66 -31
s32.166 -23.833 44.499 -41.5s18.5 -39.5 18.5 -65.5c0 -26.667 -6.83301 -51.5 -20.5 -74.5s-34.5 -41.667 -62.5 -56s-62.333 -21.5 -103 -21.5c-48 0 -97.667 10 -149 30l15 104l13 8c20.667 -17.333 43.667 -31.166 69 -41.499s47.666 -15.5 66.999 -15.5
c18 0 32 4.5 42 13.5s15 19.833 15 32.5c0 14 -6.16699 25.333 -18.5 34s-31.833 18.334 -58.5 29.001c-27.333 12 -49.666 22.833 -66.999 32.5s-32.166 23.5 -44.499 41.5s-18.5 40.333 -18.5 67c0 43.333 16.333 78.833 49 106.5s77 41.5 133 41.5
c45.333 0 88 -7.66699 128 -23z" />
    <glyph glyph-name="t" unicode="t" horiz-adv-x="338" 
d="M316 115l11.001 -10l-13 -79c-34 -17.333 -68.667 -28 -104 -32c-90 9.33301 -135 53.333 -135 132l5 83l-1 172h-62l-5 7l7 73h59v77l121 39l9 -8l-3 -108h119l4 -7l-6 -73h-119l-6 -224c0 -21.333 4 -36.5 12 -45.5s21.333 -13.5 40 -13.5
c21.333 0 43.666 5.66699 66.999 17z" />
    <glyph glyph-name="u" unicode="u" horiz-adv-x="522" 
d="M505 87l-12 -70c-24.667 -16 -50 -24.333 -76 -25c-19.333 3.33301 -35.333 11 -48 23s-22.334 29.333 -29.001 52h-9c-38 -37.333 -77.333 -61.666 -118 -72.999c-50.667 0 -89.167 11.5 -115.5 34.5s-39.166 56.167 -38.499 99.5l2 118l-5 210l129 11l-3 -295
c-0.666992 -23.333 4 -41 14 -53s25 -18 45 -18c29.333 0 58.333 13 87 39v316l127 11l-9 -346c0 -10.667 1.83301 -18.334 5.5 -23.001s9.5 -7 17.5 -7c7.33301 0 16.333 1.33301 27 4z" />
    <glyph glyph-name="v" unicode="v" horiz-adv-x="445" 
d="M148 391l70 -266h7l84 259l17 81h116l-156 -465h-143l-132 462l124 6z" />
    <glyph glyph-name="w" unicode="w" horiz-adv-x="698" 
d="M145 395l57 -261h8l70 254l16 77h129l10 -70l59 -260h8l68 253l16 77h112l-145 -465h-125l-71 299h-9l-83 -299h-131l-121 462l121 6z" />
    <glyph glyph-name="x" unicode="x" horiz-adv-x="461" 
d="M176 413l64 -104l63 108l25 47h117l-134 -228l140 -232l-140 -10l-23 59l-66 107l-69 -113l-22 -47h-117l135 233l-136 228l142 7z" />
    <glyph glyph-name="y" unicode="y" horiz-adv-x="447" 
d="M141 394l83.001 -259.997h8l83 249l17 82h114l-152 -434c-16 -45.333 -34 -81.833 -54 -109.5s-45 -50.334 -75 -68.001s-68.667 -32.834 -116 -45.501l-10 1c-22.667 22 -41.334 48 -56.001 78l4 13c42 7.33301 76.667 18.166 104 32.499s53.333 36.833 78 67.5
l-170 462l126 6z" />
    <glyph glyph-name="z" unicode="z" horiz-adv-x="424" 
d="M138 465h202l51 1l1 -79l-225 -302h141l85 8l7 -9l-9 -86l-116 2h-184l-64 -3v78l227 304h-134l-83 -7l-8 9l10 86z" />
    <glyph glyph-name="braceleft" unicode="{" horiz-adv-x="295" 
d="M284 648l6 -10.002l-11 -68c-14.667 3.33301 -26.667 5 -36 5c-36 0 -54 -20.333 -54 -61c0 -14 4 -37.667 12 -71c0.666992 -3.33301 2.66699 -12.833 6 -28.5s5 -29.167 5 -40.5c0 -23.333 -5.66699 -43.666 -17 -60.999s-28.333 -31.333 -51 -42v-5
c22 -10 38.833 -23.833 50.5 -41.5s17.5 -37.5 17.5 -59.5c0 -15.333 -4 -39 -12 -71c-0.666992 -4.66699 -2.66699 -14.667 -6 -30s-5 -28.666 -5 -39.999c0 -41.333 18 -62 54 -62c9.33301 0 21.333 1.66699 36 5l11 -67l-6 -10c-20 -6 -41.333 -9 -64 -9
c-44 0 -77.667 10.167 -101 30.5s-35 49.5 -35 87.5c0 23.333 4 54.333 12 93c6 30 9 52 9 66c0 40.667 -23 67 -69 79v63c46 12 69 38.333 69 79c0 14.667 -3 37 -9 67c-8 38.667 -12 69.667 -12 93c0 38 11.667 67.167 35 87.5s57 30.5 101 30.5c18.667 0 40 -3 64 -9z
" />
    <glyph glyph-name="bar" unicode="|" horiz-adv-x="307" 
d="M206 794l-3 -503v-543l-90 -7l-11 12l1 528l1 515l92 7z" />
    <glyph glyph-name="braceright" unicode="}" horiz-adv-x="295" 
d="M11 -111l-6 10.002l11 68c14.667 -3.33301 26.667 -5 36 -5c36 0 54 20.333 54 61c0 14 -4 37.667 -12 71c-0.666992 3.33301 -2.66699 12.833 -6 28.5s-5 29.167 -5 40.5c0 23.333 5.66699 43.666 17 60.999s28.333 31.333 51 42v5c-22 10 -38.833 23.833 -50.5 41.5
s-17.5 37.5 -17.5 59.5c0 15.333 4 39 12 71c0.666992 4.66699 2.66699 14.667 6 30s5 28.666 5 39.999c0 41.333 -18 62 -54 62c-9.33301 0 -21.333 -1.66699 -36 -5l-11 67l6 10c20 6 41.333 9 64 9c44 0 77.667 -10.167 101 -30.5s35 -49.5 35 -87.5
c0 -23.333 -4 -54.333 -12 -93c-6 -30 -9 -52 -9 -66c0 -40.667 23 -67 69 -79v-63c-46 -12 -69 -38.333 -69 -79c0 -14.667 3 -37 9 -67c8 -38.667 12 -69.667 12 -93c0 -38 -11.667 -67.167 -35 -87.5s-57 -30.5 -101 -30.5c-18.667 0 -40 3 -64 9z" />
    <glyph glyph-name="asciitilde" unicode="~" horiz-adv-x="480" 
d="M121.5 224c-9 -8 -23.5 -22.667 -43.5 -44h-13l-35 44v12l82 93l12 5c14.667 -2 49 -11 103 -27c6 -1.33301 22.333 -6 49 -14s45.334 -12 56.001 -12c7.33301 0 15.166 3.16699 23.499 9.5s19.833 16.833 34.5 31.5l14 15h12l35 -43v-12l-82 -93l-12 -5
c-19.333 2.66699 -55.333 12 -108 28c-20.667 6 -40.5 11.5 -59.5 16.5s-32.167 7.5 -39.5 7.5c-10 0 -19.5 -4 -28.5 -12z" />
    <glyph glyph-name="uni0400" unicode="&#x400;" horiz-adv-x="545" 
d="M490 112l8 -11l-9 -101h-404l7 192l-7 452h408l8 -11l-10 -101l-154 5l-116 -1l-3 -155l111 -2l105 3l8 -10l-9 -101l-114 3l-103 -1l-1 -69l3 -97l113 -1zM416 776l-20.999 -54.999l-13 -4c-80.667 27.333 -152.334 53.333 -215.001 78l-4 12l33 79l13 3
c54.667 -32.667 123.667 -70.334 207 -113.001z" />
    <glyph glyph-name="uni0401" unicode="&#x401;" horiz-adv-x="545" 
d="M490 112l8 -11l-9 -101h-404l7 192l-7 452h408l8 -11l-10 -101l-154 5l-116 -1l-3 -155l111 -2l105 3l8 -10l-9 -101l-114 3l-103 -1l-1 -69l3 -97l113 -1zM250 845c10.667 -10.667 15.998 -25.667 15.998 -45c0 -20.667 -5.83301 -37 -17.5 -49s-27.5 -18 -47.5 -18
c-19.333 0 -34.333 5.33301 -45 16s-16 26 -16 46s5.83301 36 17.5 48s27.834 18 48.501 18c18.667 0 33.334 -5.33301 44.001 -16zM422.998 845c10.667 -10.667 15.999 -25.667 15.999 -45c0 -20.667 -5.83301 -37 -17.5 -49s-27.167 -18 -46.5 -18s-34.333 5.33301 -45 16
s-16 26 -16 46s5.83301 36 17.5 48s27.5 18 47.5 18c18.667 0 33.334 -5.33301 44.001 -16z" />
    <glyph glyph-name="uni0402" unicode="&#x402;" horiz-adv-x="678" 
d="M555.5 406c28.333 -15.333 48.833 -40.166 61.5 -74.499s19 -81.5 19 -141.5c0 -88 -13.5 -162.333 -40.5 -223s-70.833 -114.334 -131.5 -161.001l-51 53v12c33.333 34.667 58.166 76 74.499 124s24.5 104.333 24.5 169c0 54.667 -6.33301 93.167 -19 115.5
s-35 33.5 -67 33.5c-43.333 0 -85.666 -19.333 -126.999 -58l-1 -51l5 -204h-135l7 192l-5 346h-42l-110 -4l-8 11l8 99h491l8 -11l-9 -99l-124 4h-81l-3 -184h9c38.667 35.333 81.667 60.333 129 75c50 0 89.167 -7.66699 117.5 -23z" />
    <glyph glyph-name="uni0403" unicode="&#x403;" horiz-adv-x="462" 
d="M452 633l-10 -99l-139 4h-82l-5 -334l5 -204h-136l7 192l-7 452h359zM384 886l34 -79l-4 -12c-64.667 -25.333 -136.667 -51.333 -216 -78l-12 4l-22 55c82 41.333 151 79 207 113z" />
    <glyph glyph-name="uni0404" unicode="&#x404;" horiz-adv-x="581" 
d="M519 148l13.002 -6.99902l-11 -115c-58.667 -23.333 -118 -35 -178 -35c-99.333 0 -174.333 26.667 -225 80s-76 132.666 -76 237.999c0 110 27.667 194.667 83 254s134.666 89 237.999 89c65.333 0 125 -13 179 -39l-24 -113l-11 -5c-47.333 30 -98.666 45 -153.999 45
c-49.333 0 -87.666 -13.167 -114.999 -39.5s-44.333 -66.5 -51 -120.5l108 -1l154 3l9 -10l-9 -101l-163 3l-100 -1c5.33301 -58 21.666 -100.5 48.999 -127.5s67.666 -40.5 120.999 -40.5c51.333 0 105.666 14.333 162.999 43z" />
    <glyph glyph-name="uni0405" unicode="&#x405;" horiz-adv-x="511" 
d="M456 619l-22.001 -116.999l-20 -8c-22.667 16 -46.167 28.667 -70.5 38s-46.5 14 -66.5 14c-26.667 0 -48 -7.16699 -64 -21.5s-24 -30.833 -24 -49.5c0 -19.333 8.83301 -35.666 26.5 -48.999s45.5 -29 83.5 -47c36.667 -16.667 66.5 -32.167 89.5 -46.5
s42.667 -33.166 59 -56.499s24.5 -52 24.5 -86c0 -36.667 -10 -70.167 -30 -100.5s-48.333 -54.333 -85 -72s-79 -26.5 -127 -26.5c-63.333 0 -127 13.667 -191 41l19 126l15 8c26.667 -23.333 55.834 -41.166 87.501 -53.499s59.834 -18.5 84.501 -18.5
c29.333 0 52.166 7.16699 68.499 21.5s24.5 31.5 24.5 51.5c0 21.333 -8.83301 38.666 -26.5 51.999s-46.167 29.333 -85.5 48c-36 16 -65.333 31 -88 45s-42 32.667 -58 56s-24 51.666 -24 84.999c0 37.333 10 71.166 30 101.499s48 54.166 84 71.499s77 26 123 26
c54.667 0 109 -11 163 -33z" />
    <glyph glyph-name="uni0406" unicode="&#x406;" horiz-adv-x="307" 
d="M215 204l6 -204h-136l7 192l-7 452h138z" />
    <glyph glyph-name="uni0407" unicode="&#x407;" horiz-adv-x="295" 
d="M208 204l6 -204h-136l7 192l-7 452h138zM108 845c10.667 -10.667 15.998 -25.667 15.998 -45c0 -20.667 -5.83301 -37 -17.5 -49s-27.5 -18 -47.5 -18c-19.333 0 -34.333 5.33301 -45 16s-16 26 -16 46s5.83301 36 17.5 48s27.834 18 48.501 18
c18.667 0 33.334 -5.33301 44.001 -16zM280.998 845c10.667 -10.667 15.999 -25.667 15.999 -45c0 -20.667 -5.83301 -37 -17.5 -49s-27.167 -18 -46.5 -18s-34.333 5.33301 -45 16s-16 26 -16 46s5.83301 36 17.5 48s27.5 18 47.5 18c18.667 0 33.334 -5.33301 44.001 -16z
" />
    <glyph glyph-name="uni0408" unicode="&#x408;" horiz-adv-x="351" 
d="M264 212l1.99902 -90.998c0 -38 -6.33301 -70.333 -19 -97s-33.167 -50.334 -61.5 -71.001s-67.166 -40.334 -116.499 -59.001l-41 72v12c41.333 21.333 70.5 42.5 87.5 63.5s25.5 48.167 25.5 81.5v76l-6 345l-106 -3l-10 10l7 93h245z" />
    <glyph glyph-name="uni0409" unicode="&#x409;" horiz-adv-x="897" 
d="M823.5 351.5c34.333 -30.333 51.501 -73.833 51.501 -130.5c0 -69.333 -24.5 -123.5 -73.5 -162.5s-116.833 -58.5 -203.5 -58.5h-192l7 192l-5 349h-123l-5 -42c-14 -131.333 -29.5 -232.5 -46.5 -303.5s-38.167 -122.333 -63.5 -154s-59 -50.167 -101 -55.5l-36 -1
l-23 110c32 9.33301 57.333 27.333 76 54s34 68.5 46 125.5s23 139.833 33 248.5l12 121h367l-4 -247h134c65.333 0 115.166 -15.167 149.499 -45.5zM708.001 130.5c16.667 19 25 43.167 25 72.5c0 31.333 -8.83301 55.5 -26.5 72.5s-43.5 25.5 -77.5 25.5l-90 -2l-2 -95
l3 -105l95 -5c32 5.33301 56.333 17.5 73 36.5z" />
    <glyph glyph-name="uni040A" unicode="&#x40a;" horiz-adv-x="977" 
d="M903.5 348.5c34.333 -29 51.501 -71.833 51.501 -128.5c0 -69.333 -24.5 -123.333 -73.5 -162s-117.167 -58 -204.5 -58h-190l7 191l-1 94h-146l-131 -2l-1 -79l5 -204h-135l7 192l-7 452h137l-4 -256l138 -2l135 2l-4 256h137l-4 -252h134
c65.333 0 115.166 -14.5 149.499 -43.5zM787.501 129.5c17 18.333 25.5 41.834 25.5 70.501c0 30.667 -9 54.167 -27 70.5s-43.667 23.833 -77 22.5l-91 -2l-1 -87l3 -105l94 -5c32 5.33301 56.5 17.166 73.5 35.499z" />
    <glyph glyph-name="uni040B" unicode="&#x40b;" horiz-adv-x="685" 
d="M507 0l5.99902 203c0 73.333 -29.667 110 -89 110c-20.667 0 -41.667 -5 -63 -15s-41.666 -24.333 -60.999 -43l-1 -51l5 -204h-136l7 192l-5 346h-41l-110 -4l-8 11l8 99h491l8 -11l-9 -99l-124 4h-81l-3 -184h9c36.667 34.667 79.667 59.667 129 75
c68 0 118 -16.167 150 -48.5s48 -82.833 48 -151.5l5 -229h-135z" />
    <glyph glyph-name="uni040C" unicode="&#x40c;" horiz-adv-x="613" 
d="M600 28l-1.99902 -15c-37.333 -9.33301 -81.333 -17 -132 -23l-16 8c-87.333 116 -165 227.333 -233 334l-2 -128l5 -204h-135l7 192l-7 452h137l-5 -299l181 237l37 62h146l-228 -304c71.333 -99.333 153.666 -203.333 246.999 -312zM412.001 886l34 -79l-4 -12
c-64.667 -25.333 -136.667 -51.333 -216 -78l-12 4l-22 55c82 41.333 151 79 207 113z" />
    <glyph glyph-name="uni040D" unicode="&#x40d;" horiz-adv-x="712" 
d="M91 192l-7 448l138 7l-9 -441h10l261 438h144l-7 -440l5 -204h-136l6 192l1 246h-9l-263 -438h-141zM484 776l-20.999 -54.999l-13 -4c-80.667 27.333 -152.334 53.333 -215.001 78l-4 12l33 79l13 3c54.667 -32.667 123.667 -70.334 207 -113.001z" />
    <glyph glyph-name="uni040E" unicode="&#x40e;" horiz-adv-x="588" 
d="M578 643l-179.001 -438c-26.667 -58.667 -51.5 -102.5 -74.5 -131.5s-50.167 -49.5 -81.5 -61.5s-73.666 -19 -126.999 -21l-10 1c-11.333 34 -19 69.667 -23 107l5 12c47.333 4.66699 83 10.167 107 16.5s43.333 15.833 58 28.5l-241 487l145 1l25 -70l126 -283h12
l106 290l19 62h133zM458.999 790c-15.333 -31.333 -38.832 -55.501 -70.499 -72.501s-68.834 -25.5 -111.501 -25.5c-42 0 -78.333 8.33301 -109 25s-53.667 41 -69 73l67 46h15c8.66699 -24 20.667 -41 36 -51s36.333 -15 63 -15s47.5 4.83301 62.5 14.5
s26.833 26.834 35.5 51.501h13z" />
    <glyph glyph-name="uni040F" unicode="&#x40f;" horiz-adv-x="680" 
d="M588 204l5 -204h-193l-11 -147l-99 -9l-12 156h-193l7 192l-7 452h137l-7 -440l2 -100h245l3 88l-7 452h137z" />
    <glyph glyph-name="uni0410" unicode="&#x410;" horiz-adv-x="605" 
d="M589 0h-138l-16 84l-17 60l-126 3l-111 -3l-17 -53l-17 -91h-134l218 644h161zM389 249l-76 268h-9l-88 -268l86 -2z" />
    <glyph glyph-name="uni0411" unicode="&#x411;" horiz-adv-x="599" 
d="M507.5 344c35 -29.333 52.501 -72 52.501 -128c0 -68 -24.833 -121 -74.5 -159s-118.834 -57 -207.501 -57h-193l7 191l-7 453h442l7 -11l-8 -99l-162 4h-144l-2 -150h137c66.667 0 117.5 -14.667 152.5 -44zM391.501 127.5c17.667 18.333 26.5 42.1689 26.5 71.502
c0 30.667 -9.16699 54.167 -27.5 70.5s-44.833 24.166 -79.5 23.499l-95 -2l-1 -87l3 -107l97 -5c33.333 5.33301 58.833 17.166 76.5 35.499z" />
    <glyph glyph-name="uni0412" unicode="&#x412;" horiz-adv-x="593" 
d="M522.5 280.5c21 -25 31.5 -57.833 31.5 -98.5c0 -124.667 -97.667 -187 -293 -187c-57.333 0 -116 1.66699 -176 5l7 192l-7 452l229 1c66 0 117.333 -13.833 154 -41.5s55 -67.5 55 -119.5c0 -34.667 -8.5 -65 -25.5 -91s-41.167 -45.667 -72.5 -59
c44 -10.667 76.5 -28.5 97.5 -53.5zM358 528.5c-17.333 12.333 -47.666 18.502 -90.999 18.502h-49l-3 -175l94 -3c25.333 6.66699 44.166 17.667 56.499 33s18.5 36.666 18.5 63.999c0 29.333 -8.66699 50.166 -26 62.499zM381.5 117.002
c23 16.667 34.5 40.668 34.5 72.001c0 47.333 -30.667 76.666 -92 87.999l-111 -2l-1 -71l3 -108c23.333 -2.66699 46.333 -4 69 -4c42 0 74.5 8.33301 97.5 25z" />
    <glyph glyph-name="uni0413" unicode="&#x413;" horiz-adv-x="462" 
d="M452 633l-10 -99l-139 4h-82l-5 -334l5 -204h-136l7 192l-7 452h359z" />
    <glyph glyph-name="uni0414" unicode="&#x414;" horiz-adv-x="689" 
d="M660 111l0.000976562 -238l-100 -9l-18 136h-409l-17 -127l-102 -9v247h53c28.667 14 51 35.167 67 63.5s29.167 69 39.5 122s20.166 128.5 29.499 226.5l13 121h362l-7 -440l2 -93h87zM444.001 111l2.99902 80.999l-5 349h-118l-4 -42
c-11.333 -113.333 -25.166 -199.166 -41.499 -257.499s-38.833 -101.833 -67.5 -130.5h233z" />
    <glyph glyph-name="uni0415" unicode="&#x415;" horiz-adv-x="545" 
d="M490 112l8 -11l-9 -101h-404l7 192l-7 452h408l8 -11l-10 -101l-154 5l-116 -1l-3 -155l111 -2l105 3l8 -10l-9 -101l-114 3l-103 -1l-1 -69l3 -97l113 -1z" />
    <glyph glyph-name="uni0416" unicode="&#x416;" horiz-adv-x="878" 
d="M863 28l-2 -15c-38.667 -10 -82 -17.667 -130 -23l-16 8c-85.333 123.333 -156.333 234 -213 332l-2 -126l5 -204h-133l5 192l-2 138c-49.333 -85.333 -120 -196 -212 -332l-16 -8c-47.333 5.33301 -91 13 -131 23l-1 15c88.667 111.333 165 215.333 229 312l-212 304
h144l35 -62l164 -235l-3 297h135l-5 -298l165 236l35 62h143l-211 -304c68.667 -104.667 145 -208.667 229 -312z" />
    <glyph glyph-name="uni0417" unicode="&#x417;" horiz-adv-x="530" 
d="M487 183c0 -60.667 -23.498 -107.999 -70.498 -141.999s-112.5 -51 -196.5 -51c-36 0 -70.333 3.5 -103 10.5s-60.667 16.833 -84 29.5l25 113l10 5c20.667 -14.667 44.334 -26 71.001 -34s53.334 -12 80.001 -12c39.333 0 71.166 8.5 95.499 25.5s36.5 39.5 36.5 67.5
c0 20.667 -6.5 38.167 -19.5 52.5s-31.833 24.166 -56.5 29.499h-143l-8 10l8 92l134 -1c17.333 8 31.166 19.833 41.499 35.5s15.5 33.167 15.5 52.5c0 24 -8.5 41.833 -25.5 53.5s-42.833 17.5 -77.5 17.5c-48.667 0 -102.334 -13.667 -161.001 -41l-13 7l11 113
c50 24 106 36 168 36c74 0 131.833 -14.5 173.5 -43.5s62.5 -69.167 62.5 -120.5c0 -34 -8.83301 -64.5 -26.5 -91.5s-42.834 -47.833 -75.501 -62.5c85.333 -22 128 -72.333 128 -151z" />
    <glyph glyph-name="uni0418" unicode="&#x418;" horiz-adv-x="712" 
d="M91 192l-7 448l138 7l-9 -441h10l261 438h144l-7 -440l5 -204h-136l6 192l1 246h-9l-263 -438h-141z" />
    <glyph glyph-name="uni0419" unicode="&#x419;" horiz-adv-x="712" 
d="M91 192l-7 448l138 7l-9 -441h10l261 438h144l-7 -440l5 -204h-136l6 192l1 246h-9l-263 -438h-141zM521 790c-15.333 -31.333 -38.832 -55.501 -70.499 -72.501s-68.834 -25.5 -111.501 -25.5c-42 0 -78.333 8.33301 -109 25s-53.667 41 -69 73l67 46h15
c8.66699 -24 20.667 -41 36 -51s36.333 -15 63 -15s47.5 4.83301 62.5 14.5s26.833 26.834 35.5 51.501h13z" />
    <glyph glyph-name="uni041A" unicode="&#x41a;" horiz-adv-x="613" 
d="M600 28l-1.99902 -15c-37.333 -9.33301 -81.333 -17 -132 -23l-16 8c-87.333 116 -165 227.333 -233 334l-2 -128l5 -204h-135l7 192l-7 452h137l-5 -299l181 237l37 62h146l-228 -304c71.333 -99.333 153.666 -203.333 246.999 -312z" />
    <glyph glyph-name="uni041B" unicode="&#x41b;" horiz-adv-x="625" 
d="M534 204l3.99902 -204h-135l7 192l-5 349h-121l-5 -42c-14 -131.333 -29.5 -232.5 -46.5 -303.5s-38.167 -122.333 -63.5 -154s-58.666 -50.167 -99.999 -55.5l-36 -1l-23 110c32 9.33301 57.167 27.333 75.5 54s33.333 68.667 45 126s22.5 140 32.5 248l13 119l-1 2h366
z" />
    <glyph glyph-name="uni041C" unicode="&#x41c;" horiz-adv-x="820" 
d="M761 0h-120l-10 195l-23 248h-10l-144 -375h-105l-131 375h-9l-25 -235l-14 -208h-114l65 644h156l26 -95l102 -305h9l107 305l29 95h153z" />
    <glyph glyph-name="uni041D" unicode="&#x41d;" horiz-adv-x="709" 
d="M618 204l4 -204h-135l6 192l-1 75l-145 1l-131 -2l-1 -62l5 -204h-135l7 192l-7 452h137l-4 -266l138 -2l135 2l-4 266h138z" />
    <glyph glyph-name="uni041E" unicode="&#x41e;" horiz-adv-x="671" 
d="M556.5 570.5c49 -55 73.499 -133.167 73.499 -234.5c0 -110.667 -26.667 -196 -80 -256s-128.666 -90 -225.999 -90c-90 0 -159.5 28.167 -208.5 84.5s-73.5 136.166 -73.5 239.499c0 108.667 26.5 192.334 79.5 251.001s128.167 88 225.5 88
c90.667 0 160.5 -27.5 209.5 -82.5zM218.999 494c-24 -33.333 -36 -87.668 -36 -163.001c0 -86 11.833 -147.333 35.5 -184s62.834 -55 117.501 -55c53.333 0 92 16.833 116 50.5s36 88.834 36 165.501c0 84.667 -11.833 145.167 -35.5 181.5s-62.834 54.5 -117.501 54.5
c-53.333 0 -92 -16.667 -116 -50z" />
    <glyph glyph-name="uni041F" unicode="&#x41f;" horiz-adv-x="673" 
d="M581 204l5 -204h-135l6 192l-5 347h-232l-5 -335l5 -204h-135l6 192l-6 452h503z" />
    <glyph glyph-name="uni0420" unicode="&#x420;" horiz-adv-x="568" 
d="M487.5 594c36.333 -34 54.501 -82.667 54.501 -146c0 -48.667 -10.667 -91.167 -32 -127.5s-51.833 -64.5 -91.5 -84.5s-86.167 -30 -139.5 -30h-64v-2l6 -204h-136l7 192l-7 452l247 1c67.333 0 119.166 -17 155.499 -51zM401.001 436c0 36 -9.16699 62.833 -27.5 80.5
s-46.5 27.167 -84.5 28.5l-68 -4l-4 -232l92 -4c61.333 17.333 92 61 92 131z" />
    <glyph glyph-name="uni0421" unicode="&#x421;" horiz-adv-x="553" 
d="M518 613l-23.999 -113.001l-11 -5c-20 14 -42 25 -66 33s-48.667 12 -74 12c-106 0 -159 -69.667 -159 -209c0 -75.333 13.833 -131.833 41.5 -169.5s68.167 -56.5 121.5 -56.5c24.667 0 50.167 3.83301 76.5 11.5s50.166 18.167 71.499 31.5l12 -7l-11 -115
c-50.667 -23.333 -104 -35 -160 -35c-96 0 -169.167 28 -219.5 84s-75.5 136.333 -75.5 241c0 106.667 26.833 189.334 80.5 248.001s129.5 88 227.5 88c62.667 0 119 -13 169 -39z" />
    <glyph glyph-name="uni0422" unicode="&#x422;" horiz-adv-x="495" 
d="M484 633l-8 -101l-121 6h-40l-5 -334l6 -204h-136l7 192l-5 346h-40l-123 -6l-9 11l9 101h457z" />
    <glyph glyph-name="uni0423" unicode="&#x423;" horiz-adv-x="588" 
d="M578 643l-179.001 -438c-26.667 -58.667 -51.5 -102.5 -74.5 -131.5s-50.167 -49.5 -81.5 -61.5s-73.666 -19 -126.999 -21l-10 1c-11.333 34 -19 69.667 -23 107l5 12c47.333 4.66699 83 10.167 107 16.5s43.333 15.833 58 28.5l-241 487l145 1l25 -70l126 -283h12
l106 290l19 62h133z" />
    <glyph glyph-name="uni0424" unicode="&#x424;" horiz-adv-x="786" 
d="M679 140c-51.333 -45.333 -126.666 -71.668 -225.999 -79.001l2 -88h-125l2 87c-98.667 6 -173.5 31.167 -224.5 75.5s-76.5 107.5 -76.5 189.5c0 86.667 25.167 152.5 75.5 197.5s125.166 71.167 224.499 78.5l-1 72h127l-1 -71c200 -13.333 300 -101 300 -263
c0 -87.333 -25.667 -153.666 -77 -198.999zM201.5 208.998c28.333 -27.333 72.833 -43.666 133.5 -48.999l1 33l-4 309c-58.667 -6 -102.167 -22.833 -130.5 -50.5s-42.5 -67.834 -42.5 -120.501c0 -54 14.167 -94.667 42.5 -122zM583.5 208.498
c28.333 27 42.5 67.5 42.5 121.5c0 53.333 -13.667 93.833 -41 121.5s-70.666 44.5 -129.999 50.5l-4 -297l1 -45c59.333 5.33301 103.166 21.5 131.499 48.5z" />
    <glyph glyph-name="uni0425" unicode="&#x425;" horiz-adv-x="623" 
d="M398 337l208 -337h-163l-30 64l-107 167l-116 -174l-29 -57h-140l206 318l-204 326h163l30 -65l101 -157l105 162l27 60h144z" />
    <glyph glyph-name="uni0426" unicode="&#x426;" horiz-adv-x="700" 
d="M673 111v-238l-99 -9l-19 136h-470l7 192l-7 452h137l-7 -440l2 -93h235l3 81l-7 452h137l-7 -440l3 -93h92z" />
    <glyph glyph-name="uni0427" unicode="&#x427;" horiz-adv-x="608" 
d="M517 204l5 -204h-136l7 192l-1 77h-10c-38 -34.667 -81 -60 -129 -76c-68.667 0 -119.5 15.5 -152.5 46.5s-49.833 78.833 -50.5 143.5l-4 261h137l-2 -225c0 -34.667 7.66699 -61.5 23 -80.5s36.666 -28.5 63.999 -28.5c38.667 0 79.334 18.667 122.001 56l-4 278h138z
" />
    <glyph glyph-name="uni0428" unicode="&#x428;" horiz-adv-x="946" 
d="M854 204l5 -204h-774l7 192l-7 452h137l-7 -440l2 -93h191l3 81l-7 452h138l-7 -440l2 -93h190l3 81l-6 452h137z" />
    <glyph glyph-name="uni0429" unicode="&#x429;" horiz-adv-x="968" 
d="M944 111v-238l-99 -9l-19 136h-742l7 192l-7 452h137l-7 -440l2 -93h191l3 81l-7 452h138l-7 -440l2 -93h190l3 81l-6 452h137l-7 -440l2 -93h89z" />
    <glyph glyph-name="uni042A" unicode="&#x42a;" horiz-adv-x="657" 
d="M582 351.5c34 -30.333 51 -73.833 51 -130.5c0 -69.333 -24 -123.5 -72 -162.5s-115 -58.5 -201 -58.5h-184l7 191l-5 347h-62l-97 -4l-9 11l8 99h295l-4 -247h126c64 0 113 -15.167 147 -45.5zM466.5 130.5c16.333 19 24.5 43.167 24.5 72.5
c0 31.333 -8.66699 55.5 -26 72.5s-42 25.5 -74 25.5l-83 -2l-2 -95l3 -106l87 -4c30.667 5.33301 54.167 17.5 70.5 36.5z" />
    <glyph glyph-name="uni042B" unicode="&#x42b;" horiz-adv-x="803" 
d="M458 351.5c32 -30.333 48 -73.833 48 -130.5c0 -69.333 -23 -123.5 -69 -162.5s-110 -58.5 -192 -58.5h-178l7 191l-7 453h137l-4 -247h120c60 0 106 -15.167 138 -45.5zM711 204l6 -204h-136l7 192l-7 452h138zM344 130.5c14.667 19 22 43.167 22 72.5
c0 31.333 -7.83301 55.5 -23.5 72.5s-38.167 25.5 -67.5 25.5l-76 -2l-2 -95l3 -106l81 -4c27.333 5.33301 48.333 17.5 63 36.5z" />
    <glyph glyph-name="uni042C" unicode="&#x42c;" horiz-adv-x="574" 
d="M499.5 351.5c33.667 -30.333 50.5 -73.833 50.5 -130.5c0 -69.333 -24.167 -123.5 -72.5 -162.5s-115.833 -58.5 -202.5 -58.5h-190l7 191l-7 453h137l-4 -247h133c65.333 0 114.833 -15.167 148.5 -45.5zM383.5 130c16.333 18.667 24.499 43 24.499 73
c0 31.333 -8.66699 55.5 -26 72.5s-42.666 25.5 -75.999 25.5l-89 -2l-2 -95l3 -105l93 -5c32 5.33301 56.167 17.333 72.5 36z" />
    <glyph glyph-name="uni042D" unicode="&#x42d;" horiz-adv-x="581" 
d="M463.5 572c50.333 -53.333 75.498 -132.667 75.498 -238c0 -110 -27.667 -194.667 -83 -254s-134.666 -89 -237.999 -89c-65.333 0 -125 13 -179 39l24 113l12 5c22 -14 46.167 -25 72.5 -33s53.166 -12 80.499 -12c50.667 0 89.834 14 117.501 42
s44.167 70.333 49.5 127l-109 1l-153 -3l-8 10l9 102l161 -3l99 1c-6.66699 54.667 -23.667 94.667 -51 120s-66.666 38 -117.999 38s-105.666 -14.333 -162.999 -43l-13 7l11 116c60 22.667 119.667 34 179 34c99.333 0 174.166 -26.667 224.499 -80z" />
    <glyph glyph-name="uni042E" unicode="&#x42e;" horiz-adv-x="900" 
d="M787.5 570c45.667 -55.333 68.502 -133.334 68.502 -234.001c0 -110.667 -24.667 -196 -74 -256s-119.333 -90 -210 -90c-76.667 0 -137.334 24 -182.001 72s-70.334 116.333 -77.001 205l-52 1l-45 -1l-1 -63l5 -204h-136l7 192l-7 452h138l-4 -267l49 -1l47 1
c9.33301 88.667 38 156.834 86 204.501s112.667 71.5 194 71.5c83.333 0 147.833 -27.667 193.5 -83zM684.502 141.999c20.333 33.333 30.499 88.666 30.499 165.999c0 85.333 -10.333 146 -31 182s-54.667 54 -102 54c-46 0 -79.167 -16.667 -99.5 -50
s-30.5 -87.666 -30.5 -162.999c0 -86 10.333 -147.333 31 -184s54.334 -55 101.001 -55s80.167 16.667 100.5 50z" />
    <glyph glyph-name="uni042F" unicode="&#x42f;" horiz-adv-x="602" 
d="M510 192l6.99902 -192h-136l5 204v13h-95c-32 -64 -71.333 -136 -118 -216l-14 -11c-49.333 2.66699 -93.666 11.667 -132.999 27l-2 15c53.333 66 107.333 138.333 162 217c-41.333 20 -72.5 45.667 -93.5 77s-31.5 67.333 -31.5 108c0 41.333 10.167 78 30.5 110
s48.5 57 84.5 75s77 27 123 27l218 -2zM383.999 323l-3.00098 218l-71 4c-34.667 -1.33301 -61.167 -11 -79.5 -29s-27.5 -44.667 -27.5 -80c0 -31.333 7.33301 -56.5 22 -75.5s37.334 -33.167 68.001 -42.5z" />
    <glyph glyph-name="uni0430" unicode="&#x430;" horiz-adv-x="474" 
d="M361.5 439.5c29 -23 43.4951 -55.1689 43.4951 -96.502c0 -12 -2 -50 -6 -114c-0.666992 -18.667 -1.66699 -37.834 -3 -57.501s-2 -36.5 -2 -50.5c0 -11.333 1.66699 -19.166 5 -23.499s9.33301 -6.5 18 -6.5c6.66699 0 15.334 1.33301 26.001 4l10 -8l-12 -70
c-21.333 -14 -45.666 -22.333 -72.999 -25c-20 2 -36.667 9.16699 -50 21.5s-22.333 29.5 -27 51.5h-7c-33.333 -35.333 -67.666 -60 -102.999 -74c-48 0.666992 -85.667 13.334 -113 38.001s-41 58.334 -41 101.001c0 33.333 8.5 59.5 25.5 78.5s42.833 31.833 77.5 38.5
l153 29v41c0 43.333 -21.333 65 -64 65c-20.667 0 -42.5 -4.66699 -65.5 -14s-48.833 -24 -77.5 -44l-10 6l-15 88c28.667 18 59.334 31.833 92.001 41.5s65.334 14.5 98.001 14.5c51.333 0 91.5 -11.5 120.5 -34.5zM175.995 185.998
c-10.667 -2.66699 -18.5 -7.16699 -23.5 -13.5s-7.5 -15.833 -7.5 -28.5c0 -17.333 4.66699 -30.833 14 -40.5s22.333 -14.5 39 -14.5c26 0 53.333 15.333 82 46l2 74z" />
    <glyph glyph-name="uni0431" unicode="&#x431;" horiz-adv-x="507" 
d="M432.5 399c31 -36.667 46.498 -91.335 46.498 -164.002c0 -80 -19.167 -140.833 -57.5 -182.5s-94.166 -62.5 -167.499 -62.5c-50 0 -90.167 10.5 -120.5 31.5s-52.666 54.333 -66.999 100s-21.5 105.834 -21.5 180.501c0 66.667 5.83301 121.167 17.5 163.5
s30.5 76.333 56.5 102s61.667 46.167 107 61.5l94 31c38 13.333 72.667 29.333 104 48l12 -7l6 -106c-27.333 -13.333 -61.333 -25.666 -102 -36.999l-91 -25c-28 -8 -48.167 -22.333 -60.5 -43s-18.5 -50 -18.5 -88v-27l7 -2c35.333 41.333 74.333 68.333 117 81
c61.333 0 107.5 -18.333 138.5 -55zM332.498 109.499c14.333 21 21.5029 54.166 21.5029 99.499c0 47.333 -7.33301 82.166 -22 104.499s-37.334 33.5 -68.001 33.5c-16.667 0 -32.5 -4.16699 -47.5 -12.5s-30.5 -21.166 -46.5 -38.499c0.666992 -56 4 -99.667 10 -131
s15.667 -53.666 29 -66.999s31.666 -20 54.999 -20c31.333 0 54.166 10.5 68.499 31.5z" />
    <glyph glyph-name="uni0432" unicode="&#x432;" horiz-adv-x="487" 
d="M457 133c0 -47.333 -19 -82 -57 -104s-94.333 -33 -169 -33c-35.333 0 -91 1.33301 -167 4l7 192l-5 273h208c53.333 0 94.333 -10 123 -30s43 -49 43 -87c0 -23.333 -6.5 -44.5 -19.5 -63.5s-31.5 -33.833 -55.5 -44.5c61.333 -15.333 92 -51 92 -107zM189 386
l-1.99902 -116l76 -3c37.333 10 56 31.333 56 64c0 20 -7.16699 34.333 -21.5 43s-38.833 13 -73.5 13c-14.667 0 -26.334 -0.333008 -35.001 -1zM313.001 89.5c15.333 11 23 27.167 23 48.5c0 15.333 -4.66699 27.5 -14 36.5s-24.333 15.5 -45 19.5l-92 -1l3 -116
c19.333 -2.66699 39.333 -4 60 -4c28 0 49.667 5.5 65 16.5z" />
    <glyph glyph-name="uni0433" unicode="&#x433;" horiz-adv-x="367" 
d="M370 456l-8 -86l-105 3h-62l-4 -168l6 -205h-133l7 192l-5 273h297z" />
    <glyph glyph-name="uni0434" unicode="&#x434;" horiz-adv-x="541" 
d="M511 95v-210l-85 -7l-16 122h-302l-15 -115l-85 -7v217h35c20 12 35.667 27.5 47 46.5s20.5 45.833 27.5 80.5s14.167 85 21.5 151l10 91h306l-6 -259l3 -110h59zM331 192l-3 186h-86l-3 -26c-8 -74 -17.667 -130.333 -29 -169s-27 -68 -47 -88h165z" />
    <glyph glyph-name="uni0435" unicode="&#x435;" horiz-adv-x="471" 
d="M417 216l-269.998 -2.00195c6 -83.333 48.333 -125 127 -125c41.333 0 87.333 11.667 138 35l11 -7l-20 -99c-50.667 -18.667 -98.334 -28 -143.001 -28c-73.333 0 -130.833 21.333 -172.5 64s-62.5 101.667 -62.5 177c0 74.667 20.333 133.834 61 177.501
s95.667 65.5 165 65.5c59.333 0 105.166 -16.167 137.499 -48.5s48.5 -77.5 48.5 -135.5c0 -15.333 -1.66699 -34.666 -5 -57.999zM321.002 304.998c0 26.667 -6 46.833 -18 60.5s-29.667 20.5 -53 20.5c-26 0 -47.667 -8.5 -65 -25.5s-29 -41.5 -35 -73.5l169 4z" />
    <glyph glyph-name="uni0436" unicode="&#x436;" horiz-adv-x="712" 
d="M703 22l-1 -14.001c-24 -5.33301 -49 -9.5 -75 -12.5s-41.667 -4.83301 -47 -5.5l-14 6c-58.667 84.667 -108 165.334 -148 242.001l-1 -33l5 -205h-132l6 192l-1 49c-41.333 -79.333 -91 -161 -149 -245l-15 -6l-48 5.5c-26 3 -50.333 7.16699 -73 12.5l-1 14
c62.667 86 116 163.667 160 233l-150 210h138l23 -48l115 -163l-4 211h131l-4 -209l113 161l24 48h138l-150 -210c44 -69.333 97.333 -147 160 -233z" />
    <glyph glyph-name="uni0437" unicode="&#x437;" horiz-adv-x="410" 
d="M358.5 201c15 -17.333 22.5 -39.9971 22.5 -67.9971c0 -44.667 -18.167 -79.334 -54.5 -104.001s-87.5 -37 -153.5 -37c-27.333 0 -53.5 2.16699 -78.5 6.5s-46.167 10.5 -63.5 18.5l21 96l9 4c14.667 -8 32 -14.333 52 -19s39.667 -7 59 -7c27.333 0 49 4.66699 65 14
s24 22.333 24 39c0 23.333 -14.667 39 -44 47h-111l-7 8l8 81l101 -1c10.667 4.66699 19 11.5 25 20.5s9 19.167 9 30.5c0 14.667 -5.5 25.167 -16.5 31.5s-28.833 9.5 -53.5 9.5c-34.667 0 -74.334 -7 -119.001 -21l-11 5l9 96c38.667 13.333 80.334 20 125.001 20
c59.333 0 105.333 -10.667 138 -32s49 -51.333 49 -90c0 -24.667 -6.5 -46.334 -19.5 -65.001s-31.167 -33.334 -54.5 -44.001c31.333 -8.66699 54.5 -21.667 69.5 -39z" />
    <glyph glyph-name="uni0438" unicode="&#x438;" horiz-adv-x="549" 
d="M71 192l-7 270l132 6l-5 -288h8l154 285h132l-7 -257l7 -208h-132l6 183v110h-7l-159 -293h-129z" />
    <glyph glyph-name="uni0439" unicode="&#x439;" horiz-adv-x="549" 
d="M71 192l-7 270l132 6l-5 -288h8l154 285h132l-7 -257l7 -208h-132l6 183v110h-7l-159 -293h-129zM440 631c-13.333 -30.667 -34.833 -54.668 -64.5 -72.001s-64.167 -26 -103.5 -26c-38.667 0 -72 8.33301 -100 25s-49.333 41 -64 73l67 46h14
c8.66699 -24 19.5 -41 32.5 -51s31.167 -15 54.5 -15c22.667 0 40.167 4.83301 52.5 14.5s22.833 26.834 31.5 51.501h13z" />
    <glyph glyph-name="uni043A" unicode="&#x43a;" horiz-adv-x="496" 
d="M69 192l-4 264l131 11l-5 -262l4 -205h-132zM324 255c37.333 -58.667 91.666 -136.332 162.999 -232.999v-14c-23.333 -5.33301 -48.166 -9.5 -74.499 -12.5l-48.5 -5.5l-14 6c-60 85.333 -111 167.666 -153 246.999v9l118 165l24 48h138z" />
    <glyph glyph-name="uni043B" unicode="&#x43b;" horiz-adv-x="496" 
d="M426 205l5 -205h-132l6 192l-3 185h-84l-3 -26c-11.333 -94.667 -23.5 -167 -36.5 -217s-29.167 -85.833 -48.5 -107.5s-45.333 -34.167 -78 -37.5h-30l-19 102c24 7.33301 42.667 20 56 38s24.333 45.5 33 82.5s16.667 90.833 24 161.5l10 90l-1 2h307z" />
    <glyph glyph-name="uni043C" unicode="&#x43c;" horiz-adv-x="630" 
d="M93 464h132l20 -68l66 -201h7l72 199l22 70h130l41 -464h-105l-5 144l-13 152h-8l-100 -249h-88l-89 249h-7l-15 -138l-11 -158h-99z" />
    <glyph glyph-name="uni043D" unicode="&#x43d;" horiz-adv-x="552" 
d="M481 205l5 -205h-132l6 182l-87 1l-81 -2l5 -181h-133l7 192l-5 273h131l-4 -184l86 -1h80l-3 185h130z" />
    <glyph glyph-name="uni043E" unicode="&#x43e;" horiz-adv-x="491" 
d="M409 414c36 -40 54 -97.667 54 -173c0 -81.333 -19.333 -143.5 -58 -186.5s-94.334 -64.5 -167.001 -64.5c-68 0 -120 20 -156 60s-54 97.667 -54 173c0 81.333 19.333 143.5 58 186.5s94.334 64.5 167.001 64.5c68 0 120 -20 156 -60zM174.5 352
c-14.333 -21.333 -21.5 -55.667 -21.5 -103c0 -61.333 7.33301 -105 22 -131s38.667 -39 72 -39c32 0 55.167 10.5 69.5 31.5s21.5 55.5 21.5 103.5c0 60.667 -7.5 104.167 -22.5 130.5s-38.833 39.5 -71.5 39.5c-32 0 -55.167 -10.667 -69.5 -32z" />
    <glyph glyph-name="uni043F" unicode="&#x43f;" horiz-adv-x="540" 
d="M469 185l5 -185h-132l6 171l-3 201h-149l-5 -187l6 -185h-133l7 171l-5 294h408z" />
    <glyph glyph-name="uni0440" unicode="&#x440;" horiz-adv-x="520" 
d="M444 412c31.333 -39.333 46.999 -95.001 46.999 -167.001c0 -81.333 -20.167 -144.166 -60.5 -188.499s-97.166 -66.5 -170.499 -66.5c-21.333 0 -43.666 2 -66.999 6l3 -181h-132l7 377l-6 264l127 11l-1 -68h7c18.667 18 36.667 32.5 54 43.5s36.666 20.5 57.999 28.5
c58 0 102.667 -19.667 134 -59zM339.999 113.999c18 24.667 27 60.999 27 108.999c0 46.667 -7.5 81.834 -22.5 105.501s-37.167 35.5 -66.5 35.5c-28.667 0 -57.667 -14.333 -87 -43l-1 -116l2 -113c24 -10 47 -15 69 -15c34.667 0 61 12.333 79 37z" />
    <glyph glyph-name="uni0441" unicode="&#x441;" horiz-adv-x="402" 
d="M315.5 467.5c21.667 -4.33301 40.834 -10.5 57.501 -18.5l-22 -106l-11 -5c-34 18.667 -64.333 28 -91 28c-30.667 0 -54.334 -11 -71.001 -33s-25 -53.333 -25 -94c0 -46.667 9 -82.334 27 -107.001s43.667 -37 77 -37c30 0 63.333 8.33301 100 25l10 -8l-13 -103
c-40 -12.667 -81 -19 -123 -19c-64 0 -114 20.833 -150 62.5s-54 99.834 -54 174.501c0 77.333 19.667 137.833 59 181.5s94 65.5 164 65.5c22 0 43.833 -2.16699 65.5 -6.5z" />
    <glyph glyph-name="uni0442" unicode="&#x442;" horiz-adv-x="391" 
d="M394 456l-8 -86l-92 3h-34l-4 -168l6 -205h-132l6 192l-3 181h-36l-92 -3l-7 9l6 86h382z" />
    <glyph glyph-name="uni0443" unicode="&#x443;" horiz-adv-x="452" 
d="M144 394l83.001 -259.997h8l83 249l17 82h114l-152 -434c-16 -45.333 -34 -81.833 -54 -109.5s-45 -50.334 -75 -68.001s-68.667 -32.834 -116 -45.501l-10 1c-22.667 22 -41.334 48 -56.001 78l4 13c42 7.33301 76.667 18.166 104 32.499s53.333 36.833 78 67.5
l-170 462l126 6z" />
    <glyph glyph-name="uni0444" unicode="&#x444;" horiz-adv-x="659" 
d="M574.5 66c-41 -40.667 -101.833 -65.667 -182.5 -75l1 -176h-127l1 175c-162.667 14 -244 93.333 -244 238c0 145.333 81.333 226.333 244 243l-2 168l130 10l-2 -178c162 -14 243 -92.667 243 -236c0 -72 -20.5 -128.333 -61.5 -169zM176 127.5
c19.333 -25 50.001 -41.165 92.001 -48.498l1 113l-2 187c-42.667 -6.66699 -73.334 -21.334 -92.001 -44.001s-28 -56.334 -28 -101.001c0 -46 9.66699 -81.5 29 -106.5zM482.501 127.002c19 24.667 28.5 59.999 28.5 105.999c0 44.667 -9.33301 78.5 -28 101.5
s-49 37.833 -91 44.5l-2 -171l1 -128c42 6.66699 72.5 22.334 91.5 47.001z" />
    <glyph glyph-name="uni0445" unicode="&#x445;" horiz-adv-x="468" 
d="M179 413l64 -104l63 108l25 47h117l-134 -228l140 -232l-140 -10l-23 59l-66 107l-69 -113l-22 -47h-117l135 233l-136 228l142 7z" />
    <glyph glyph-name="uni0446" unicode="&#x446;" horiz-adv-x="561" 
d="M535 96v-211l-88 -8l-16 123h-367l7 192l-5 273h131l-6 -260l3 -108l148 -1l3 96l-5 273h132l-6 -260l3 -109h66z" />
    <glyph glyph-name="uni0447" unicode="&#x447;" horiz-adv-x="489" 
d="M418 205l5.99902 -205h-132l5 189h-8c-29.333 -24 -61 -42 -95 -54c-56 0 -96.667 11.333 -122 34s-38.666 58.667 -39.999 108l-3 188h131l-3 -161c-0.666992 -45.333 19 -68 59 -68c27.333 0 54 10.667 80 32l-3 197h132z" />
    <glyph glyph-name="uni0448" unicode="&#x448;" horiz-adv-x="738" 
d="M668 204l4 -204h-607l6 192l-5 272h122l-7 -260l3 -109h126l4 97l-5 272h122l-5 -260l2 -109h126l3 97l-4 272h120z" />
    <glyph glyph-name="uni0449" unicode="&#x449;" horiz-adv-x="770" 
d="M751 96v-211l-88 -8l-16 123h-582l6 192l-5 272h122l-7 -260l3 -109h126l4 97l-5 272h122l-5 -260l2 -109h126l3 97l-4 272h120l-5 -260l2 -108h81z" />
    <glyph glyph-name="uni044A" unicode="&#x44a;" horiz-adv-x="506" 
d="M456.5 262.5c27 -21.667 40.5 -53.166 40.5 -94.499c0 -52.667 -19.167 -93.834 -57.5 -123.501s-91.5 -44.5 -159.5 -44.5h-161l6 192l-3 181h-38l-79 -3l-7 8l7 87h241l-5 -170h99c50.667 0 89.5 -10.833 116.5 -32.5zM355 105.501c11.333 13 17 28.833 17 47.5
c0 20 -6 35.833 -18 47.5s-29 17.167 -51 16.5l-64 -1v-11l3 -122l66 -3c20 4 35.667 12.5 47 25.5z" />
    <glyph glyph-name="uni044B" unicode="&#x44b;" horiz-adv-x="686" 
d="M615 205l6 -205h-133l7 192l-5 264l131 11zM401.5 262.5c26.333 -21.667 39.501 -53.166 39.501 -94.499c0 -52.667 -18.667 -93.834 -56 -123.501s-89 -44.5 -155 -44.5h-166l7 192l-5 273h131l-4 -170h95c49.333 0 87.166 -10.833 113.499 -32.5zM300.001 105.501
c10 13 15 28.833 15 47.5c0 20 -5.66699 35.833 -17 47.5s-27 17.167 -47 16.5l-60 -1v-11l4 -122l63 -3c18 4 32 12.5 42 25.5z" />
    <glyph glyph-name="uni044C" unicode="&#x44c;" horiz-adv-x="463" 
d="M414.5 262.5c27.667 -21.667 41.499 -53.166 41.499 -94.499c0 -52.667 -19.667 -93.834 -59 -123.501s-93.333 -44.5 -162 -44.5h-171l7 192l-5 273h131l-4 -170h101c52.667 0 92.834 -10.833 120.501 -32.5zM312.499 105.501c11.667 13 17.5 28.833 17.5 47.5
c0 20 -6.5 35.833 -19.5 47.5s-30.833 17.167 -53.5 16.5l-66 -1v-11l4 -122l68 -3c21.333 4 37.833 12.5 49.5 25.5z" />
    <glyph glyph-name="uni044D" unicode="&#x44d;" horiz-adv-x="440" 
d="M354 413c39.333 -40.667 58.999 -98.332 58.999 -172.999c0 -78 -21.167 -139.167 -63.5 -183.5s-100.833 -66.5 -175.5 -66.5c-50 0 -96.667 8.33301 -140 25l23 98l12 4c20.667 -9.33301 39.334 -16.166 56.001 -20.499s33.667 -6.5 51 -6.5c66 0 104 33.333 114 100
h-79l-106 -2l-7 9l7 82l113 -2l70 1c-7.33301 31.333 -21.5 55.166 -42.5 71.499s-48.167 24.5 -81.5 24.5c-36.667 0 -74.667 -8.33301 -114 -25l-12 8l14 99c17.333 5.33301 38 9.66602 62 12.999s48 5 72 5c72.667 0 128.667 -20.333 168 -61z" />
    <glyph glyph-name="uni044E" unicode="&#x44e;" horiz-adv-x="708" 
d="M626.5 414c34.333 -40 51.5 -97.667 51.5 -173c0 -81.333 -18.333 -143.5 -55 -186.5s-90 -64.5 -160 -64.5c-60 0 -107 16.5 -141 49.5s-53.667 80.5 -59 142.5l-39 1l-32 -1l5 -182h-133l7 192l-5 273h131l-4 -185h72c8 63.333 30 111.5 66 144.5s84.333 49.5 145 49.5
c66 0 116.167 -20 150.5 -60zM534.5 111c13 22 19.5 57.667 19.5 107c0 60 -6.66699 102.667 -20 128s-35.666 38 -66.999 38c-28.667 0 -49.5 -10.833 -62.5 -32.5s-19.5 -57.167 -19.5 -106.5c0 -60.667 6.66699 -103.667 20 -129s35.666 -38 66.999 -38
c28.667 0 49.5 11 62.5 33z" />
    <glyph glyph-name="uni044F" unicode="&#x44f;" horiz-adv-x="485" 
d="M414 205l5.00098 -205.001h-124l4 156h-69c-22.667 -47.333 -50.334 -98.666 -83.001 -153.999l-11 -9c-50.667 2 -89.667 9.33301 -117 22l-2 13c44 50.667 83.333 100.334 118 149.001c-31.333 13.333 -54 30.5 -68 51.5s-21 48.5 -21 82.5c0 30 7.66699 56.667 23 80
s37 41.666 65 54.999s59.667 20 95 20l191 -1zM188.501 364.499c-12.333 -12.333 -18.501 -29.833 -18.501 -52.5c0 -44 22 -71.333 66 -82l64 4v147l-58 3c-23.333 -0.666992 -41.166 -7.16699 -53.499 -19.5z" />
    <glyph glyph-name="uni0450" unicode="&#x450;" horiz-adv-x="471" 
d="M417 216l-269.998 -2.00195c6 -83.333 48.333 -125 127 -125c41.333 0 87.333 11.667 138 35l11 -7l-20 -99c-50.667 -18.667 -98.334 -28 -143.001 -28c-73.333 0 -130.833 21.333 -172.5 64s-62.5 101.667 -62.5 177c0 74.667 20.333 133.834 61 177.501
s95.667 65.5 165 65.5c59.333 0 105.166 -16.167 137.499 -48.5s48.5 -77.5 48.5 -135.5c0 -15.333 -1.66699 -34.666 -5 -57.999zM321.002 304.998c0 26.667 -6 46.833 -18 60.5s-29.667 20.5 -53 20.5c-26 0 -47.667 -8.5 -65 -25.5s-29 -41.5 -35 -73.5l169 4z
M361.002 569.997l-32 -50l-12 -1l-195 118l-2 13l48 72l12 1c48.667 -44.667 109 -95.667 181 -153z" />
    <glyph glyph-name="uni0451" unicode="&#x451;" horiz-adv-x="471" 
d="M417 216l-269.998 -2.00195c6 -83.333 48.333 -125 127 -125c41.333 0 87.333 11.667 138 35l11 -7l-20 -99c-50.667 -18.667 -98.334 -28 -143.001 -28c-73.333 0 -130.833 21.333 -172.5 64s-62.5 101.667 -62.5 177c0 74.667 20.333 133.834 61 177.501
s95.667 65.5 165 65.5c59.333 0 105.166 -16.167 137.499 -48.5s48.5 -77.5 48.5 -135.5c0 -15.333 -1.66699 -34.666 -5 -57.999zM321.002 304.998c0 26.667 -6 46.833 -18 60.5s-29.667 20.5 -53 20.5c-26 0 -47.667 -8.5 -65 -25.5s-29 -41.5 -35 -73.5l169 4z
M202.002 664.997c10.667 -10.667 15.998 -25.667 15.998 -45c0 -20.667 -5.83301 -37 -17.5 -49s-27.5 -18 -47.5 -18c-19.333 0 -34.333 5.33301 -45 16s-16 26 -16 46s5.83301 36 17.5 48s27.834 18 48.501 18c18.667 0 33.334 -5.33301 44.001 -16zM375 664.997
c10.667 -10.667 15.999 -25.667 15.999 -45c0 -20.667 -5.83301 -37 -17.5 -49s-27.167 -18 -46.5 -18s-34.333 5.33301 -45 16s-16 26 -16 46s5.83301 36 17.5 48s27.5 18 47.5 18c18.667 0 33.334 -5.33301 44.001 -16z" />
    <glyph glyph-name="uni0452" unicode="&#x452;" horiz-adv-x="534" 
d="M420.5 452c22.333 -12.667 38.168 -34.1699 47.501 -64.5029s14 -73.5 14 -129.5c0 -89.333 -4.33301 -159.166 -13 -209.499s-24.167 -92.666 -46.5 -126.999s-56.833 -69.833 -103.5 -106.5l-54 46v13c26 24 45.667 49.5 59 76.5s22.5 61.833 27.5 104.5
s7.5 101.667 7.5 177c0 35.333 -1.83301 62.333 -5.5 81s-10.167 31.834 -19.5 39.501s-23 11.5 -41 11.5c-32 0 -64.333 -14.333 -97 -43l-2 -116l7 -205h-132l7 193l-4 334h-64l-9 9l5 63h67l-1 93l132 10l-2 -103h125l9 -10l-5 -62h-130l-2 -128h6
c39.333 35.333 79.666 59.333 120.999 72c42 0 74.167 -6.33301 96.5 -19z" />
    <glyph glyph-name="uni0453" unicode="&#x453;" horiz-adv-x="367" 
d="M370 456l-8 -86l-105 3h-62l-4 -168l6 -205h-133l7 192l-5 273h297zM295 723l48.001 -72l-2 -13c-14.667 -9.33301 -25.667 -16 -33 -20c-83.333 -51.333 -137.333 -84 -162 -98l-13 1l-32 50c77.333 62 137.666 113 180.999 153z" />
    <glyph glyph-name="uni0454" unicode="&#x454;" horiz-adv-x="440" 
d="M85.5 51.5c-39.667 41 -59.5 98.501 -59.5 172.501c0 78.667 21.167 140 63.5 184s101.166 66 176.499 66c54 0 100.667 -8.33301 140 -25l-23 -99l-12 -5c-20.667 9.33301 -39.167 16.333 -55.5 21s-33.166 7 -50.499 7c-39.333 0 -69 -11.833 -89 -35.5
s-30 -57.834 -30 -102.501c0 -46.667 11.167 -82.667 33.5 -108s54.5 -38 96.5 -38c36.667 0 74.667 8 114 24l13 -7l-14 -97c-18 -5.33301 -39.167 -9.83301 -63.5 -13.5s-48.166 -5.5 -71.499 -5.5c-72.667 0 -128.834 20.5 -168.501 61.5zM295 224.001l-52 -33l-71 53h-4
l38 36l65 -5l65 -48z" />
    <glyph glyph-name="uni0455" unicode="&#x455;" horiz-adv-x="399" 
d="M356 450l-18.001 -98.002l-16 -5c-19.333 12.667 -38.666 22.334 -57.999 29.001s-36.333 10 -51 10c-16 0 -28.667 -4.16699 -38 -12.5s-14 -18.5 -14 -30.5c0 -14 6.16699 -25.333 18.5 -34s31.833 -18.334 58.5 -29.001s48.667 -21 66 -31
s32.166 -23.833 44.499 -41.5s18.5 -39.5 18.5 -65.5c0 -26.667 -6.83301 -51.5 -20.5 -74.5s-34.5 -41.667 -62.5 -56s-62.333 -21.5 -103 -21.5c-48 0 -97.667 10 -149 30l15 104l13 8c20.667 -17.333 43.667 -31.166 69 -41.499s47.666 -15.5 66.999 -15.5
c18 0 32 4.5 42 13.5s15 19.833 15 32.5c0 14 -6.16699 25.333 -18.5 34s-31.833 18.334 -58.5 29.001c-27.333 12 -49.666 22.833 -66.999 32.5s-32.166 23.5 -44.499 41.5s-18.5 40.333 -18.5 67c0 43.333 16.333 78.833 49 106.5s77 41.5 133 41.5
c45.333 0 88 -7.66699 128 -23z" />
    <glyph glyph-name="uni0456" unicode="&#x456;" horiz-adv-x="261" 
d="M72 192l-5 264l131 11l-6 -262l6 -205h-133zM183.5 675c11.667 -12 17.499 -28.667 17.499 -50c0 -22.667 -6.33301 -40.667 -19 -54s-30 -20 -52 -20s-38.833 6 -50.5 18s-17.5 29 -17.5 51s6.5 39.667 19.5 53s30.833 20 53.5 20c20.667 0 36.834 -6 48.501 -18z" />
    <glyph glyph-name="uni0457" unicode="&#x457;" horiz-adv-x="261" 
d="M70 192l-5 264l131 11l-6 -262l6 -205h-133zM107.5 663c9.66699 -10 14.501 -24.334 14.501 -43.001c0 -19.333 -5.33301 -34.666 -16 -45.999s-25.334 -17 -44.001 -17s-33 5 -43 15s-15 24.667 -15 44s5.5 34.5 16.5 45.5s26.167 16.5 45.5 16.5
c18 0 31.833 -5 41.5 -15zM242.001 662.999c10 -10 15.001 -24.334 15.001 -43.001c0 -19.333 -5.5 -34.666 -16.5 -45.999s-25.833 -17 -44.5 -17s-33 5.16699 -43 15.5s-15 24.833 -15 43.5c0 19.333 5.66699 34.5 17 45.5s26.666 16.5 45.999 16.5c17.333 0 31 -5 41 -15
z" />
    <glyph glyph-name="uni0458" unicode="&#x458;" horiz-adv-x="292" 
d="M226 465l-8 -260l6 -178c0 -52.667 -12.667 -96.334 -38 -131.001s-67 -65 -125 -91l-46 59v12c30 16.667 51.333 36.334 64 59.001s19 52 19 88l2 169l-4 189h-81l-8 8l7 72h84l124 7zM197.5 675c11.667 -12 17.499 -28.667 17.499 -50
c0 -22.667 -6.33301 -40.667 -19 -54s-30 -20 -52 -20s-38.833 6 -50.5 18s-17.5 29 -17.5 51s6.5 39.667 19.5 53s30.833 20 53.5 20c20.667 0 36.834 -6 48.501 -18z" />
    <glyph glyph-name="uni0459" unicode="&#x459;" horiz-adv-x="696" 
d="M647.5 262.5c27.667 -21.667 41.499 -53.168 41.499 -94.501c0 -52.667 -19.667 -93.834 -59 -123.501s-93.666 -44.5 -162.999 -44.5h-170l6 192l-3 185h-85l-3 -26c-10.667 -94.667 -22.334 -167.167 -35.001 -217.5s-28.5 -86.166 -47.5 -107.499
s-44.167 -33.666 -75.5 -36.999h-30l-19 102c22.667 7.33301 40.5 19.833 53.5 37.5s23.5 45.167 31.5 82.5s15.667 91.333 23 162l10 90l-1 2h308l-4 -170h101c52.667 0 92.834 -10.833 120.501 -32.5zM545.499 105.499c11.667 13 17.5 28.833 17.5 47.5
c0 20 -6.5 35.833 -19.5 47.5s-30.833 17.167 -53.5 16.5l-66 -1v-11l3 -122l69 -3c21.333 4 37.833 12.5 49.5 25.5z" />
    <glyph glyph-name="uni045A" unicode="&#x45a;" horiz-adv-x="752" 
d="M704 256c27.333 -21.333 41 -52.333 41 -93c0 -51.333 -19.5 -91.333 -58.5 -120s-93.167 -43 -162.5 -43h-170l6 189l-87 1l-81 -2l5 -188h-133l7 192l-5 273h131l-4 -180l86 -1h80l-3 181h130l-3 -177h101c52.667 0 92.667 -10.667 120 -32zM602.5 100.5
c11.667 11.667 17.5 26.167 17.5 43.5c0 20 -6.33301 35.333 -19 46s-30.667 15.667 -54 15l-66 -1l3 -125l69 -2c21.333 4 37.833 11.833 49.5 23.5z" />
    <glyph glyph-name="uni045B" unicode="&#x45b;" horiz-adv-x="536" 
d="M347 0l8.00195 290c0 24 -5.33301 42.333 -16 55s-26.334 19 -47.001 19c-30 0 -62 -14.333 -96 -43l-2 -116l7 -205h-133l8 193l-4 334h-64l-10 9l6 63h67l-1 93l132 10l-2 -103h125l8 -10l-4 -62h-130l-2 -128h6c38 34 78.333 58 121 72
c50.667 0 89.167 -11.5 115.5 -34.5s39.166 -56.167 38.499 -99.5l-3 -133l5 -204h-133z" />
    <glyph glyph-name="uni045C" unicode="&#x45c;" horiz-adv-x="496" 
d="M69 192l-4 264l131 11l-5 -262l4 -205h-132zM324 255c37.333 -58.667 91.666 -136.332 162.999 -232.999v-14c-23.333 -5.33301 -48.166 -9.5 -74.499 -12.5l-48.5 -5.5l-14 6c-60 85.333 -111 167.666 -153 246.999v9l118 165l24 48h138zM346 723.002l48.001 -72l-2 -13
c-14.667 -9.33301 -25.667 -16 -33 -20c-83.333 -51.333 -137.333 -84 -162 -98l-13 1l-32 50c77.333 62 137.666 113 180.999 153z" />
    <glyph glyph-name="uni045D" unicode="&#x45d;" horiz-adv-x="549" 
d="M71 192l-7 270l132 6l-5 -288h8l154 285h132l-7 -257l7 -208h-132l6 183v110h-7l-159 -293h-129zM395 571l-32 -50l-12 -1l-195 118l-2 13l48 72l12 1c48.667 -44.667 109 -95.667 181 -153z" />
    <glyph glyph-name="uni045E" unicode="&#x45e;" horiz-adv-x="452" 
d="M144 394l83.001 -259.997h8l83 249l17 82h114l-152 -434c-16 -45.333 -34 -81.833 -54 -109.5s-45 -50.334 -75 -68.001s-68.667 -32.834 -116 -45.501l-10 1c-22.667 22 -41.334 48 -56.001 78l4 13c42 7.33301 76.667 18.166 104 32.499s53.333 36.833 78 67.5
l-170 462l126 6zM396.001 631.003c-13.333 -30.667 -34.833 -54.668 -64.5 -72.001s-64.167 -26 -103.5 -26c-38.667 0 -72 8.33301 -100 25s-49.333 41 -64 73l67 46h14c8.66699 -24 19.5 -41 32.5 -51s31.167 -15 54.5 -15c22.667 0 40.167 4.83301 52.5 14.5
s22.833 26.834 31.5 51.501h13z" />
    <glyph glyph-name="uni045F" unicode="&#x45f;" horiz-adv-x="537" 
d="M466 205l5 -205h-146l-10 -135l-91 -8l-11 143h-149l7 192l-5 273h131l-6 -260l3 -108l148 -1l3 96l-5 273h132z" />
    <glyph glyph-name="uni0462" unicode="&#x462;" horiz-adv-x="657" 
d="M584.5 324c34.333 -27.333 51.501 -67.332 51.501 -119.999c0 -64.667 -24.333 -114.834 -73 -150.501s-116.667 -53.5 -204 -53.5h-190l7 191l-4 311h-30l-123 -4l-8 10l8 92h151l-1 100h136l-1 -100h203l8 -10l-9 -92l-133 4h-71l-2 -137h135
c65.333 0 115.166 -13.667 149.499 -41zM494.001 188.001c0 29.333 -8.83301 51.668 -26.5 67.001s-43.167 22.666 -76.5 21.999l-92 -2l-1 -71l3 -113l95 -4c65.333 10 98 43.667 98 101z" />
    <glyph glyph-name="uni0463" unicode="&#x463;" horiz-adv-x="509" 
d="M458.5 250.5c27.667 -21 41.498 -51.167 41.498 -90.5c0 -50 -19.667 -89.167 -59 -117.5s-93.666 -42.5 -162.999 -42.5h-169l5 192l-2 188h-13l-93 -4l-7 9l7 80h106l-2 227l131 10l-3 -237h146l7 -9l-7 -80l-92 4h-55l-1 -98h102c52.667 0 92.834 -10.5 120.501 -31.5
zM356.498 100c11.667 12.667 17.501 28 17.501 46c0 19.333 -6.33301 34.5 -19 45.5s-30.334 16.5 -53.001 16.5l-67 -2v-2l3 -126l69 -3c21.333 4 37.833 12.333 49.5 25z" />
    <glyph glyph-name="uni046A" unicode="&#x46a;" horiz-adv-x="850" 
d="M842 28l-3.00293 -14.998c-46.667 -10 -90.334 -17.667 -131.001 -23l-14 8c-46 58 -92.667 123.667 -140 197c-12.667 19.333 -23.167 32.5 -31.5 39.5s-20.166 11.833 -35.499 14.5l-1 -45l5 -204h-133l6 192l-1 56c-16.667 -2 -29.167 -6.5 -37.5 -13.5
s-18.5 -20.167 -30.5 -39.5c-33.333 -50.667 -79.666 -116.334 -138.999 -197.001l-16 -8c-45.333 5.33301 -88.666 13 -129.999 23l-2 15c48 57.333 99.667 122.666 155 195.999c26 36 47.667 62.333 65 79s37.333 28.667 60 36l-198 212v93h670v-93l-199 -212
c22.667 -7.33301 42.834 -19.333 60.501 -36s39.5 -43 65.5 -79c59.333 -78.667 111 -144 155 -196zM413.997 352.002h11h11l173 194h-368z" />
    <glyph glyph-name="uni046B" unicode="&#x46b;" horiz-adv-x="665" 
d="M575 138c33.333 -42.667 64.335 -80.667 93.002 -114l-2 -13c-41.333 -8 -80 -14 -116 -18l-12 6c-26.667 34 -58.334 78.667 -95.001 134c-7.33301 10.667 -14.333 18.5 -21 23.5s-15.334 8.83301 -26.001 11.5l-1 -19l5 -149h-135l5 138l-1 31
c-10.667 -2 -19.167 -5.66699 -25.5 -11s-13.166 -14 -20.499 -26c-10.667 -16 -28.667 -41.333 -54 -76l-17.5 -24c-7 -9.33301 -14.833 -20.333 -23.5 -33l-13 -6c-36 2.66699 -74.333 8.66699 -115 18l-2 13l110 135c21.333 28.667 39.166 49.5 53.499 62.5
s31.166 22.5 50.499 28.5l-137 134v81h515v-81l-139 -136c19.333 -6 36.833 -15.667 52.5 -29s33.834 -33.333 54.501 -60zM324.002 259h3h13l119 122h-254z" />
    <glyph glyph-name="uni0472" unicode="&#x472;" horiz-adv-x="688" 
d="M570.5 569.5c51 -55.667 76.5 -133.501 76.5 -233.501c0 -109.333 -27.667 -194.333 -83 -255s-132.333 -91 -231 -91c-92 0 -163.667 28.5 -215 85.5s-77 136.5 -77 238.5c0 106.667 27.5 189.834 82.5 249.501s132.167 89.5 231.5 89.5
c92.667 0 164.5 -27.833 215.5 -83.5zM224 500.499c-26.667 -29 -41.668 -74.5 -45.001 -136.5l328 5c-5.33301 61.333 -21.166 105.833 -47.499 133.5s-65.166 41.5 -116.499 41.5c-52.667 0 -92.334 -14.5 -119.001 -43.5zM462.499 136.499
c27 29.667 42.501 75.5 46.501 137.5l-328 -5c5.33301 -62 21.166 -107 47.499 -135s64.833 -42 115.5 -42c52 0 91.5 14.833 118.5 44.5z" />
    <glyph glyph-name="uni0473" unicode="&#x473;" horiz-adv-x="503" 
d="M420 414c37.333 -40 55.999 -97.666 55.999 -172.999c0 -80.667 -20 -142.667 -60 -186s-97.333 -65 -172 -65c-70 0 -123.667 20 -161 60s-56 97.333 -56 172c0 81.333 19.833 143.666 59.5 186.999s96.834 65 171.501 65c70.667 0 124.667 -20 162 -60z
M177.499 360.001c-15.667 -18 -24.833 -47.668 -27.5 -89.001l200 2c-4 40.667 -14 69.834 -30 87.501s-39.667 26.5 -71 26.5c-32 0 -55.833 -9 -71.5 -27zM324.5 102c15.667 18 24.833 47 27.5 87l-200 -1c4.66699 -40 15.167 -68.833 31.5 -86.5s39.833 -26.5 70.5 -26.5
c31.333 0 54.833 9 70.5 27z" />
    <glyph glyph-name="uni0474" unicode="&#x474;" horiz-adv-x="609" 
d="M17 644l138.001 0.00292969l16 -85l118 -433h8l123 386c10.667 36 22.5 63.667 35.5 83s29.333 33.166 49 41.499s45.167 12.166 76.5 11.499l17 -100l-6 -11c-18 -1.33301 -31.833 -7.33301 -41.5 -18s-19.834 -31.334 -30.501 -62.001l-148 -457h-162z" />
    <glyph glyph-name="uni0475" unicode="&#x475;" horiz-adv-x="445" 
d="M440 376l-3.99902 -9.00098c-14 -0.666992 -24.333 -4.66699 -31 -12s-13.334 -21.666 -20.001 -42.999l-100 -312h-144l-131 463l123 6l13 -77l69 -267h9l69 237c10 40.667 24.5 68.667 43.5 84s48.833 23 89.5 23z" />
    <glyph glyph-name="uni0490" unicode="&#x490;" horiz-adv-x="479" 
d="M471 752l-13 -218l-143 4h-95l-5 -334l5 -204h-135l6 192l-6 452h273l24 113z" />
    <glyph glyph-name="uni0491" unicode="&#x491;" horiz-adv-x="372" 
d="M375 575l-12 -205l-106 3h-62l-4 -168l6 -205h-133l7 192l-5 273h203l24 115z" />
    <glyph glyph-name="uni0492" unicode="&#x492;" horiz-adv-x="490" 
d="M232 538l-3 -193h147l6 -8l-3 -70h-151l-1 -63l5 -204h-136l7 192l-1 75h-61l-5 8l4 70h61l-5 299h359l8 -11l-10 -99l-139 4h-82z" />
    <glyph glyph-name="uni0493" unicode="&#x493;" horiz-adv-x="367" 
d="M195 373l-3 -116h114l5 -8l-3 -70h-116l5 -179h-133l7 179h-60l-5 8l4 70h60l-4 208h297l7 -9l-8 -86l-105 3h-62z" />
    <glyph glyph-name="uni0494" unicode="&#x494;" horiz-adv-x="599" 
d="M472 406c28.667 -15.333 49.332 -40.166 61.999 -74.499s19 -81.5 19 -141.5c0 -88 -13.667 -162.333 -41 -223s-71 -114.334 -131 -161.001l-52 53v12c34 34.667 59.167 76 75.5 124s24.5 104.333 24.5 169c0 54.667 -6.5 93.167 -19.5 115.5s-35.167 33.5 -66.5 33.5
c-43.333 0 -85.666 -19.333 -126.999 -58l-1 -51l5 -204h-136l7 192l-7 452h386l7 -11l-9 -99l-136 4h-112l-3 -184h9c36.667 35.333 79.667 60.333 129 75c49.333 0 88.333 -7.66699 117 -23z" />
    <glyph glyph-name="uni0495" unicode="&#x495;" horiz-adv-x="480" 
d="M410 258.5c24 -26.333 35.999 -71.833 35.999 -136.5c0 -65.333 -11.167 -120.5 -33.5 -165.5s-58.166 -87.5 -107.499 -127.5l-47 44v11c24 26 41.5 57.333 52.5 94s16.5 79.667 16.5 129c0 37.333 -3.5 62.666 -10.5 75.999s-20.5 20 -40.5 20c-14 0 -27.5 -3 -40.5 -9
s-27.5 -15.667 -43.5 -29l5 -165h-133l7 192l-5 273h316l8 -9l-8 -86l-91 3h-96l-3 -131h8c22.667 22.667 52.667 41.334 90 56.001c56 0 96 -13.167 120 -39.5z" />
    <glyph glyph-name="uni0496" unicode="&#x496;" horiz-adv-x="939" 
d="M922 111v-238.001l-100 -9l-18 132l-74 -3l-15 8c-82 116 -153 225.333 -213 328l-2 -125l4 -204h-133l6 192l-2 139c-50 -88 -121 -199 -213 -333l-16 -8c-49.333 6 -92.666 13.667 -129.999 23l-1 15c83.333 104 159.666 208 228.999 312l-212 304h143l35 -62l165 -236
l-4 298h136l-5 -296l165 234l34 62h144l-212 -304c46 -69.333 101.333 -145.666 166 -228.999h123z" />
    <glyph glyph-name="uni0497" unicode="&#x497;" horiz-adv-x="755" 
d="M416 205l5.00098 -205.001h-131l5 192l-1 48c-36.667 -71.333 -86.334 -152.666 -149.001 -243.999l-14 -6l-48 5.5c-26 3 -50.667 7.16699 -74 12.5v14c65.333 92 118.333 169.667 159 233l-149 210h138l23 -48l114 -162l-3 210h131zM741.001 95.999v-211l-87 -8
l-17 123h-54l-14 7c-58 81.333 -107 160 -147 236v8l120 166l24 48h138l-154 -210c34 -54 70 -107 108 -159h83z" />
    <glyph glyph-name="uni0498" unicode="&#x498;" horiz-adv-x="532" 
d="M445 65c-28.667 -31.333 -69.3311 -53 -121.998 -65l-12 -147l-100 -9l-11 146c-32 1.33301 -62.5 5.5 -91.5 12.5s-53.833 16.167 -74.5 27.5l25 113l10 5c20.667 -14.667 44.334 -26 71.001 -34s53.334 -12 80.001 -12c39.333 0 71.166 8.5 95.499 25.5
s36.5 39.5 36.5 67.5c0 20.667 -6.5 38.167 -19.5 52.5s-31.833 24.166 -56.5 29.499h-143l-8 10l8 92l134 -1c17.333 8 31.166 19.833 41.499 35.5s15.5 33.167 15.5 52.5c0 24 -8.5 41.833 -25.5 53.5s-42.833 17.5 -77.5 17.5c-48.667 0 -102.334 -13.667 -161.001 -41
l-13 7l11 113c50 24 106 36 168 36c74 0 131.833 -14.5 173.5 -43.5s62.5 -69.167 62.5 -120.5c0 -34 -8.83301 -64.5 -26.5 -91.5s-42.834 -47.833 -75.501 -62.5c85.333 -22 128 -72.333 128 -151c0 -47.333 -14.333 -86.666 -43 -117.999z" />
    <glyph glyph-name="uni0499" unicode="&#x499;" horiz-adv-x="424" 
d="M351 51c-19.333 -22 -47.334 -37.998 -84.001 -47.998l-10 -138l-91 -8l-10 135c-52 2 -94 10.333 -126 25l21 96l9 4c14.667 -8 32 -14.333 52 -19s39.667 -7 59 -7c27.333 0 49 4.66699 65 14s24 22.333 24 39c0 23.333 -14.667 39 -44 47h-111l-7 8l8 81l101 -1
c10.667 4.66699 19 11.5 25 20.5s9 19.167 9 30.5c0 14.667 -5.5 25.167 -16.5 31.5s-28.833 9.5 -53.5 9.5c-34 0 -73.667 -7 -119 -21l-11 5l9 96c38.667 13.333 80.334 20 125.001 20c59.333 0 105.333 -10.667 138 -32s49 -51.333 49 -90
c0 -24.667 -6.5 -46.334 -19.5 -65.001s-31.167 -33.334 -54.5 -44.001c31.333 -8.66699 54.5 -21.667 69.5 -39s22.5 -40 22.5 -68c0 -32.667 -9.66699 -60 -29 -82z" />
    <glyph glyph-name="uni049A" unicode="&#x49a;" horiz-adv-x="669" 
d="M651 111v-238l-100 -9l-18 132l-70 -3l-16 1c-66 88 -142.667 200.333 -230 337l-2 -127l5 -204h-136l7 192l-7 452h138l-5 -298l180 236l37 62h147l-228 -304c57.333 -80 116 -156.333 176 -229h122z" />
    <glyph glyph-name="uni049B" unicode="&#x49b;" horiz-adv-x="529" 
d="M197 467l-7 -262l6 -205h-132l6 192l-5 264zM515 96v-211.001l-86 -8l-16 123h-56l-13 7c-59.333 82.667 -108 161.334 -146 236.001v8l118 166l25 48h138l-154 -210c38 -60.667 73.667 -113.667 107 -159h83z" />
    <glyph glyph-name="uni049C" unicode="&#x49c;" horiz-adv-x="692" 
d="M675 28l-1.99902 -14.999c-30 -8.66699 -71 -16.334 -123 -23.001l-14 8c-53.333 84 -110.333 179 -171 285h-29v-141l-64 -4l-7 6v139h-48l-1 -79l5 -204h-136l7 192l-7 452h138l-4 -257h46v140l64 5l7 -7v-138h29l126 195l32 62h136l-195 -303
c63.333 -104 133.666 -208.333 210.999 -313z" />
    <glyph glyph-name="uni049D" unicode="&#x49d;" horiz-adv-x="544" 
d="M530 22l-0.000976562 -14c-22 -5.33301 -45.167 -9.5 -69.5 -12.5l-44.5 -5.5l-14 6c-43.333 75.333 -78.666 142 -105.999 200h-19v-99l-53 -3l-7 5v97h-31l5 -196h-127l6 193l-5 263l127 11l-4 -183h29v100l54 3l6 -4v-99h17l78 133l20 48h128l-125 -209
c34 -65.333 79 -143.333 135 -234z" />
    <glyph glyph-name="uni04A0" unicode="&#x4a0;" horiz-adv-x="707" 
d="M694 28l-2.00098 -15c-39.333 -10 -83.666 -17.667 -132.999 -23l-16 8c-100.667 137.333 -178 248.333 -232 333l-2 -127l6 -204h-136l6 192l-5 346h-39l-123 -4l-8 11l8 99h298l-5 -298l181 236l37 62h147l-229 -304c76.667 -106.667 159 -210.667 247 -312z" />
    <glyph glyph-name="uni04A1" unicode="&#x4a1;" horiz-adv-x="552" 
d="M247 205l5 -205h-131l5 192l-3 181h-37l-81 -3l-7 8l8 87h247zM544 22l-1.00098 -13.998c-23.333 -5.33301 -48.166 -9.5 -74.499 -12.5s-42.166 -4.83301 -47.499 -5.5l-13 6c-61.333 87.333 -113 169.666 -155 246.999v9l119 165l24 48h138l-153 -210
c43.333 -66.667 97.666 -144.334 162.999 -233.001z" />
    <glyph glyph-name="uni04A2" unicode="&#x4a2;" horiz-adv-x="745" 
d="M721 111v-238l-99 -9l-19 136h-117l6 192l-1 75l-145 1l-131 -2l-1 -62l5 -204h-135l7 192l-7 452h137l-4 -266l138 -2l135 2l-4 266h138l-7 -440l2 -93h102z" />
    <glyph glyph-name="uni04A3" unicode="&#x4a3;" horiz-adv-x="578" 
d="M554 96v-211l-88 -8l-16 123h-96l6 182l-87 1l-81 -2l5 -181h-133l7 192l-5 273h131l-4 -184l86 -1h80l-3 185h130l-5 -260l3 -109h70z" />
    <glyph glyph-name="uni04A4" unicode="&#x4a4;" horiz-adv-x="879" 
d="M868 633l-8 -99l-121 4h-116l-5 -334l5 -204h-136l6 192l-1 75l-145 1l-130 -2l-1 -62l5 -204h-136l7 192l-7 452h138l-4 -266l137 -2l135 2l-4 266h373z" />
    <glyph glyph-name="uni04A5" unicode="&#x4a5;" horiz-adv-x="658" 
d="M661 456l-8 -86l-107 3h-62l-3 -168l5 -205h-132l6 182l-87 1l-81 -2l5 -181h-133l7 192l-5 273h131l-4 -184l86 -1h80l-3 185h298z" />
    <glyph glyph-name="uni04AA" unicode="&#x4aa;" horiz-adv-x="553" 
d="M423.5 116.5c26.333 7.66699 50.167 18.1641 71.5 31.4971l12 -7l-11 -115c-34 -16 -70.333 -26.667 -109 -32l-11 -141l-100 -9l-12 153c-72.667 12.667 -128 46.334 -166 101.001s-57 127.334 -57 218.001c0 106.667 26.833 189.334 80.5 248.001s129.5 88 227.5 88
c62.667 0 119 -13 169 -39l-24 -113l-11 -5c-20 14 -42 25 -66 33s-48.667 12 -74 12c-106 0 -159 -69.667 -159 -209c0 -75.333 13.833 -131.833 41.5 -169.5s68.167 -56.5 121.5 -56.5c24.667 0 50.167 3.83301 76.5 11.5z" />
    <glyph glyph-name="uni04AB" unicode="&#x4ab;" horiz-adv-x="402" 
d="M357 120l9.99902 -7.99902l-13 -103c-21.333 -6.66699 -44.666 -11.667 -69.999 -15l-10 -129l-91 -8l-11 140c-46 11.333 -81.667 37 -107 77s-38 91 -38 153c0 77.333 19.667 137.833 59 181.5s94 65.5 164 65.5c22 0 43.833 -2.16699 65.5 -6.5
s40.834 -10.5 57.501 -18.5l-22 -106l-11 -5c-34 18.667 -64.333 28 -91 28c-30.667 0 -54.334 -11 -71.001 -33s-25 -53.333 -25 -94c0 -46.667 9 -82.334 27 -107.001s43.667 -37 77 -37c30 0 63.333 8.33301 100 25z" />
    <glyph glyph-name="uni04AE" unicode="&#x4ae;" horiz-adv-x="569" 
d="M336 179l6 -179h-135l6 179l-1 38l-205 427h144l14 -45l109 -245h9l122 241l19 49h139l-225 -422z" />
    <glyph glyph-name="uni04AF" unicode="&#x4af;" horiz-adv-x="441" 
d="M274 1l3 -186h-132l3 183l-140 464l124 6l13 -73l69 -255h8l84 248l16 77h116z" />
    <glyph glyph-name="uni04B0" unicode="&#x4b0;" horiz-adv-x="558" 
d="M449 218l7 -8l-4 -70h-118l5 -140h-135l5 140h-120l-6 8l5 70h120l-204 426h144l14 -45l109 -245h9l122 241l19 49h139l-225 -422v-4h114z" />
    <glyph glyph-name="uni04B1" unicode="&#x4b1;" horiz-adv-x="469" 
d="M398 26l6 -8l-4 -70h-108l2 -133h-132l2 133h-111l-5 8l4 70h105l-132 436l124 6l13 -73l69 -255h8l84 248l16 77h116l-155 -439h98z" />
    <glyph glyph-name="uni04B2" unicode="&#x4b2;" horiz-adv-x="674" 
d="M656 111v-238l-100 -9l-19 136h-93l-30 64l-107 167l-117 -174l-28 -57h-140l206 318l-205 326h164l30 -65l101 -157l104 162l28 60h143l-194 -307l139 -226h118z" />
    <glyph glyph-name="uni04B3" unicode="&#x4b3;" horiz-adv-x="499" 
d="M482 96v-211l-87 -8l-16 123h-67l-21 53l-65 107l-70 -113l-23 -47h-117l138 233l-135 228l142 7l21 -55l63 -104l66 108l24 47h117l-136 -228l84 -140h82z" />
    <glyph glyph-name="uni04B6" unicode="&#x4b6;" horiz-adv-x="644" 
d="M621 111v-238l-99 -9l-19 136h-118l7 192l-1 77h-10c-38 -34.667 -81 -60 -129 -76c-68.667 0 -119.5 15.5 -152.5 46.5s-49.833 78.833 -50.5 143.5l-4 261h137l-2 -225c0 -34.667 7.66699 -61.5 23 -80.5s36.666 -28.5 63.999 -28.5c38.667 0 79.334 18.667 122.001 56
l-4 278h138l-7 -440l2 -93h103z" />
    <glyph glyph-name="uni04B7" unicode="&#x4b7;" horiz-adv-x="515" 
d="M492 96l-0.000976562 -211l-88 -8l-16 123h-96l5 189h-8c-29.333 -24 -61 -42 -95 -54c-56 0 -96.667 11.333 -122 34s-38.666 58.667 -39.999 108l-3 188h131l-3 -161c-0.666992 -45.333 19 -68 59 -68c27.333 0 54 10.667 80 32l-3 197h132l-7 -260l3 -109h71z" />
    <glyph glyph-name="uni04B8" unicode="&#x4b8;" horiz-adv-x="647" 
d="M556 204l4.99805 -203.999h-135l5 192l-1 77h-9c-25.333 -20 -51.666 -36.333 -78.999 -49v-108l-63 -4l-9 7v78c-74.667 0 -130 15.5 -166 46.5s-54.333 78.833 -55 143.5l-4 261h138l-2 -225c-0.666992 -32 6.83301 -57.333 22.5 -76s37.834 -29.334 66.501 -32.001
v180l65 5l7 -7v-169c30 9.33301 59 25 87 47l-3 277h137z" />
    <glyph glyph-name="uni04B9" unicode="&#x4b9;" horiz-adv-x="529" 
d="M370 50l0.00292969 -21.001l-80 -2v22h-25l1 84v21c-22.667 -9.33301 -40.334 -15.666 -53.001 -18.999c-62.667 0 -108.334 11.333 -137.001 34s-43.334 58.667 -44.001 108l-4 188h131l-3 -161c0 -45.333 25.333 -68 76 -68c11.333 0 22.333 1 33 3l-1 163h23v22l80 2
v-23h2l-1 -77l1 -49v-101l2 -126h-1z" />
    <glyph glyph-name="uni04BA" unicode="&#x4ba;" horiz-adv-x="604" 
d="M424 0l7 224.001c0 73.333 -30 110 -90 110c-20 0 -40.833 -5 -62.5 -15s-42.5 -24.333 -62.5 -43l-1 -72l5 -204h-135l7 192l-7 452h137l-4 -269h9c37.333 34.667 80.333 60 129 76c68 0 118 -16.333 150 -49s48 -83.334 48 -152.001l5 -250h-135z" />
    <glyph glyph-name="uni04BB" unicode="&#x4bb;" horiz-adv-x="533" 
d="M352 290c0.666992 24 -4.33105 42.333 -14.998 55s-26.334 19 -47.001 19c-30 0 -62 -14.333 -96 -43l-2 -116l7 -205h-133l7 193l-6 499l133 10l-5 -303h6c36.667 33.333 77 57.333 121 72c50.667 0 89.167 -11.5 115.5 -34.5s39.166 -56.167 38.499 -99.5l-3 -133
l5 -204h-133z" />
    <glyph glyph-name="uni04C0" unicode="&#x4c0;" horiz-adv-x="307" 
d="M215 204l6 -204h-136l7 192l-7 452h138z" />
    <glyph glyph-name="uni04C1" unicode="&#x4c1;" horiz-adv-x="878" 
d="M863 28l-2 -15c-38.667 -10 -82 -17.667 -130 -23l-16 8c-85.333 123.333 -156.333 234 -213 332l-2 -126l5 -204h-133l5 192l-2 138c-49.333 -85.333 -120 -196 -212 -332l-16 -8c-47.333 5.33301 -91 13 -131 23l-1 15c88.667 111.333 165 215.333 229 312l-212 304
h144l35 -62l164 -235l-3 297h135l-5 -298l165 236l35 62h143l-211 -304c68.667 -104.667 145 -208.667 229 -312zM603 790c-15.333 -31.333 -38.832 -55.501 -70.499 -72.501s-68.834 -25.5 -111.501 -25.5c-42 0 -78.333 8.33301 -109 25s-53.667 41 -69 73l67 46h15
c8.66699 -24 20.667 -41 36 -51s36.333 -15 63 -15s47.5 4.83301 62.5 14.5s26.833 26.834 35.5 51.501h13z" />
    <glyph glyph-name="uni04C2" unicode="&#x4c2;" horiz-adv-x="712" 
d="M703 22l-1 -14.001c-24 -5.33301 -49 -9.5 -75 -12.5s-41.667 -4.83301 -47 -5.5l-14 6c-58.667 84.667 -108 165.334 -148 242.001l-1 -33l5 -205h-132l6 192l-1 49c-41.333 -79.333 -91 -161 -149 -245l-15 -6l-48 5.5c-26 3 -50.333 7.16699 -73 12.5l-1 14
c62.667 86 116 163.667 160 233l-150 210h138l23 -48l115 -163l-4 211h131l-4 -209l113 161l24 48h138l-150 -210c44 -69.333 97.333 -147 160 -233zM522 630.999c-13.333 -30.667 -34.833 -54.668 -64.5 -72.001s-64.167 -26 -103.5 -26c-38.667 0 -72 8.33301 -100 25
s-49.333 41 -64 73l67 46h14c8.66699 -24 19.5 -41 32.5 -51s31.167 -15 54.5 -15c22.667 0 40.167 4.83301 52.5 14.5s22.833 26.834 31.5 51.501h13z" />
    <glyph glyph-name="uni04CB" unicode="&#x4cb;" horiz-adv-x="608" 
d="M522 4l1 -4h-110l-17 -127l-102 -8v246h96l3 81l-1 77h-10c-38 -34.667 -81 -60 -129 -76c-68.667 0 -119.5 15.5 -152.5 46.5s-49.833 78.833 -50.5 143.5l-4 261h137l-2 -225c0 -34.667 7.66699 -61.5 23 -80.5s36.666 -28.5 63.999 -28.5
c38.667 0 79.334 18.667 122.001 56l-4 278h138l-7 -440z" />
    <glyph glyph-name="uni04CC" unicode="&#x4cc;" horiz-adv-x="488" 
d="M423 0h-93.002l-16 -115l-87 -8v212h67l3 103v4h-9c-29.333 -24 -61 -42 -95 -54c-56 0 -96.667 11.333 -122 34s-38.666 58.667 -39.999 108l-3 181h131l-3 -154c-0.666992 -45.333 19 -68 59 -68c26.667 0 53.334 10.333 80.001 31l-3 191h132l-7 -260z" />
    <glyph glyph-name="uni04CF" unicode="&#x4cf;" horiz-adv-x="266" 
d="M192 205l7 -205h-133l7 193l-6 499l133 10z" />
    <glyph glyph-name="uni04D0" unicode="&#x4d0;" horiz-adv-x="605" 
d="M589 0h-138l-16 84l-17 60l-126 3l-111 -3l-17 -53l-17 -91h-134l218 644h161zM389 249l-76 268h-9l-88 -268l86 -2zM470 790c-15.333 -31.333 -38.832 -55.501 -70.499 -72.501s-68.834 -25.5 -111.501 -25.5c-42 0 -78.333 8.33301 -109 25s-53.667 41 -69 73l67 46h15
c8.66699 -24 20.667 -41 36 -51s36.333 -15 63 -15s47.5 4.83301 62.5 14.5s26.833 26.834 35.5 51.501h13z" />
    <glyph glyph-name="uni04D1" unicode="&#x4d1;" horiz-adv-x="474" 
d="M361.5 439.5c29 -23 43.4951 -55.1689 43.4951 -96.502c0 -12 -2 -50 -6 -114c-0.666992 -18.667 -1.66699 -37.834 -3 -57.501s-2 -36.5 -2 -50.5c0 -11.333 1.66699 -19.166 5 -23.499s9.33301 -6.5 18 -6.5c6.66699 0 15.334 1.33301 26.001 4l10 -8l-12 -70
c-21.333 -14 -45.666 -22.333 -72.999 -25c-20 2 -36.667 9.16699 -50 21.5s-22.333 29.5 -27 51.5h-7c-33.333 -35.333 -67.666 -60 -102.999 -74c-48 0.666992 -85.667 13.334 -113 38.001s-41 58.334 -41 101.001c0 33.333 8.5 59.5 25.5 78.5s42.833 31.833 77.5 38.5
l153 29v41c0 43.333 -21.333 65 -64 65c-20.667 0 -42.5 -4.66699 -65.5 -14s-48.833 -24 -77.5 -44l-10 6l-15 88c28.667 18 59.334 31.833 92.001 41.5s65.334 14.5 98.001 14.5c51.333 0 91.5 -11.5 120.5 -34.5zM175.995 185.998
c-10.667 -2.66699 -18.5 -7.16699 -23.5 -13.5s-7.5 -15.833 -7.5 -28.5c0 -17.333 4.66699 -30.833 14 -40.5s22.333 -14.5 39 -14.5c26 0 53.333 15.333 82 46l2 74zM395.995 630.998c-13.333 -30.667 -34.833 -54.668 -64.5 -72.001s-64.167 -26 -103.5 -26
c-38.667 0 -72 8.33301 -100 25s-49.333 41 -64 73l67 46h14c8.66699 -24 19.5 -41 32.5 -51s31.167 -15 54.5 -15c22.667 0 40.167 4.83301 52.5 14.5s22.833 26.834 31.5 51.501h13z" />
    <glyph glyph-name="uni04D2" unicode="&#x4d2;" horiz-adv-x="605" 
d="M589 0h-138l-16 84l-17 60l-126 3l-111 -3l-17 -53l-17 -91h-134l218 644h161zM389 249l-76 268h-9l-88 -268l86 -2zM267 845c10.667 -10.667 15.998 -25.667 15.998 -45c0 -20.667 -5.83301 -37 -17.5 -49s-27.5 -18 -47.5 -18c-19.333 0 -34.333 5.33301 -45 16
s-16 26 -16 46s5.83301 36 17.5 48s27.834 18 48.501 18c18.667 0 33.334 -5.33301 44.001 -16zM439.998 845c10.667 -10.667 15.999 -25.667 15.999 -45c0 -20.667 -5.83301 -37 -17.5 -49s-27.167 -18 -46.5 -18s-34.333 5.33301 -45 16s-16 26 -16 46s5.83301 36 17.5 48
s27.5 18 47.5 18c18.667 0 33.334 -5.33301 44.001 -16z" />
    <glyph glyph-name="uni04D3" unicode="&#x4d3;" horiz-adv-x="474" 
d="M361.5 439.5c29 -23 43.4951 -55.1689 43.4951 -96.502c0 -12 -2 -50 -6 -114c-0.666992 -18.667 -1.66699 -37.834 -3 -57.501s-2 -36.5 -2 -50.5c0 -11.333 1.66699 -19.166 5 -23.499s9.33301 -6.5 18 -6.5c6.66699 0 15.334 1.33301 26.001 4l10 -8l-12 -70
c-21.333 -14 -45.666 -22.333 -72.999 -25c-20 2 -36.667 9.16699 -50 21.5s-22.333 29.5 -27 51.5h-7c-33.333 -35.333 -67.666 -60 -102.999 -74c-48 0.666992 -85.667 13.334 -113 38.001s-41 58.334 -41 101.001c0 33.333 8.5 59.5 25.5 78.5s42.833 31.833 77.5 38.5
l153 29v41c0 43.333 -21.333 65 -64 65c-20.667 0 -42.5 -4.66699 -65.5 -14s-48.833 -24 -77.5 -44l-10 6l-15 88c28.667 18 59.334 31.833 92.001 41.5s65.334 14.5 98.001 14.5c51.333 0 91.5 -11.5 120.5 -34.5zM175.995 185.998
c-10.667 -2.66699 -18.5 -7.16699 -23.5 -13.5s-7.5 -15.833 -7.5 -28.5c0 -17.333 4.66699 -30.833 14 -40.5s22.333 -14.5 39 -14.5c26 0 53.333 15.333 82 46l2 74zM191.995 665.998c10.667 -10.667 15.998 -25.667 15.998 -45c0 -20.667 -5.83301 -37 -17.5 -49
s-27.5 -18 -47.5 -18c-19.333 0 -34.333 5.33301 -45 16s-16 26 -16 46s5.83301 36 17.5 48s27.834 18 48.501 18c18.667 0 33.334 -5.33301 44.001 -16zM364.993 665.998c10.667 -10.667 15.999 -25.667 15.999 -45c0 -20.667 -5.83301 -37 -17.5 -49
s-27.167 -18 -46.5 -18s-34.333 5.33301 -45 16s-16 26 -16 46s5.83301 36 17.5 48s27.5 18 47.5 18c18.667 0 33.334 -5.33301 44.001 -16z" />
    <glyph glyph-name="uni04D4" unicode="&#x4d4;" horiz-adv-x="856" 
d="M838 101l-9 -101h-389l-5 84l-17 137l-212 -56l-35 -74l-30 -91h-135l310 644h440l9 -11l-11 -101l-155 5h-88l22 -181l194 50l10 -8l11 -95l-203 -48l18 -149h102l165 6zM406 323l-24 194h-9l-109 -231z" />
    <glyph glyph-name="uni04D5" unicode="&#x4d5;" horiz-adv-x="696" 
d="M620 423.5c31.333 -33 46.9971 -79.8359 46.9971 -140.503c0 -10 -0.333008 -17.667 -1 -23l-13 -16l-266 -31c3.33301 -42.667 14.333 -74.167 33 -94.5s47 -30.5 85 -30.5c20 0 41.5 3 64.5 9s45.167 15 66.5 27l11 -7l-19 -97
c-20 -9.33301 -42.167 -16.666 -66.5 -21.999s-46.833 -8 -67.5 -8c-38.667 0 -72.667 7.16699 -102 21.5s-53 35.833 -71 64.5c-36.667 -38.667 -78.334 -67 -125.001 -85c-51.333 0.666992 -92.333 12.834 -123 36.501s-46 57.167 -46 100.5
c0 32.667 8.83301 59.834 26.5 81.501s43.167 34.5 76.5 38.5l150 16v53c0 22 -5.16699 38.333 -15.5 49s-26.166 16 -47.499 16c-39.333 0 -86.666 -19.667 -141.999 -59l-9 6l-16 90c28 18 57.833 31.667 89.5 41s62.834 14 93.501 14c57.333 0 98 -17.667 122 -53
c17.333 16.667 37.833 29.5 61.5 38.5s48.834 13.5 75.501 13.5c54 0 96.667 -16.5 128 -49.5zM412.997 354.497c-18 -20.333 -27.001 -45.5 -27.001 -75.5v-1l163 23c0.666992 28.667 -5.16602 50 -17.499 64s-29.833 21 -52.5 21c-26 -0.666992 -48 -11.167 -66 -31.5z
M238.996 100.497c12.667 7 29.333 19.834 50 38.501c-4.66699 25.333 -7.33398 45 -8.00098 59l-96 -14c-14 -2.66699 -24 -7.33398 -30 -14.001s-9 -16 -9 -28c0 -16.667 4.83301 -29.5 14.5 -38.5s22.834 -13.5 39.501 -13.5c13.333 0 26.333 3.5 39 10.5z" />
    <glyph glyph-name="uni04D6" unicode="&#x4d6;" horiz-adv-x="545" 
d="M490 112l8 -11l-9 -101h-404l7 192l-7 452h408l8 -11l-10 -101l-154 5l-116 -1l-3 -155l111 -2l105 3l8 -10l-9 -101l-114 3l-103 -1l-1 -69l3 -97l113 -1zM453 790c-15.333 -31.333 -38.832 -55.501 -70.499 -72.501s-68.834 -25.5 -111.501 -25.5
c-42 0 -78.333 8.33301 -109 25s-53.667 41 -69 73l67 46h15c8.66699 -24 20.667 -41 36 -51s36.333 -15 63 -15s47.5 4.83301 62.5 14.5s26.833 26.834 35.5 51.501h13z" />
    <glyph glyph-name="uni04D7" unicode="&#x4d7;" horiz-adv-x="471" 
d="M417 216l-269.998 -2.00195c6 -83.333 48.333 -125 127 -125c41.333 0 87.333 11.667 138 35l11 -7l-20 -99c-50.667 -18.667 -98.334 -28 -143.001 -28c-73.333 0 -130.833 21.333 -172.5 64s-62.5 101.667 -62.5 177c0 74.667 20.333 133.834 61 177.501
s95.667 65.5 165 65.5c59.333 0 105.166 -16.167 137.499 -48.5s48.5 -77.5 48.5 -135.5c0 -15.333 -1.66699 -34.666 -5 -57.999zM321.002 304.998c0 26.667 -6 46.833 -18 60.5s-29.667 20.5 -53 20.5c-26 0 -47.667 -8.5 -65 -25.5s-29 -41.5 -35 -73.5l169 4z
M406.002 629.997c-13.333 -30.667 -34.833 -54.668 -64.5 -72.001s-64.167 -26 -103.5 -26c-38.667 0 -72 8.33301 -100 25s-49.333 41 -64 73l67 46h14c8.66699 -24 19.5 -41 32.5 -51s31.167 -15 54.5 -15c22.667 0 40.167 4.83301 52.5 14.5s22.833 26.834 31.5 51.501
h13z" />
    <glyph glyph-name="uni04D8" unicode="&#x4d8;" horiz-adv-x="641" 
d="M456.5 611.5c46.333 -26.333 81.832 -64.1689 106.499 -113.502s37 -107.666 37 -174.999s-12.167 -126 -36.5 -176s-59.166 -88.5 -104.499 -115.5s-98.333 -40.5 -159 -40.5c-52 0 -97.833 10.167 -137.5 30.5s-70.5 48.833 -92.5 85.5s-33 79.334 -33 128.001
c0 20 2.33301 45 7 75l18 21l402 2c-4.66699 136.667 -66.667 205 -186 205c-64 0 -128.667 -17.333 -194 -52l-14 10l23 112c63.333 28.667 129.333 43 198 43c64 0 119.167 -13.167 165.5 -39.5zM404.999 131.997c26.667 26.667 44.332 64.667 52.999 114l-287 -5l-2 -21
c0 -39.333 12 -70.5 36 -93.5s56 -34.5 96 -34.5c42.667 0 77.334 13.333 104.001 40z" />
    <glyph glyph-name="uni04D9" unicode="&#x4d9;" horiz-adv-x="471" 
d="M383.5 411c41.667 -42.667 62.498 -101.665 62.498 -176.998c0 -74.667 -20.333 -133.834 -61 -177.501s-95.667 -65.5 -165 -65.5c-59.333 0 -105.166 16.167 -137.499 48.5s-48.5 77.5 -48.5 135.5c0 15.333 1.66699 34.666 5 57.999l15 16l270 2
c-6 83.333 -48.333 125 -127 125c-41.333 0 -87.333 -11.667 -138 -35l-11 7l20 99c50.667 18.667 98.334 28 143.001 28c73.333 0 130.833 -21.333 172.5 -64zM286.498 104.502c17 17 28.5 41.501 34.5 73.501l-169 -4l-2 -14c0 -26.667 6 -46.834 18 -60.501
s29.667 -20.5 53 -20.5c26.667 0 48.5 8.5 65.5 25.5z" />
    <glyph glyph-name="uni04DC" unicode="&#x4dc;" horiz-adv-x="878" 
d="M863 28l-2 -15c-38.667 -10 -82 -17.667 -130 -23l-16 8c-85.333 123.333 -156.333 234 -213 332l-2 -126l5 -204h-133l5 192l-2 138c-49.333 -85.333 -120 -196 -212 -332l-16 -8c-47.333 5.33301 -91 13 -131 23l-1 15c88.667 111.333 165 215.333 229 312l-212 304
h144l35 -62l164 -235l-3 297h135l-5 -298l165 236l35 62h143l-211 -304c68.667 -104.667 145 -208.667 229 -312zM400 845c10.667 -10.667 15.998 -25.667 15.998 -45c0 -20.667 -5.83301 -37 -17.5 -49s-27.5 -18 -47.5 -18c-19.333 0 -34.333 5.33301 -45 16
s-16 26 -16 46s5.83301 36 17.5 48s27.834 18 48.501 18c18.667 0 33.334 -5.33301 44.001 -16zM572.998 845c10.667 -10.667 15.999 -25.667 15.999 -45c0 -20.667 -5.83301 -37 -17.5 -49s-27.167 -18 -46.5 -18s-34.333 5.33301 -45 16s-16 26 -16 46s5.83301 36 17.5 48
s27.5 18 47.5 18c18.667 0 33.334 -5.33301 44.001 -16z" />
    <glyph glyph-name="uni04DD" unicode="&#x4dd;" horiz-adv-x="712" 
d="M703 22l-1 -14.001c-24 -5.33301 -49 -9.5 -75 -12.5s-41.667 -4.83301 -47 -5.5l-14 6c-58.667 84.667 -108 165.334 -148 242.001l-1 -33l5 -205h-132l6 192l-1 49c-41.333 -79.333 -91 -161 -149 -245l-15 -6l-48 5.5c-26 3 -50.333 7.16699 -73 12.5l-1 14
c62.667 86 116 163.667 160 233l-150 210h138l23 -48l115 -163l-4 211h131l-4 -209l113 161l24 48h138l-150 -210c44 -69.333 97.333 -147 160 -233zM318 665.999c10.667 -10.667 15.998 -25.667 15.998 -45c0 -20.667 -5.83301 -37 -17.5 -49s-27.5 -18 -47.5 -18
c-19.333 0 -34.333 5.33301 -45 16s-16 26 -16 46s5.83301 36 17.5 48s27.834 18 48.501 18c18.667 0 33.334 -5.33301 44.001 -16zM490.998 665.999c10.667 -10.667 15.999 -25.667 15.999 -45c0 -20.667 -5.83301 -37 -17.5 -49s-27.167 -18 -46.5 -18
s-34.333 5.33301 -45 16s-16 26 -16 46s5.83301 36 17.5 48s27.5 18 47.5 18c18.667 0 33.334 -5.33301 44.001 -16z" />
    <glyph glyph-name="uni04DE" unicode="&#x4de;" horiz-adv-x="530" 
d="M487 183c0 -60.667 -23.498 -107.999 -70.498 -141.999s-112.5 -51 -196.5 -51c-36 0 -70.333 3.5 -103 10.5s-60.667 16.833 -84 29.5l25 113l10 5c20.667 -14.667 44.334 -26 71.001 -34s53.334 -12 80.001 -12c39.333 0 71.166 8.5 95.499 25.5s36.5 39.5 36.5 67.5
c0 20.667 -6.5 38.167 -19.5 52.5s-31.833 24.166 -56.5 29.499h-143l-8 10l8 92l134 -1c17.333 8 31.166 19.833 41.499 35.5s15.5 33.167 15.5 52.5c0 24 -8.5 41.833 -25.5 53.5s-42.833 17.5 -77.5 17.5c-48.667 0 -102.334 -13.667 -161.001 -41l-13 7l11 113
c50 24 106 36 168 36c74 0 131.833 -14.5 173.5 -43.5s62.5 -69.167 62.5 -120.5c0 -34 -8.83301 -64.5 -26.5 -91.5s-42.834 -47.833 -75.501 -62.5c85.333 -22 128 -72.333 128 -151zM226.002 845.001c10.667 -10.667 15.998 -25.667 15.998 -45
c0 -20.667 -5.83301 -37 -17.5 -49s-27.5 -18 -47.5 -18c-19.333 0 -34.333 5.33301 -45 16s-16 26 -16 46s5.83301 36 17.5 48s27.834 18 48.501 18c18.667 0 33.334 -5.33301 44.001 -16zM399 845.001c10.667 -10.667 15.999 -25.667 15.999 -45
c0 -20.667 -5.83301 -37 -17.5 -49s-27.167 -18 -46.5 -18s-34.333 5.33301 -45 16s-16 26 -16 46s5.83301 36 17.5 48s27.5 18 47.5 18c18.667 0 33.334 -5.33301 44.001 -16z" />
    <glyph glyph-name="uni04DF" unicode="&#x4df;" horiz-adv-x="410" 
d="M358.5 201c15 -17.333 22.5 -39.9971 22.5 -67.9971c0 -44.667 -18.167 -79.334 -54.5 -104.001s-87.5 -37 -153.5 -37c-27.333 0 -53.5 2.16699 -78.5 6.5s-46.167 10.5 -63.5 18.5l21 96l9 4c14.667 -8 32 -14.333 52 -19s39.667 -7 59 -7c27.333 0 49 4.66699 65 14
s24 22.333 24 39c0 23.333 -14.667 39 -44 47h-111l-7 8l8 81l101 -1c10.667 4.66699 19 11.5 25 20.5s9 19.167 9 30.5c0 14.667 -5.5 25.167 -16.5 31.5s-28.833 9.5 -53.5 9.5c-34.667 0 -74.334 -7 -119.001 -21l-11 5l9 96c38.667 13.333 80.334 20 125.001 20
c59.333 0 105.333 -10.667 138 -32s49 -51.333 49 -90c0 -24.667 -6.5 -46.334 -19.5 -65.001s-31.167 -33.334 -54.5 -44.001c31.333 -8.66699 54.5 -21.667 69.5 -39zM170 665.003c10.667 -10.667 15.998 -25.667 15.998 -45c0 -20.667 -5.83301 -37 -17.5 -49
s-27.5 -18 -47.5 -18c-19.333 0 -34.333 5.33301 -45 16s-16 26 -16 46s5.83301 36 17.5 48s27.834 18 48.501 18c18.667 0 33.334 -5.33301 44.001 -16zM342.998 665.003c10.667 -10.667 15.999 -25.667 15.999 -45c0 -20.667 -5.83301 -37 -17.5 -49
s-27.167 -18 -46.5 -18s-34.333 5.33301 -45 16s-16 26 -16 46s5.83301 36 17.5 48s27.5 18 47.5 18c18.667 0 33.334 -5.33301 44.001 -16z" />
    <glyph glyph-name="uni04E2" unicode="&#x4e2;" horiz-adv-x="712" 
d="M91 192l-7 448l138 7l-9 -441h10l261 438h144l-7 -440l5 -204h-136l6 192l1 246h-9l-263 -438h-141zM504 830l-6 -74h-280l-9 9l6 74h280z" />
    <glyph glyph-name="uni04E3" unicode="&#x4e3;" horiz-adv-x="549" 
d="M71 192l-7 270l132 6l-5 -288h8l154 285h132l-7 -257l7 -208h-132l6 183v110h-7l-159 -293h-129zM422 651l-6 -74h-280l-9 9l6 74h280z" />
    <glyph glyph-name="uni04E4" unicode="&#x4e4;" horiz-adv-x="712" 
d="M91 192l-7 448l138 7l-9 -441h10l261 438h144l-7 -440l5 -204h-136l6 192l1 246h-9l-263 -438h-141zM318 845c10.667 -10.667 15.998 -25.667 15.998 -45c0 -20.667 -5.83301 -37 -17.5 -49s-27.5 -18 -47.5 -18c-19.333 0 -34.333 5.33301 -45 16s-16 26 -16 46
s5.83301 36 17.5 48s27.834 18 48.501 18c18.667 0 33.334 -5.33301 44.001 -16zM490.998 845c10.667 -10.667 15.999 -25.667 15.999 -45c0 -20.667 -5.83301 -37 -17.5 -49s-27.167 -18 -46.5 -18s-34.333 5.33301 -45 16s-16 26 -16 46s5.83301 36 17.5 48
s27.5 18 47.5 18c18.667 0 33.334 -5.33301 44.001 -16z" />
    <glyph glyph-name="uni04E5" unicode="&#x4e5;" horiz-adv-x="549" 
d="M71 192l-7 270l132 6l-5 -288h8l154 285h132l-7 -257l7 -208h-132l6 183v110h-7l-159 -293h-129zM236 666c10.667 -10.667 15.998 -25.667 15.998 -45c0 -20.667 -5.83301 -37 -17.5 -49s-27.5 -18 -47.5 -18c-19.333 0 -34.333 5.33301 -45 16s-16 26 -16 46
s5.83301 36 17.5 48s27.834 18 48.501 18c18.667 0 33.334 -5.33301 44.001 -16zM408.998 666c10.667 -10.667 15.999 -25.667 15.999 -45c0 -20.667 -5.83301 -37 -17.5 -49s-27.167 -18 -46.5 -18s-34.333 5.33301 -45 16s-16 26 -16 46s5.83301 36 17.5 48
s27.5 18 47.5 18c18.667 0 33.334 -5.33301 44.001 -16z" />
    <glyph glyph-name="uni04E6" unicode="&#x4e6;" horiz-adv-x="671" 
d="M556.5 570.5c49 -55 73.499 -133.167 73.499 -234.5c0 -110.667 -26.667 -196 -80 -256s-128.666 -90 -225.999 -90c-90 0 -159.5 28.167 -208.5 84.5s-73.5 136.166 -73.5 239.499c0 108.667 26.5 192.334 79.5 251.001s128.167 88 225.5 88
c90.667 0 160.5 -27.5 209.5 -82.5zM218.999 494c-24 -33.333 -36 -87.668 -36 -163.001c0 -86 11.833 -147.333 35.5 -184s62.834 -55 117.501 -55c53.333 0 92 16.833 116 50.5s36 88.834 36 165.501c0 84.667 -11.833 145.167 -35.5 181.5s-62.834 54.5 -117.501 54.5
c-53.333 0 -92 -16.667 -116 -50zM296.999 844.998c10.667 -10.667 15.998 -25.667 15.998 -45c0 -20.667 -5.83301 -37 -17.5 -49s-27.5 -18 -47.5 -18c-19.333 0 -34.333 5.33301 -45 16s-16 26 -16 46s5.83301 36 17.5 48s27.834 18 48.501 18
c18.667 0 33.334 -5.33301 44.001 -16zM469.997 844.998c10.667 -10.667 15.999 -25.667 15.999 -45c0 -20.667 -5.83301 -37 -17.5 -49s-27.167 -18 -46.5 -18s-34.333 5.33301 -45 16s-16 26 -16 46s5.83301 36 17.5 48s27.5 18 47.5 18
c18.667 0 33.334 -5.33301 44.001 -16z" />
    <glyph glyph-name="uni04E7" unicode="&#x4e7;" horiz-adv-x="491" 
d="M409 414c36 -40 54 -97.667 54 -173c0 -81.333 -19.333 -143.5 -58 -186.5s-94.334 -64.5 -167.001 -64.5c-68 0 -120 20 -156 60s-54 97.667 -54 173c0 81.333 19.333 143.5 58 186.5s94.334 64.5 167.001 64.5c68 0 120 -20 156 -60zM174.5 352
c-14.333 -21.333 -21.5 -55.667 -21.5 -103c0 -61.333 7.33301 -105 22 -131s38.667 -39 72 -39c32 0 55.167 10.5 69.5 31.5s21.5 55.5 21.5 103.5c0 60.667 -7.5 104.167 -22.5 130.5s-38.833 39.5 -71.5 39.5c-32 0 -55.167 -10.667 -69.5 -32zM208 665.999
c10.667 -10.667 15.998 -25.667 15.998 -45c0 -20.667 -5.83301 -37 -17.5 -49s-27.5 -18 -47.5 -18c-19.333 0 -34.333 5.33301 -45 16s-16 26 -16 46s5.83301 36 17.5 48s27.834 18 48.501 18c18.667 0 33.334 -5.33301 44.001 -16zM380.998 665.999
c10.667 -10.667 15.999 -25.667 15.999 -45c0 -20.667 -5.83301 -37 -17.5 -49s-27.167 -18 -46.5 -18s-34.333 5.33301 -45 16s-16 26 -16 46s5.83301 36 17.5 48s27.5 18 47.5 18c18.667 0 33.334 -5.33301 44.001 -16z" />
    <glyph glyph-name="uni04E8" unicode="&#x4e8;" horiz-adv-x="688" 
d="M570.5 569.5c51 -55.667 76.5 -133.501 76.5 -233.501c0 -109.333 -27.667 -194.333 -83 -255s-132.333 -91 -231 -91c-92 0 -163.667 28.5 -215 85.5s-77 136.5 -77 238.5c0 106.667 27.5 189.834 82.5 249.501s132.167 89.5 231.5 89.5
c92.667 0 164.5 -27.833 215.5 -83.5zM224 500.499c-26.667 -29 -41.668 -74.5 -45.001 -136.5l328 5c-5.33301 61.333 -21.166 105.833 -47.499 133.5s-65.166 41.5 -116.499 41.5c-52.667 0 -92.334 -14.5 -119.001 -43.5zM462.499 136.499
c27 29.667 42.501 75.5 46.501 137.5l-328 -5c5.33301 -62 21.166 -107 47.499 -135s64.833 -42 115.5 -42c52 0 91.5 14.833 118.5 44.5z" />
    <glyph glyph-name="uni04E9" unicode="&#x4e9;" horiz-adv-x="503" 
d="M420 414c37.333 -40 55.999 -97.666 55.999 -172.999c0 -80.667 -20 -142.667 -60 -186s-97.333 -65 -172 -65c-70 0 -123.667 20 -161 60s-56 97.333 -56 172c0 81.333 19.833 143.666 59.5 186.999s96.834 65 171.501 65c70.667 0 124.667 -20 162 -60z
M177.499 360.001c-15.667 -18 -24.833 -47.668 -27.5 -89.001l200 2c-4 40.667 -14 69.834 -30 87.501s-39.667 26.5 -71 26.5c-32 0 -55.833 -9 -71.5 -27zM324.5 102c15.667 18 24.833 47 27.5 87l-200 -1c4.66699 -40 15.167 -68.833 31.5 -86.5s39.833 -26.5 70.5 -26.5
c31.333 0 54.833 9 70.5 27z" />
    <glyph glyph-name="uni04EE" unicode="&#x4ee;" horiz-adv-x="588" 
d="M578 643l-179.001 -438c-26.667 -58.667 -51.5 -102.5 -74.5 -131.5s-50.167 -49.5 -81.5 -61.5s-73.666 -19 -126.999 -21l-10 1c-11.333 34 -19 69.667 -23 107l5 12c47.333 4.66699 83 10.167 107 16.5s43.333 15.833 58 28.5l-241 487l145 1l25 -70l126 -283h12
l106 290l19 62h133zM441.999 830l-6 -74h-280l-9 9l6 74h280z" />
    <glyph glyph-name="uni04EF" unicode="&#x4ef;" horiz-adv-x="452" 
d="M144 394l83.001 -259.997h8l83 249l17 82h114l-152 -434c-16 -45.333 -34 -81.833 -54 -109.5s-45 -50.334 -75 -68.001s-68.667 -32.834 -116 -45.501l-10 1c-22.667 22 -41.334 48 -56.001 78l4 13c42 7.33301 76.667 18.166 104 32.499s53.333 36.833 78 67.5
l-170 462l126 6zM378.001 651.003l-6 -74h-280l-9 9l6 74h280z" />
    <glyph glyph-name="uni04F0" unicode="&#x4f0;" horiz-adv-x="588" 
d="M578 643l-179.001 -438c-26.667 -58.667 -51.5 -102.5 -74.5 -131.5s-50.167 -49.5 -81.5 -61.5s-73.666 -19 -126.999 -21l-10 1c-11.333 34 -19 69.667 -23 107l5 12c47.333 4.66699 83 10.167 107 16.5s43.333 15.833 58 28.5l-241 487l145 1l25 -70l126 -283h12
l106 290l19 62h133zM255.999 845c10.667 -10.667 15.998 -25.667 15.998 -45c0 -20.667 -5.83301 -37 -17.5 -49s-27.5 -18 -47.5 -18c-19.333 0 -34.333 5.33301 -45 16s-16 26 -16 46s5.83301 36 17.5 48s27.834 18 48.501 18c18.667 0 33.334 -5.33301 44.001 -16z
M428.997 845c10.667 -10.667 15.999 -25.667 15.999 -45c0 -20.667 -5.83301 -37 -17.5 -49s-27.167 -18 -46.5 -18s-34.333 5.33301 -45 16s-16 26 -16 46s5.83301 36 17.5 48s27.5 18 47.5 18c18.667 0 33.334 -5.33301 44.001 -16z" />
    <glyph glyph-name="uni04F1" unicode="&#x4f1;" horiz-adv-x="452" 
d="M144 394l83.001 -259.997h8l83 249l17 82h114l-152 -434c-16 -45.333 -34 -81.833 -54 -109.5s-45 -50.334 -75 -68.001s-68.667 -32.834 -116 -45.501l-10 1c-22.667 22 -41.334 48 -56.001 78l4 13c42 7.33301 76.667 18.166 104 32.499s53.333 36.833 78 67.5
l-170 462l126 6zM192.001 666.003c10.667 -10.667 15.998 -25.667 15.998 -45c0 -20.667 -5.83301 -37 -17.5 -49s-27.5 -18 -47.5 -18c-19.333 0 -34.333 5.33301 -45 16s-16 26 -16 46s5.83301 36 17.5 48s27.834 18 48.501 18c18.667 0 33.334 -5.33301 44.001 -16z
M364.999 666.003c10.667 -10.667 15.999 -25.667 15.999 -45c0 -20.667 -5.83301 -37 -17.5 -49s-27.167 -18 -46.5 -18s-34.333 5.33301 -45 16s-16 26 -16 46s5.83301 36 17.5 48s27.5 18 47.5 18c18.667 0 33.334 -5.33301 44.001 -16z" />
    <glyph glyph-name="uni04F2" unicode="&#x4f2;" horiz-adv-x="588" 
d="M578 643l-179.001 -438c-26.667 -58.667 -51.5 -102.5 -74.5 -131.5s-50.167 -49.5 -81.5 -61.5s-73.666 -19 -126.999 -21l-10 1c-11.333 34 -19 69.667 -23 107l5 12c47.333 4.66699 83 10.167 107 16.5s43.333 15.833 58 28.5l-241 487l145 1l25 -70l126 -283h12
l106 290l19 62h133zM176.999 769l89 114.001l11 2l60 -40l2 -11c-36.667 -36.667 -78 -75.334 -124 -116.001l-12 -3l-42 34zM328.999 765.001c41.333 52 71.667 91.333 91 118l11 2l62 -40l1 -11c-40 -39.333 -81.667 -78 -125 -116l-11 -3l-42 34z" />
    <glyph glyph-name="uni04F3" unicode="&#x4f3;" horiz-adv-x="452" 
d="M144 394l83.001 -259.997h8l83 249l17 82h114l-152 -434c-16 -45.333 -34 -81.833 -54 -109.5s-45 -50.334 -75 -68.001s-68.667 -32.834 -116 -45.501l-10 1c-22.667 22 -41.334 48 -56.001 78l4 13c42 7.33301 76.667 18.166 104 32.499s53.333 36.833 78 67.5
l-170 462l126 6zM206.001 726.003l10 2l61 -44l1 -10c-36.667 -41.333 -84.667 -91.666 -144 -150.999l-12 -3l-41 34c46 59.333 87.667 116.666 125 171.999zM358.001 726.003l11 1.99902l61 -44l1 -10c-36.667 -41.333 -84.667 -91.666 -144 -150.999l-12 -3l-41 34
c48.667 64.667 90 122 124 172z" />
    <glyph glyph-name="uni04F4" unicode="&#x4f4;" horiz-adv-x="608" 
d="M517 204l5 -204h-136l7 192l-1 77h-10c-38 -34.667 -81 -60 -129 -76c-68.667 0 -119.5 15.5 -152.5 46.5s-49.833 78.833 -50.5 143.5l-4 261h137l-2 -225c0 -34.667 7.66699 -61.5 23 -80.5s36.666 -28.5 63.999 -28.5c38.667 0 79.334 18.667 122.001 56l-4 278h138z
M244 845c10.667 -10.667 15.998 -25.667 15.998 -45c0 -20.667 -5.83301 -37 -17.5 -49s-27.5 -18 -47.5 -18c-19.333 0 -34.333 5.33301 -45 16s-16 26 -16 46s5.83301 36 17.5 48s27.834 18 48.501 18c18.667 0 33.334 -5.33301 44.001 -16zM416.998 845
c10.667 -10.667 15.999 -25.667 15.999 -45c0 -20.667 -5.83301 -37 -17.5 -49s-27.167 -18 -46.5 -18s-34.333 5.33301 -45 16s-16 26 -16 46s5.83301 36 17.5 48s27.5 18 47.5 18c18.667 0 33.334 -5.33301 44.001 -16z" />
    <glyph glyph-name="uni04F5" unicode="&#x4f5;" horiz-adv-x="489" 
d="M418 205l5.99902 -205h-132l5 189h-8c-29.333 -24 -61 -42 -95 -54c-56 0 -96.667 11.333 -122 34s-38.666 58.667 -39.999 108l-3 188h131l-3 -161c-0.666992 -45.333 19 -68 59 -68c27.333 0 54 10.667 80 32l-3 197h132zM183.999 666
c10.667 -10.667 15.998 -25.667 15.998 -45c0 -20.667 -5.83301 -37 -17.5 -49s-27.5 -18 -47.5 -18c-19.333 0 -34.333 5.33301 -45 16s-16 26 -16 46s5.83301 36 17.5 48s27.834 18 48.501 18c18.667 0 33.334 -5.33301 44.001 -16zM356.997 666
c10.667 -10.667 15.999 -25.667 15.999 -45c0 -20.667 -5.83301 -37 -17.5 -49s-27.167 -18 -46.5 -18s-34.333 5.33301 -45 16s-16 26 -16 46s5.83301 36 17.5 48s27.5 18 47.5 18c18.667 0 33.334 -5.33301 44.001 -16z" />
    <glyph glyph-name="uni04F6" unicode="&#x4f6;" horiz-adv-x="477" 
d="M215 204l2 -93h104v-238l-99 -9l-19 136h-119l7 192l-7 452h359l8 -11l-10 -99l-139 4h-82z" />
    <glyph glyph-name="uni04F7" unicode="&#x4f7;" horiz-adv-x="375" 
d="M191 205l3 -109h70v-211l-88 -8l-16 123h-96l7 192l-5 273h297l7 -9l-8 -86l-105 3h-62z" />
    <glyph glyph-name="uni04F8" unicode="&#x4f8;" horiz-adv-x="803" 
d="M458 351.5c32 -30.333 48 -73.833 48 -130.5c0 -69.333 -23 -123.5 -69 -162.5s-110 -58.5 -192 -58.5h-178l7 191l-7 453h137l-4 -247h120c60 0 106 -15.167 138 -45.5zM711 204l6 -204h-136l7 192l-7 452h138zM344 130.5c14.667 19 22 43.167 22 72.5
c0 31.333 -7.83301 55.5 -23.5 72.5s-38.167 25.5 -67.5 25.5l-76 -2l-2 -95l3 -106l81 -4c27.333 5.33301 48.333 17.5 63 36.5zM363 845c10.667 -10.667 15.998 -25.667 15.998 -45c0 -20.667 -5.83301 -37 -17.5 -49s-27.5 -18 -47.5 -18
c-19.333 0 -34.333 5.33301 -45 16s-16 26 -16 46s5.83301 36 17.5 48s27.834 18 48.501 18c18.667 0 33.334 -5.33301 44.001 -16zM535.998 845c10.667 -10.667 15.999 -25.667 15.999 -45c0 -20.667 -5.83301 -37 -17.5 -49s-27.167 -18 -46.5 -18s-34.333 5.33301 -45 16
s-16 26 -16 46s5.83301 36 17.5 48s27.5 18 47.5 18c18.667 0 33.334 -5.33301 44.001 -16z" />
    <glyph glyph-name="uni04F9" unicode="&#x4f9;" horiz-adv-x="686" 
d="M615 205l6 -205h-133l7 192l-5 264l131 11zM401.5 262.5c26.333 -21.667 39.501 -53.166 39.501 -94.499c0 -52.667 -18.667 -93.834 -56 -123.501s-89 -44.5 -155 -44.5h-166l7 192l-5 273h131l-4 -170h95c49.333 0 87.166 -10.833 113.499 -32.5zM300.001 105.501
c10 13 15 28.833 15 47.5c0 20 -5.66699 35.833 -17 47.5s-27 17.167 -47 16.5l-60 -1v-11l4 -122l63 -3c18 4 32 12.5 42 25.5zM304.001 666.001c10.667 -10.667 15.998 -25.667 15.998 -45c0 -20.667 -5.83301 -37 -17.5 -49s-27.5 -18 -47.5 -18
c-19.333 0 -34.333 5.33301 -45 16s-16 26 -16 46s5.83301 36 17.5 48s27.834 18 48.501 18c18.667 0 33.334 -5.33301 44.001 -16zM476.999 666.001c10.667 -10.667 15.999 -25.667 15.999 -45c0 -20.667 -5.83301 -37 -17.5 -49s-27.167 -18 -46.5 -18
s-34.333 5.33301 -45 16s-16 26 -16 46s5.83301 36 17.5 48s27.5 18 47.5 18c18.667 0 33.334 -5.33301 44.001 -16z" />
    <glyph glyph-name="AE" horiz-adv-x="822" 
d="M814 101l-9 -101h-389l-5 84l-17 137l-212 -56l-35 -74l-30 -91h-135l310 644h440l9 -11l-11 -101l-155 5h-88l22 -181l194 50l10 -8l11 -95l-203 -48l18 -149h102l165 6zM382 323l-24 194h-9l-109 -231z" />
    <glyph glyph-name="uniA78B" horiz-adv-x="145" 
d="M135 605l-35 -293l-63 -12l-10 11l-3 298l103 9z" />
    <glyph glyph-name="uni018F" horiz-adv-x="630" 
d="M458.5 611.5c46.333 -26.333 81.832 -64.1689 106.499 -113.502s37 -107.666 37 -174.999s-12.167 -126 -36.5 -176s-59.166 -88.5 -104.499 -115.5s-98.333 -40.5 -159 -40.5c-52 0 -97.833 10.167 -137.5 30.5s-70.5 48.833 -92.5 85.5s-33 79.334 -33 128.001
c0 20 2.33301 45 7 75l18 21l402 2c-4.66699 136.667 -66.667 205 -186 205c-64 0 -128.667 -17.333 -194 -52l-14 10l23 112c63.333 28.667 129.333 43 198 43c64 0 119.167 -13.167 165.5 -39.5zM406.999 131.997c26.667 26.667 44.332 64.667 52.999 114l-287 -5l-2 -21
c0 -39.333 12 -70.5 36 -93.5s56 -34.5 96 -34.5c42.667 0 77.334 13.333 104.001 40z" />
    <glyph glyph-name="Q.short" horiz-adv-x="649" 
d="M661 -96c-20 -38.667 -41.667 -68.333 -65 -89l-10 -5c-102.667 58.667 -187.667 118.667 -255 180h-19c-90.667 0 -160.667 28.167 -210 84.5s-74 136.166 -74 239.499c0 108.667 26.5 192.334 79.5 251.001s128.167 88 225.5 88c90.667 0 160.5 -27.5 209.5 -82.5
s73.5 -133.833 73.5 -236.5c0 -77.333 -14 -143 -42 -197s-68 -93.333 -120 -118c62 -40 129 -73.667 201 -101zM205.5 149.501c24.333 -36.333 63.5 -54.502 117.5 -54.502c52.667 0 91 17 115 51s36 89.333 36 166c0 82.667 -12 141.834 -36 177.501
s-63.333 53.5 -118 53.5c-53.333 0 -91.833 -16.667 -115.5 -50s-35.5 -88 -35.5 -164c0 -83.333 12.167 -143.166 36.5 -179.499z" />
    <glyph glyph-name="C.ss01" horiz-adv-x="552" 
d="M226 483c-26.667 -32.667 -40.002 -83 -40.002 -151c0 -146 55.333 -219 166 -219c23.333 0 48 3.33301 74 10s49.667 16 71 28l12 -7l-10 -95h93v-49h-632v49h197c-37.333 26 -65.666 61.5 -84.999 106.5s-29 98.833 -29 161.5c0 64 10.5 119.333 31.5 166
s51.5 83.667 91.5 111h-206v50h632v-50h-75l-22 -97l-10 -5c-19.333 12.667 -41.166 22.5 -65.499 29.5s-48.166 10.5 -71.499 10.5c-54.667 0 -95.334 -16.333 -122.001 -49z" />
    <glyph glyph-name="D.ss01" horiz-adv-x="676" 
d="M716 594l-188.001 -0.000976562c70 -50 105 -132.667 105 -248c0 -70 -11.167 -130.167 -33.5 -180.5s-55.166 -89.166 -98.499 -116.499h215v-49h-756v49h127l5 143l-6 402h-126v50h756v-50zM216.999 103.999l116.999 -1c51.333 0 90.5 17.5 117.5 52.5
s40.5 88.167 40.5 159.5c0 78 -12.667 134.333 -38 169s-65.666 52 -120.999 52l-113 -1l-5 -331z" />
    <glyph glyph-name="I.ss01" horiz-adv-x="307" 
d="M215 204l4 -155h128v-49h-387v49h127l5 143l-6 402h-126v50h387v-50h-126z" />
    <glyph glyph-name="L.ss01" horiz-adv-x="493" 
d="M213 204l3 -86h215l8 -10l-5 -59h99v-49h-573v49h124l6 143l-7 402h-123v50h573v-50h-314z" />
    <glyph glyph-name="M.ss01" horiz-adv-x="820" 
d="M708 594l50 -545h102v-49h-900v49h100l56 545h-156v50h900v-50h-152zM534 594h-243l13 -44l100 -300h9l108 300zM639 49l-8 152l-23 242h-10l-129 -327h-133l-118 327h-9l-25 -230l-12 -164h467z" />
    <glyph glyph-name="V.ss01" horiz-adv-x="608" 
d="M576 594l-183 -545h255v-49h-688v49h239l-167 545h-72v50h688v-50h-72zM450 594h-286l7 -35l123 -433h9l139 426z" />
    <glyph glyph-name="X.ss01" horiz-adv-x="627" 
d="M400 337l178 -288h89v-49h-707v49h96l173 269l-173 276h-96v50h707v-50h-104zM320 422l104 162l5 10h-217l7 -15zM308 231l-117 -174l-4 -8h236l-7 15z" />
    <glyph glyph-name="ae" horiz-adv-x="694" 
d="M621 423.5c31.333 -33 46.9971 -79.8359 46.9971 -140.503c0 -10 -0.333008 -17.667 -1 -23l-13 -16l-266 -31c3.33301 -42.667 14.333 -74.167 33 -94.5s47 -30.5 85 -30.5c20 0 41.5 3 64.5 9s45.167 15 66.5 27l11 -7l-19 -97
c-20 -9.33301 -42.167 -16.666 -66.5 -21.999s-46.833 -8 -67.5 -8c-38.667 0 -72.667 7.16699 -102 21.5s-53 35.833 -71 64.5c-36.667 -38.667 -78.334 -67 -125.001 -85c-51.333 0.666992 -92.333 12.834 -123 36.501s-46 57.167 -46 100.5
c0 32.667 8.83301 59.834 26.5 81.501s43.167 34.5 76.5 38.5l150 16v53c0 22 -5.16699 38.333 -15.5 49s-26.166 16 -47.499 16c-39.333 0 -86.666 -19.667 -141.999 -59l-9 6l-16 90c28 18 57.833 31.667 89.5 41s62.834 14 93.501 14c57.333 0 98 -17.667 122 -53
c17.333 16.667 37.833 29.5 61.5 38.5s48.834 13.5 75.501 13.5c54 0 96.667 -16.5 128 -49.5zM413.997 354.497c-18 -20.333 -27.001 -45.5 -27.001 -75.5v-1l163 23c0.666992 28.667 -5.16602 50 -17.499 64s-29.833 21 -52.5 21c-26 -0.666992 -48 -11.167 -66 -31.5z
M239.996 100.497c12.667 7 29.333 19.834 50 38.501c-4.66699 25.333 -7.33398 45 -8.00098 59l-96 -14c-14 -2.66699 -24 -7.33398 -30 -14.001s-9 -16 -9 -28c0 -16.667 4.83301 -29.5 14.5 -38.5s22.834 -13.5 39.501 -13.5c13.333 0 26.333 3.5 39 10.5z" />
    <glyph glyph-name="uni0259" horiz-adv-x="472" 
d="M380.5 411c41.667 -42.667 62.498 -101.665 62.498 -176.998c0 -74.667 -20.333 -133.834 -61 -177.501s-95.667 -65.5 -165 -65.5c-59.333 0 -105.166 16.167 -137.499 48.5s-48.5 77.5 -48.5 135.5c0 15.333 1.66699 34.666 5 57.999l15 16l270 2
c-6 83.333 -48.333 125 -127 125c-41.333 0 -87.333 -11.667 -138 -35l-11 7l20 99c50.667 18.667 98.334 28 143.001 28c73.333 0 130.833 -21.333 172.5 -64zM283.498 104.502c17 17 28.5 41.501 34.5 73.501l-169 -4l-2 -14c0 -26.667 6 -46.834 18 -60.501
s29.667 -20.5 53 -20.5c26.667 0 48.5 8.5 65.5 25.5z" />
    <glyph glyph-name="hbar" horiz-adv-x="532" 
d="M345 0l8.00195 290c0 24 -5.33301 42.333 -16 55s-26.334 19 -47.001 19c-30 0 -62 -14.333 -96 -43l-2 -116l7 -205h-133l8 193l-4 334h-64l-10 9l6 63h67l-1 93l132 10l-2 -103h125l8 -10l-4 -62h-130l-2 -128h6c38 34 78.333 58 121 72
c50.667 0 89.167 -11.5 115.5 -34.5s39.166 -56.167 38.499 -99.5l-3 -133l5 -204h-133z" />
    <glyph glyph-name="dotlessi" horiz-adv-x="261" 
d="M70 192l-5 264l131 11l-6 -262l6 -205h-133z" />
    <glyph glyph-name="i.loclTRK" horiz-adv-x="261" 
d="M70 192l-5 264l131 11l-6 -262l6 -205h-133zM181.5 675c11.667 -12 17.499 -28.667 17.499 -50c0 -22.667 -6.33301 -40.667 -19 -54s-30 -20 -52 -20s-38.833 6 -50.5 18s-17.5 29 -17.5 51s6.5 39.667 19.5 53s30.833 20 53.5 20c20.667 0 36.834 -6 48.501 -18z" />
    <glyph glyph-name="uni0237" horiz-adv-x="285" 
d="M220 465l-8 -260l6 -178c0 -52.667 -12.667 -96.334 -38 -131.001s-67 -65 -125 -91l-46 59v12c30 16.667 51.333 36.334 64 59.001s19 52 19 88l2 169l-4 189h-81l-8 8l7 72h84l124 7z" />
    <glyph glyph-name="uniA78C" horiz-adv-x="145" 
d="M134 525l-35 -280l-62 -11l-11 11l-2 283l102 9z" />
    <glyph glyph-name="f.f" horiz-adv-x="323" 
d="M224 381l-2.99902 -176l7 -205h-133l8 193l-2 188h-70l-5 7l7 73h67l-1 41c-0.666992 60 16.5 106.333 51.5 139s84.5 49 148.5 49c26 0 53 -3 81 -9l-8 -95l-9 -6c-28.667 11.333 -53.667 17 -75 17c-40.667 0 -61.334 -23.667 -62.001 -71l-1 -65h240l4 -7l-6 -73h-239
z" />
    <glyph glyph-name="f.l" horiz-adv-x="349" 
d="M475 685l-27 -96l-10 -6c-48.667 22 -92 33 -130 33c-54 0 -81.333 -27.667 -82 -83l-1 -72h113l4 -7l-6 -73h-112l-3 -177l7 -204h-133l8 192l-3 189h-69l-5 7l7 73h66l-1 52c0 64 18.667 112.833 56 146.5s90.666 50.5 159.999 50.5
c50.667 0 104.334 -8.33301 161.001 -25z" />
    <glyph glyph-name="c.ss01" horiz-adv-x="454" 
d="M195 369.5c-19.333 -23 -29.002 -59.166 -29.002 -108.499c0 -106 41 -159 123 -159c18.667 0 38.334 2.66699 59.001 8s39.334 12.666 56.001 21.999l11 -6l-8 -77h87v-49h-534v49h159c-53.333 41.333 -80 108 -80 200c0 46.667 7.5 87.5 22.5 122.5
s37.167 63.167 66.5 84.5h-168v49h534v-49h-73l-16 -81l-11 -5c-14.667 10.667 -31.834 19 -51.501 25s-39.5 9 -59.5 9c-39.333 0 -68.666 -11.5 -87.999 -34.5z" />
    <glyph glyph-name="d.ss01" horiz-adv-x="570" 
d="M610 456h-161c53.333 -38.667 80 -100.667 80 -186c0 -101.333 -31 -175 -93 -221h174v-49h-650v49h122l4 103l-4 304h-122v49h650v-49zM199 101c34 -4.66699 63.333 -7 88 -7c38 0 66.833 11.833 86.5 35.5s29.5 61.167 29.5 112.5c0 57.333 -9.33301 98.333 -28 123
s-48.667 37 -90 37c-27.333 0 -55 -1 -83 -3l-5 -235z" />
    <glyph glyph-name="i.ss01" horiz-adv-x="279" 
d="M194 162l4 -113h121v-49h-359v49h115l3 101l-4 306h-114v49h359v-49h-119z" />
    <glyph glyph-name="l.ss01" horiz-adv-x="400" 
d="M197 456l-6 -292l1 -57h172l7 -10l-4 -48h73v-49h-480v49h114l4 103l-5 304h-113v49h480v-49h-243z" />
    <glyph glyph-name="m.ss01" horiz-adv-x="686" 
d="M580 456l37 -407h109v-49h-766v49h103l43 407h-146v49h766v-49h-146zM430 456h-172l9 -29l70 -185h8l74 183zM513 49l-5 122l-14 155h-8l-106 -238h-92l-96 238h-7l-16 -146l-7 -131h351z" />
    <glyph glyph-name="v.ss01" horiz-adv-x="519" 
d="M484 456l-141 -407h216v-49h-599v49h210l-128 407h-82v49h599v-49h-75zM373 456h-214l6 -31l90 -306h7l104 299z" />
    <glyph glyph-name="x.ss01" horiz-adv-x="536" 
d="M343 266l141 -217h92v-49h-616v49h101l139 200l-139 207h-101v49h616v-49h-104zM205 434l70 -99l74 103l9 18h-164zM340 74l-74 104l-83 -109l-10 -20h179z" />
    <glyph glyph-name="f.t" horiz-adv-x="328" 
d="M224 381l-2.99902 -176l7 -205h-133l8 193l-2 188h-70l-5 7l7 73h67l-1 41c-0.666992 60 16.166 106.333 50.499 139s83.166 49 146.499 49c22.667 0 47.334 -2.66699 74.001 -8l-8 -95l-9 -6c-24.667 10.667 -47.667 16 -69 16c-38 0 -57.333 -23.667 -58 -71l-1 -65
h239l4 -7l-6 -73h-238z" />
    <glyph glyph-name="uni0492.loclBSH" horiz-adv-x="497" 
d="M221 536l-3 -174l90 -1l109 3l9 -10l-10 -101l-119 3l-81 -1l-1 -51l6 -204h-136l7 192l-7 452h383l8 -11l-10 -102l-153 6z" />
    <glyph glyph-name="uni0498.loclBSH" horiz-adv-x="532" 
d="M446 65c-28.667 -31.333 -69.3311 -53 -121.998 -65l-12 -147l-100 -9l-11 146c-32 1.33301 -62.5 5.5 -91.5 12.5s-53.833 16.167 -74.5 27.5l25 113l10 5c20.667 -14.667 44.334 -26 71.001 -34s53.334 -12 80.001 -12c39.333 0 71.166 8.5 95.499 25.5
s36.5 39.5 36.5 67.5c0 20.667 -6.5 38.167 -19.5 52.5s-31.833 24.166 -56.5 29.499h-143l-8 10l8 92l134 -1c17.333 8 31.166 19.833 41.499 35.5s15.5 33.167 15.5 52.5c0 24 -8.5 41.833 -25.5 53.5s-42.833 17.5 -77.5 17.5c-48.667 0 -102.334 -13.667 -161.001 -41
l-13 7l11 113c50 24 106 36 168 36c74 0 131.833 -14.5 173.5 -43.5s62.5 -69.167 62.5 -120.5c0 -34 -8.83301 -64.5 -26.5 -91.5s-42.834 -47.833 -75.501 -62.5c85.333 -22 128 -72.333 128 -151c0 -47.333 -14.333 -86.666 -43 -117.999z" />
    <glyph glyph-name="uni04AA.loclCHU" horiz-adv-x="553" 
d="M423.5 116.5c26.333 7.66699 50.1689 18.166 71.502 31.499l12 -7l-11 -115c-44.667 -20 -91.334 -31.667 -140.001 -35l-10 -39l34 -19c14.667 -8 25.167 -16.833 31.5 -26.5s9.5 -20.5 9.5 -32.5c0 -22 -8.66699 -40 -26 -54s-40 -21 -68 -21
c-30 0 -57.333 9.33301 -82 28l9 56l6 3c20 -20 39.667 -30 59 -30c16 0 24 7 24 21c0 4.66699 -1.33301 8.5 -4 11.5s-7 5.83301 -13 8.5l-49 28l16 68c-82.667 8.66699 -145.334 40.5 -188.001 95.5s-64 130.833 -64 227.5c0 106.667 26.833 189.334 80.5 248.001
s129.5 88 227.5 88c62.667 0 119 -13 169 -39l-24 -113l-11 -5c-20 14 -42 25 -66 33s-48.667 12 -74 12c-106 0 -159 -69.667 -159 -209c0 -75.333 13.833 -131.833 41.5 -169.5s68.167 -56.5 121.5 -56.5c24.667 0 50.167 3.83301 76.5 11.5z" />
    <glyph glyph-name="uni0493.loclBSH" horiz-adv-x="379" 
d="M195 373l-3 -118h122l4 -7l-2 -74h-124l5 -174h-133l7 192l-5 273h298l7 -9l-8 -86l-106 3h-62z" />
    <glyph glyph-name="uni0499.loclBSH" horiz-adv-x="424" 
d="M350 51c-19.333 -22 -47.334 -37.998 -84.001 -47.998l-10 -138l-91 -8l-10 135c-52 2 -94 10.333 -126 25l21 96l9 4c14.667 -8 32 -14.333 52 -19s39.667 -7 59 -7c27.333 0 49 4.66699 65 14s24 22.333 24 39c0 23.333 -14.667 39 -44 47h-111l-7 8l8 81l101 -1
c10.667 4.66699 19 11.5 25 20.5s9 19.167 9 30.5c0 14.667 -5.5 25.167 -16.5 31.5s-28.833 9.5 -53.5 9.5c-34 0 -73.667 -7 -119 -21l-11 5l9 96c38.667 13.333 80.334 20 125.001 20c59.333 0 105.333 -10.667 138 -32s49 -51.333 49 -90
c0 -24.667 -6.5 -46.334 -19.5 -65.001s-31.167 -33.334 -54.5 -44.001c31.333 -8.66699 54.5 -21.667 69.5 -39s22.5 -40 22.5 -68c0 -32.667 -9.66699 -60 -29 -82z" />
    <glyph glyph-name="uni04AB.loclCHU" horiz-adv-x="402" 
d="M357 120l9.99902 -7.99902l-13 -103c-34 -10 -66 -16 -96 -18l-9 -39l34 -19c14.667 -8 25.167 -16.833 31.5 -26.5s9.5 -20.5 9.5 -32.5c0 -22 -8.66699 -40 -26 -54s-40 -21 -68 -21c-30 0 -57.333 9.33301 -82 28l9 56l6 3c20 -20 39.667 -30 59 -30c16 0 24 7 24 21
c0 4.66699 -1.33301 8.5 -4 11.5s-7 5.83301 -13 8.5l-49 28l15 67c-53.333 8 -94.666 32.333 -123.999 73s-44 94.667 -44 162c0 77.333 19.667 137.833 59 181.5s94 65.5 164 65.5c22 0 43.833 -2.16699 65.5 -6.5s40.834 -10.5 57.501 -18.5l-22 -106l-11 -5
c-34 18.667 -64.333 28 -91 28c-30.667 0 -54.334 -11 -71.001 -33s-25 -53.333 -25 -94c0 -46.667 9 -82.334 27 -107.001s43.667 -37 77 -37c30 0 63.333 8.33301 100 25z" />
    <glyph glyph-name="uni0431.loclSRB" horiz-adv-x="492" 
d="M431.5 361.5c24.333 -34.333 36.5 -81.166 36.5 -140.499c0 -74.667 -19.167 -131.834 -57.5 -171.501s-93.166 -59.5 -164.499 -59.5c-68.667 0 -121.334 17.833 -158.001 53.5s-55 87.167 -55 154.5c0 98 40.333 160 121 186l-4 1
c-28.667 8.66699 -50.5 22.334 -65.5 41.001s-22.5 41.667 -22.5 69c0 28 8.5 52.167 25.5 72.5s41.833 35.833 74.5 46.5l157 50c23.333 7.33301 43.333 14.166 60 20.499s36 14.833 58 25.5l12 -8l-1 -110c-22.667 -8.66699 -59 -19 -109 -31l-132 -36
c-14 -4 -23.833 -8.33301 -29.5 -13s-8.5 -10.667 -8.5 -18s3 -13.5 9 -18.5s15.667 -9.5 29 -13.5l112 -30c50.667 -12.667 88.167 -36.167 112.5 -70.5zM322 107c14 19.333 20.999 52.001 20.999 98.001c0 45.333 -5.33301 78.166 -16 98.499s-29.667 34.833 -57 43.5
l-39 12c-27.333 -13.333 -46.666 -30.833 -57.999 -52.5s-17 -52.5 -17 -92.5c0 -49.333 7.5 -84.333 22.5 -105s39.833 -31 74.5 -31c32 0 55 9.66699 69 29z" />
    <glyph glyph-name="Pi" horiz-adv-x="660" 
d="M574 204l5 -204h-135l6 192l-5 347h-232l-5 -335l5 -204h-135l6 192l-6 452h503z" />
    <glyph glyph-name="Phi" horiz-adv-x="789" 
d="M680 140c-51.333 -45.333 -126.666 -71.668 -225.999 -79.001l2 -88h-125l2 87c-98.667 6 -173.5 31.167 -224.5 75.5s-76.5 107.5 -76.5 189.5c0 86.667 25.167 152.5 75.5 197.5s125.166 71.167 224.499 78.5l-1 72h127l-1 -71c200 -13.333 300 -101 300 -263
c0 -87.333 -25.667 -153.666 -77 -198.999zM202.5 208.998c28.333 -27.333 72.833 -43.666 133.5 -48.999l1 33l-4 309c-58.667 -6 -102.167 -22.833 -130.5 -50.5s-42.5 -67.834 -42.5 -120.501c0 -54 14.167 -94.667 42.5 -122zM584.5 208.498
c28.333 27 42.5 67.5 42.5 121.5c0 53.333 -13.667 93.833 -41 121.5s-70.666 44.5 -129.999 50.5l-4 -297l1 -45c59.333 5.33301 103.166 21.5 131.499 48.5z" />
    <glyph glyph-name="minus" horiz-adv-x="480" 
d="M457 296l-7 -81h-418l-9 9l7 81h418z" />
    <glyph glyph-name="uni0308" 
d="M-234 666c10.667 -10.667 15.998 -25.667 15.998 -45c0 -20.667 -5.83301 -37 -17.5 -49s-27.5 -18 -47.5 -18c-19.333 0 -34.333 5.33301 -45 16s-16 26 -16 46s5.83301 36 17.5 48s27.834 18 48.501 18c18.667 0 33.334 -5.33301 44.001 -16zM-61.002 666
c10.667 -10.667 15.999 -25.667 15.999 -45c0 -20.667 -5.83301 -37 -17.5 -49s-27.167 -18 -46.5 -18s-34.333 5.33301 -45 16s-16 26 -16 46s5.83301 36 17.5 48s27.5 18 47.5 18c18.667 0 33.334 -5.33301 44.001 -16z" />
    <glyph glyph-name="uni0307" 
d="M-75.5 675c11.667 -12 17.499 -28.667 17.499 -50c0 -22.667 -6.33301 -40.667 -19 -54s-30 -20 -52 -20s-38.833 6 -50.5 18s-17.5 29 -17.5 51s6.5 39.667 19.5 53s30.833 20 53.5 20c20.667 0 36.834 -6 48.501 -18z" />
    <glyph glyph-name="gravecomb" 
d="M-74 571l-32 -50l-12 -1l-195 118l-2 13l48 72l12 1c48.667 -44.667 109 -95.667 181 -153z" />
    <glyph glyph-name="acutecomb" 
d="M-121 723l48.001 -72l-2 -13c-14.667 -9.33301 -25.667 -16 -33 -20c-83.333 -51.333 -137.333 -84 -162 -98l-13 1l-32 50c77.333 62 137.666 113 180.999 153z" />
    <glyph glyph-name="uni030B" 
d="M-245 726l10 2l61 -44l1 -10c-36.667 -41.333 -84.667 -91.666 -144 -150.999l-12 -3l-41 34c46 59.333 87.667 116.666 125 171.999zM-93 726l11 1.99902l61 -44l1 -10c-36.667 -41.333 -84.667 -91.666 -144 -150.999l-12 -3l-41 34c48.667 64.667 90 122 124 172z" />
    <glyph glyph-name="uni0304" 
d="M-47 651l-6 -74h-280l-9 9l6 74h280z" />
    <glyph glyph-name="uni0308.case" 
d="M-234 666c10.667 -10.667 15.998 -25.667 15.998 -45c0 -20.667 -5.83301 -37 -17.5 -49s-27.5 -18 -47.5 -18c-19.333 0 -34.333 5.33301 -45 16s-16 26 -16 46s5.83301 36 17.5 48s27.834 18 48.501 18c18.667 0 33.334 -5.33301 44.001 -16zM-61.002 666
c10.667 -10.667 15.999 -25.667 15.999 -45c0 -20.667 -5.83301 -37 -17.5 -49s-27.167 -18 -46.5 -18s-34.333 5.33301 -45 16s-16 26 -16 46s5.83301 36 17.5 48s27.5 18 47.5 18c18.667 0 33.334 -5.33301 44.001 -16z" />
    <glyph glyph-name="gravecomb.case" 
d="M-67 597l-20.999 -54.999l-13 -4c-80.667 27.333 -152.334 53.333 -215.001 78l-4 12l33 79l13 3c54.667 -32.667 123.667 -70.334 207 -113.001z" />
    <glyph glyph-name="acutecomb.case" 
d="M-103 707l34 -79l-4 -12c-64.667 -25.333 -136.667 -51.333 -216 -78l-12 4l-22 55c82 41.333 151 79 207 113z" />
    <glyph glyph-name="uni030B.case" 
d="M-346 590l89 114.001l11 2l60 -40l2 -11c-36.667 -36.667 -78 -75.334 -124 -116.001l-12 -3l-42 34zM-194 586.001c41.333 52 71.667 91.333 91 118l11 2l62 -40l1 -11c-40 -39.333 -81.667 -78 -125 -116l-11 -3l-42 34z" />
    <glyph glyph-name="uni0304.case" 
d="M-47 651l-6 -74h-280l-9 9l6 74h280z" />
    <glyph glyph-name="uni0308.i" 
d="M-217.5 663c9.66699 -10 14.501 -24.334 14.501 -43.001c0 -19.333 -5.33301 -34.666 -16 -45.999s-25.334 -17 -44.001 -17s-33 5 -43 15s-15 24.667 -15 44s5.5 34.5 16.5 45.5s26.167 16.5 45.5 16.5c18 0 31.833 -5 41.5 -15zM-82.999 662.999
c10 -10 15.001 -24.334 15.001 -43.001c0 -19.333 -5.5 -34.666 -16.5 -45.999s-25.833 -17 -44.5 -17s-33 5.16699 -43 15.5s-15 24.833 -15 43.5c0 19.333 5.66699 34.5 17 45.5s26.666 16.5 45.999 16.5c17.333 0 31 -5 41 -15z" />
    <glyph glyph-name="tildecomb.i" 
d="M-41 659l0.000976562 -10.999l-63 -89l-12 -4c-16 2.66699 -39.333 9 -70 19c-31.333 10 -50.666 15 -57.999 15s-14.5 -3.33301 -21.5 -10s-13.833 -14.334 -20.5 -23.001l-13 -17h-11l-39 39v12l62 87l13 5c16 -2.66699 39.333 -9 70 -19
c31.333 -10 50.666 -15 57.999 -15s14.166 3 20.499 9s12.833 13.333 19.5 22s11.667 15 15 19h11z" />
    <glyph glyph-name="tilde" horiz-adv-x="389" 
d="M369 662l-0.00195312 -11.001l-70 -89l-13 -5c-18 2 -45.667 8.33301 -83 19c-3.33301 0.666992 -14.166 3.5 -32.499 8.5s-31.166 7.5 -38.499 7.5s-14.5 -3 -21.5 -9s-14.5 -13.333 -22.5 -22l-18 -20h-12l-40 39v11l71 89l12 5c16 -2 44.333 -8.66699 85 -20
c37.333 -10 60.333 -15 69 -15c8 0 15.833 3.33301 23.5 10s15.5 14.334 23.5 23.001s13.333 14.667 16 18h12z" />
    <glyph glyph-name="brevecombcy" 
d="M-23 631c-13.333 -30.667 -34.833 -54.668 -64.5 -72.001s-64.167 -26 -103.5 -26c-38.667 0 -72 8.33301 -100 25s-49.333 41 -64 73l67 46h14c8.66699 -24 19.5 -41 32.5 -51s31.167 -15 54.5 -15c22.667 0 40.167 4.83301 52.5 14.5s22.833 26.834 31.5 51.501h13z
" />
    <glyph glyph-name="brevecombcy.case" 
d="M-22 611c-15.333 -31.333 -38.832 -55.501 -70.499 -72.501s-68.834 -25.5 -111.501 -25.5c-42 0 -78.333 8.33301 -109 25s-53.667 41 -69 73l67 46h15c8.66699 -24 20.667 -41 36 -51s36.333 -15 63 -15s47.5 4.83301 62.5 14.5s26.833 26.834 35.5 51.501h13z" />
    </font>
</defs>
</svg>
